<svg width="518" height="498" viewBox="0 0 518 498" fill="none" xmlns="http://www.w3.org/2000/svg">
<path d="M172.109 382.11C169.409 376.89 162.329 376.17 158.629 380.73C146.789 395.34 124.189 418.59 98.1791 421.74C70.4891 425.1 57.8192 412.15 52.7192 409.26C34.3592 398.88 9.78929 413.65 8.08929 410.04C4.50929 402.45 32.3893 373.16 30.7993 365.41C27.4093 348.94 39.4087 328.71 58.1987 316.87C84.2687 300.44 120.119 304.52 129.479 282.07C132.599 274.59 127.299 264.65 123.179 249.53C110.849 204.17 114.569 122.2 167.419 79.9201C211.899 44.3301 263.869 16.2402 279.209 8.23017C282.119 6.71017 285.609 7.11994 288.119 9.23994C302.529 21.4099 355.069 64.0201 316.519 186.12C305.629 220.62 296.629 209.36 296.629 209.36L339.339 191.11C358.949 182.73 392.929 154.01 401.939 151.26C410.419 148.67 423.999 170.54 428.599 178.11C428.599 178.11 494.149 278.07 489.139 279.62C470.329 285.45 427.429 306.01 411.409 300.66C390.269 293.61 365.889 338.79 417.569 362.62C453.669 379.27 489.899 423.48 504.639 442.92C508.079 447.45 505.899 454.01 500.419 455.54C477.829 461.85 424.159 475.65 370.809 480.53C325.879 484.64 281.189 482.42 255.499 464.06C200.549 424.81 179.879 397.15 172.099 382.09L172.109 382.11Z" fill="#F7A92C"/>
<path d="M164.831 388.69C163.451 385.85 162.531 387.6 162.041 387.31C164.931 391.87 165.131 388.34 164.831 388.69Z" fill="#F8B344"/>
<path d="M198.33 424.53L197.26 424.42L203.439 428.13L198.33 424.53Z" fill="#F8B344"/>
<path d="M231.81 453.66C231.04 451.25 227.829 448.88 224.149 446.32C220.509 443.72 216.319 441.02 213.689 438.01L213.13 436.67L208.949 436.01C216.379 442.21 226.99 448.9 231.81 453.66Z" fill="#F8B344"/>
<path d="M247.14 472.69C246.59 470.94 251.839 474.96 242.859 469.15C243.219 469.56 243.31 469.71 243.51 469.96C244.3 470.51 245.36 471.3 247.14 472.69Z" fill="#F8B344"/>
<path d="M243.511 469.969C245.451 472.519 239.671 467.269 243.511 469.969Z" fill="#F8B344"/>
<path d="M264.129 481.63C263.019 481.32 261.899 481.02 260.789 480.68L257.459 479.48C257.959 480.1 259.578 481.22 260.818 482C262.058 482.74 262.898 483.27 261.738 483.02C268.548 485.4 267.358 484.18 264.118 481.63H264.129Z" fill="#F8B344"/>
<path d="M270.81 482.119C269.69 481.849 268.549 481.649 267.439 481.289C267.889 481.799 268.73 482.219 270.81 482.119Z" fill="#F8B344"/>
<path d="M260.291 479.01C261.471 479.51 262.67 479.84 263.87 480.21L267.44 481.29C266.71 480.48 266.99 479.62 264.2 480.22C264.65 479.96 264.451 479.87 263.761 479.75C263.071 479.61 261.851 479.54 260.301 479.01H260.291Z" fill="#F8B344"/>
<path d="M256.71 476.629C256.32 476.339 255.92 476.038 255.52 475.738C255.14 475.408 254.759 475.089 254.409 474.779C253.709 474.169 253.14 473.639 252.85 473.279C252.28 472.559 252.88 472.558 256.01 473.988C254.61 473.148 253.399 472.459 252.369 471.889C251.339 471.329 250.45 470.889 249.9 470.609C248.71 470.029 248.129 469.939 248.159 470.269C248.179 470.429 248.339 470.699 248.659 471.059C248.819 471.239 249.02 471.439 249.25 471.669C249.49 471.899 249.74 472.139 250.13 472.429C250.87 472.989 251.779 473.639 252.869 474.369C253.969 475.069 255.2 475.959 256.69 476.639L256.71 476.629Z" fill="#F8B344"/>
<path d="M235.359 452.769C234.309 451.639 233.3 450.449 232.27 449.289L228.59 447.559C230.43 448.419 235.019 453.659 235.359 452.769Z" fill="#F8B344"/>
<path d="M303.619 493.18C304.089 492.64 301.66 491.31 301.3 490.49C299.71 490.49 298.11 490.53 296.5 490.51C298.85 491.28 303.399 492.25 303.619 493.18Z" fill="#F8B344"/>
<path d="M301.3 490.49L304.869 490.46L308.409 490.3C306.859 490.11 305.62 490.01 304.64 489.94C303.66 489.85 302.929 489.82 302.409 489.84C301.369 489.89 301.14 490.15 301.3 490.5V490.49Z" fill="#F8B344"/>
<path d="M272.96 479.589L270.02 479.109C269.03 478.969 268.07 478.679 267.08 478.469L264.13 477.769L262.64 477.409L261.17 476.949C262.32 477.389 263.489 477.689 264.659 477.999L268.14 478.919C269.29 479.259 270.459 479.439 271.619 479.669L275.09 480.319L272.96 479.589Z" fill="#F8B344"/>
<path d="M330.51 494.969C329.19 495.439 327.85 495.839 326.5 496.259C328.9 495.669 331.25 494.969 333.6 494.289L330.5 494.979L330.51 494.969Z" fill="#F8B344"/>
<path d="M348.13 494.509C345.26 495.769 352.2 496.269 349.14 497.099C351.53 496.889 353.74 496.529 355.79 496.019C357.84 495.509 359.739 494.919 361.529 494.369C359.609 494.739 357.61 494.959 355.42 495.009C353.22 495.049 350.83 494.859 348.13 494.519V494.509Z" fill="#F8B344"/>
<path d="M367.54 492.619C365.64 493.039 363.689 493.729 361.529 494.369C363.579 493.989 365.56 493.419 367.54 492.619Z" fill="#F8B344"/>
<path d="M320.24 491.5C320.76 491.91 321.75 492.87 325.65 493.4L322.971 491.64C322.141 491.59 321.2 491.58 320.24 491.5Z" fill="#F8B344"/>
<path d="M322.88 491.58L322.97 491.64C325.93 491.78 327.979 491.88 328.859 491.93C328.099 491.89 326.299 491.78 322.869 491.59L322.88 491.58Z" fill="#F8B344"/>
<path d="M319.549 491.449C319.799 491.469 319.988 491.479 320.238 491.499C319.978 491.319 319.829 491.249 319.549 491.449Z" fill="#F8B344"/>
<path d="M290.439 485.94C292.559 485.85 295.769 485.94 297.439 485.68C298.279 485.54 298.729 485.29 298.489 484.95C298.249 484.62 297.299 484.12 295.359 483.4C292.279 484.01 296.799 485.65 290.449 485.93L290.439 485.94Z" fill="#F8B344"/>
<path d="M316.291 489.14C315.071 488.99 313.861 488.87 312.641 488.7L308.99 488.15C309.09 488.6 310.361 489.38 308.291 489.64L312.301 489.45C313.631 489.38 314.96 489.24 316.28 489.14H316.291Z" fill="#F8B344"/>
<path d="M319.91 488.84L316.291 489.14L319.001 489.46L319.91 488.84Z" fill="#F8B344"/>
<path d="M354.96 491.93C358.06 490.99 361.499 490.77 365.349 490.32C363.269 490.34 361.15 490.34 359.04 490.39C356.93 490.43 354.84 490.55 352.8 490.62C352.25 491.17 350.49 492.2 354.96 491.93Z" fill="#F8B344"/>
<path d="M339.4 491.979C339.62 491.949 339.9 491.899 340.1 491.869C339.67 491.739 339.32 491.699 339.4 491.979Z" fill="#F8B344"/>
<path d="M403.158 485.999C402.938 485.939 402.739 485.859 402.509 485.789C402.479 485.889 402.458 485.989 402.408 486.099L403.148 485.999H403.158Z" fill="#F8B344"/>
<path d="M352.079 490.339C348.939 490.139 347.088 490.649 345.318 491.219C347.658 490.979 350.129 490.749 352.799 490.629C353.049 490.379 353.089 490.219 352.089 490.349L352.079 490.339Z" fill="#F8B344"/>
<path d="M378.11 490.85C376.45 490.67 374.591 490.56 372.631 490.48C374.261 490.85 377.58 491.34 378.11 490.85Z" fill="#F8B344"/>
<path d="M341.17 492.32C341.01 492.35 340.869 492.38 340.699 492.4C341.739 492.74 341.61 492.57 341.17 492.32Z" fill="#F8B344"/>
<path d="M341.17 492.319C342.79 492.049 344.049 491.609 345.319 491.219C343.409 491.389 341.64 491.599 340.1 491.879C340.49 491.989 340.89 492.159 341.17 492.319Z" fill="#F8B344"/>
<path d="M412.77 473.599C412.51 475.239 404.75 477.939 397.63 477.259C391.02 479.339 396.1 483.809 402.52 485.789C402.63 485.089 402.55 484.469 409.44 482.479C408.14 482.249 404.17 482.359 401.25 482.229C398.32 482.059 396.43 481.679 399.29 480.579C408.44 478.419 406.96 479.979 411.61 480.099C407.49 478.829 422.9 475.349 420.39 472.879L412.5 475.229C412.28 474.819 415.079 473.629 412.779 473.609L412.77 473.599Z" fill="#F8B344"/>
<path d="M389.01 487.45L386.109 487.99C389.469 487.85 391.939 488.21 396.479 488.79C401.239 487.37 402.159 486.67 402.409 486.1C397.619 486.68 392.839 487.33 388.029 487.8L389 487.45H389.01Z" fill="#F8B344"/>
<path d="M372.96 489.409C375.1 487.489 382.02 486.069 377.54 484.689C369.02 485.679 371.689 486.699 366.619 487.859C380.459 486.269 362.71 489.159 372.83 489.229C370.13 489.789 367.66 490.049 365.35 490.319C367.88 490.309 370.32 490.389 372.63 490.479C372.5 490.449 372.41 490.429 372.3 490.409H372.239C372.239 490.409 372.25 490.409 372.25 490.389C371.63 490.239 371.419 490.129 372.109 490.189C372.149 490.159 372.319 490.139 372.399 490.129C372.469 489.889 372.71 489.659 372.97 489.429C377.03 489.369 373.649 489.799 372.399 490.129C372.359 490.219 372.26 490.309 372.25 490.399C372.26 490.399 372.28 490.409 372.3 490.419C376.91 489.629 381.529 488.909 386.109 488.009C384.629 488.059 382.979 488.239 380.869 488.459C378.769 488.679 376.22 488.999 372.96 489.429V489.409Z" fill="#F8B344"/>
<path d="M303.24 480.939C303.64 481.149 303.611 481.259 303.631 481.389C304.541 481.309 304.89 481.209 303.24 480.939Z" fill="#F8B344"/>
<path d="M308.759 482.611C308.249 482.681 307.76 482.861 307 482.961C306.24 483.081 305.2 483.08 303.58 482.76C300.82 481.87 303.699 481.961 303.619 481.391C301.629 481.571 296.589 481.651 302.639 483.311L303.649 483.221C309.119 484.531 316.2 487.161 315.21 487.291C313.68 485.691 312.309 484.471 308.759 482.621V482.611Z" fill="#F8B344"/>
<path d="M341.01 487.1C342.94 486.91 344.87 486.77 346.79 486.55L352.55 485.89L346.619 484.68L346.949 485.55C340.379 485.39 341.82 486.4 341.01 487.11V487.1Z" fill="#F8B344"/>
<path d="M404.6 486.629L403.34 488.619L409.6 485.109L404.6 486.629Z" fill="#F8B344"/>
<path d="M419.46 484.02L419.17 485.64C420.43 485.11 421.689 484.59 422.939 484.04L419.46 484.02Z" fill="#F8B344"/>
<path d="M313.47 59.7004L311.92 56.9902C312.58 58.2902 313.07 59.1104 313.47 59.7004Z" fill="#F8B344"/>
<path d="M319.04 81.54L319.869 81.9702C319.309 80.9902 318.91 80.62 319.04 81.54Z" fill="#F8B344"/>
<path d="M466.811 298.31C471.961 297.9 477.851 298.03 476.671 296.62L474.66 295.57C471.58 297.08 469.041 297.85 466.811 298.31Z" fill="#F8B344"/>
<path d="M348.381 186.929C348.871 186.839 349.381 186.739 349.881 186.649C350.611 185.529 351.311 184.529 351.891 183.559C350.871 184.609 349.651 185.719 348.391 186.929H348.381Z" fill="#F8B344"/>
<path d="M348.66 194.809C347.55 195.189 346.491 195.589 345.311 195.919L344.45 196.169L343.341 196.539C342.601 196.789 341.87 197.009 341.15 197.229C341.65 197.109 342.201 196.979 342.811 196.789C343.401 196.609 344.051 196.399 344.761 196.179C345.331 196.009 345.96 195.829 346.61 195.599C347.24 195.349 347.92 195.089 348.66 194.799V194.809Z" fill="#F8B344"/>
<path d="M229.379 49.8398L227.049 53.3699C232.139 50.1299 229.429 50.8198 229.379 49.8398Z" fill="#F8B344"/>
<path d="M477.62 397.109C476.36 395.309 475.141 393.769 473.971 392.399C472.811 391.029 471.71 389.819 470.65 388.719C473.73 393.109 475.68 397.089 477.62 397.109Z" fill="#F8B344"/>
<path d="M333.529 63.2387C332.619 61.2087 332.03 60.4188 331.68 60.5888C332.59 62.6588 333.259 63.8087 333.529 63.2387Z" fill="#F8B344"/>
<path d="M461.311 380.17C461.781 380.81 462.301 381.37 462.791 382C465.381 383.92 467.86 385.97 470.65 388.72C469.49 387.12 468.15 385.48 466.62 383.98C465.85 383.23 465.05 382.51 464.16 381.87C463.26 381.24 462.311 380.66 461.311 380.17Z" fill="#F8B344"/>
<path d="M26.8809 397.53C26.8809 397.6 26.9809 397.62 26.9609 397.7C27.3309 397.39 27.1909 397.42 26.8809 397.53Z" fill="#F8B344"/>
<path d="M146.739 404.289C145.749 405.359 143.93 406.909 142.25 408.399C143.15 407.769 144.559 406.569 146.739 404.289Z" fill="#F8B344"/>
<path d="M478.859 472.25C478.409 472.55 475.789 473.12 478.859 472.25Z" fill="#F8B344"/>
<path d="M462.26 469.289C462.87 468.949 463.32 468.599 463.31 468.199C463.15 468.659 462.78 469.009 462.26 469.289Z" fill="#F8B344"/>
<path d="M429.291 369.29C429.211 369.24 429.151 369.2 429.061 369.15C429.691 369.91 429.581 369.78 429.291 369.29Z" fill="#F8B344"/>
<path d="M474.02 472.65C475.23 472.57 476.61 472.41 478.1 472.17C477.43 472.2 476.18 472.33 474.02 472.65Z" fill="#F8B344"/>
<path d="M474.831 473.27C473.751 473.46 472.891 473.62 472.081 473.76C471.751 474.12 472.151 474.23 474.831 473.27Z" fill="#F8B344"/>
<path d="M483.149 471.09C481.389 471.57 479.72 471.9 478.1 472.17C478.74 472.13 479.009 472.17 478.859 472.26C479.759 472.01 481.039 471.67 483.149 471.09Z" fill="#F8B344"/>
<path d="M123.299 220.279C123.269 220.489 123.259 220.719 123.209 220.949C124.239 223.959 123.979 222.619 123.299 220.279Z" fill="#F8B344"/>
<path d="M456.49 236.35C456.58 236.47 456.661 236.51 456.751 236.61C456.691 236.47 456.611 236.31 456.561 236.18L456.501 236.34L456.49 236.35Z" fill="#F8B344"/>
<path d="M449.43 227.459C453.78 230.399 455.01 232.859 456.56 236.179L458.739 230.409L449.43 227.449V227.459Z" fill="#F8B344"/>
<path d="M284.33 18.8895C284.58 19.4295 284.759 19.9195 284.909 20.3895L284.939 20.4796L284.96 20.5194L285.029 20.6095L285.31 20.9894L285.869 21.7394L286.939 23.2394C285.919 22.7394 284.98 22.2196 284.08 21.7296C283.94 21.6396 283.92 21.6596 283.88 21.6596C283.84 21.6596 283.8 21.6596 283.77 21.6596L283.569 21.6796C283.459 21.6996 283.349 21.7096 283.239 21.7296C282.849 21.7996 282.64 21.8794 282.47 22.0294C282.31 22.1794 282.24 22.3595 282.21 22.6395C282.17 22.9195 282.179 23.3295 281.979 23.8695C282.469 22.5395 282.919 21.9894 283.569 22.0494H283.6L283.699 22.1195L283.92 22.2694C284.06 22.3694 284.209 22.4695 284.359 22.5795C284.659 22.7895 284.95 23.0094 285.25 23.2394C285.84 23.7094 286.48 24.1994 287.08 24.7394C288.31 25.7994 289.54 26.9996 290.75 28.1996C293.17 30.6196 295.36 33.2194 297.3 35.0394C298.23 35.9794 299.12 36.7195 299.93 37.1495C300.73 37.5995 301.43 37.7496 302.05 37.4796L302.93 39.7594L303.71 42.0695C303.03 40.8995 302.689 40.8596 301.979 39.7296C302.699 41.9896 303.43 43.3595 304.27 44.3095C305.08 45.2795 305.999 45.8296 307.029 46.4396C309.009 47.6796 311.499 49.2094 313.569 55.0194C314.149 57.0894 314.579 58.8695 314.569 59.8395C314.569 60.8095 314.23 60.9396 313.47 59.6896L315.619 63.9396C316.309 65.3796 316.93 66.8495 317.6 68.3195C317.95 69.6595 317.8 70.2495 317.54 70.1395C317.29 70.0295 316.87 69.2596 316.52 67.9296L317.08 69.6495L317.55 71.3995L318.5 74.8995C318.79 76.0795 319.03 77.2696 319.3 78.4596C319.55 79.6496 319.87 80.8294 320.05 82.0394L319.88 81.9596C320.44 82.9296 321.209 84.5396 321.949 86.2196C322.709 87.8896 323.27 89.6394 323.68 90.7894C323.29 94.6394 322.929 88.9496 322.369 89.9796L323.409 94.0194L324.27 98.1195C323.67 99.8395 322.939 98.9894 322.359 97.0294C322.049 96.0494 321.84 94.7796 321.59 93.4196C321.34 92.0596 321.15 90.5996 321.06 89.1896C319.92 91.2196 319.47 92.6195 319.42 93.8495C319.35 95.0895 319.61 96.1894 320 97.5494C320.35 98.9194 320.909 100.56 320.989 102.92C321.089 105.27 321.049 108.32 320.069 112.41L319.859 108.549L319.489 104.72C318.739 105.96 318.26 107.25 317.92 108.62C317.52 110 317.26 111.459 317.04 113.039C316.67 116.179 316.099 119.819 314.869 123.999C315.429 123.039 316.95 118.85 318.38 115.93C319.7 113.03 321.03 111.4 321.55 115.9C321.3 117.15 321.01 118.599 320.92 120.349C320.8 122.099 320.96 124.15 321.17 126.62C320.23 126.55 319.729 127.689 319.409 129.589C319.249 130.539 319.13 131.68 319.01 132.95C318.85 134.22 318.669 135.619 318.489 137.089L316.069 136.319C315.939 139.509 316.22 141.049 316.58 142.269C316.91 143.489 317.34 144.4 317.54 146.37C315.99 153.4 313.629 154.42 311.689 155.7C310.229 161.21 311.42 159.479 312.67 158.009C313.91 156.539 315.22 155.319 313.92 162.039C313.07 164.309 312.389 166.429 311.819 168.519C311.449 169.959 311.08 171.369 310.72 172.789C310.6 173.219 310.499 173.649 310.369 174.089L309.93 175.43C309.64 176.32 309.359 177.21 309.069 178.11C307.939 181.68 306.9 185.27 305.89 188.96C305.65 189.87 305.4 190.799 305.14 191.749L305.05 192.1C305.05 192.1 305.05 192.15 305.09 192.15L305.18 192.17L305.359 192.2L306.08 192.329C306.55 192.419 307.02 192.52 307.5 192.61C307.96 192.71 308.429 192.81 308.899 192.92L309.6 193.079C309.72 193.169 309.739 193.29 309.819 193.4C310.069 193.85 310.31 194.309 310.55 194.789C310.69 197.379 310.529 197.229 310.279 196.799C310.029 196.349 309.58 195.589 309.64 196.509C309.83 196.779 309.989 197.06 310.149 197.35C310.299 197.64 310.359 197.91 310.439 198.21C310.249 199.03 310.05 199.779 309.84 200.539C309.37 201.829 309.369 201.53 309.359 201.44C308.709 203.41 308.79 203.279 308.76 203.529C308.74 203.639 308.7 203.86 308.47 204.35C308.24 204.84 307.849 205.73 307.029 206.89C306.979 206.98 306.84 207.139 306.68 207.339C306.51 207.549 306.339 207.78 305.989 208.13C305.369 208.81 304.5 209.609 303.34 210.289C302.19 210.949 300.59 211.42 299.01 210.88C298.23 210.63 297.49 210.179 296.88 209.559L296.77 209.44C296.77 209.44 296.709 209.29 296.649 209.4L296.369 209.789L295.77 210.589C295.34 211.159 294.9 211.729 294.46 212.299C298.32 211.279 302.85 210.09 307.09 208.14C309.46 207.81 305.209 209.56 305.619 209.96C313.629 207.11 316.8 205.83 319.72 204.62C322.58 203.38 325.209 202.199 330.899 199.019C334.219 198.379 337.64 197.78 341.18 197.23C337.19 197.51 337.6 196.429 339.67 194.579C340.23 194.099 340.89 193.54 341.64 192.9C342.32 192.33 343.069 191.689 343.869 191.019C345.319 189.689 346.94 188.32 348.43 186.92C347.13 187.18 345.87 187.319 344.81 187.499C343.74 187.659 342.829 187.85 342.109 187.97C345.589 185.68 348.97 183.24 352.25 180.62C353.75 180.17 353.149 181.559 351.939 183.549C352.559 182.919 353.14 182.309 353.58 181.809C357.89 180.199 356.72 182.639 354.68 185.579C353.11 185.999 351.499 186.34 349.939 186.64C349.449 187.37 348.98 188.099 348.56 188.809C348.13 189.509 347.74 190.159 347.46 190.759C346.89 191.969 346.729 192.95 347.369 193.44C347.979 192.76 349.39 191.799 350.85 190.749C350.33 191.539 350.04 192.13 350.5 192.15C351.02 192.15 351.929 190.969 353.449 189.339C354.799 189.639 356.109 189.9 357.449 190.17L357.47 188.839C362.62 186.319 367.61 183.63 372.54 180.91C376.54 176.48 379.94 171.98 384.08 167.21C386.15 164.83 388.399 162.37 391.029 159.85C392.329 158.57 393.769 157.339 395.279 156.049C396.009 155.459 396.78 154.859 397.6 154.239C398.43 153.649 399.32 153.069 400.26 152.489C400.74 152.249 401.29 151.98 401.85 151.7C400.99 152.53 400.539 153.16 400.449 153.63C399.839 154.93 400.429 155.509 400.899 156.309C401.209 156.859 401.49 157.479 401.55 158.309C401.45 158.259 401.34 158.22 401.22 158.19C400.42 158.01 399.429 158.3 398.439 158.95C398.189 159.11 397.939 159.28 397.699 159.46C397.499 159.61 397.11 159.91 396.75 160.2C396.02 160.78 395.289 161.409 394.529 162.069C391.489 164.769 388.16 167.989 384.18 170.529C388.47 167.809 388.229 169.4 387.409 170.48C389.529 168.5 391.65 166.52 393.76 164.61C394.82 163.63 395.87 162.699 396.93 161.779L397.72 161.079L398.109 160.73L398.34 160.499L399.319 159.559C399.509 160.189 399.83 160.439 400.21 160.509C400.59 160.589 401.05 160.479 401.58 160.339C401.88 160.289 402.199 160.22 402.529 160.2C402.869 160.2 403.24 160.319 403.58 160.529C403.29 159.429 403.459 158.629 404.189 158.309C404.909 157.969 406.09 158.259 407.3 159.009C407.9 159.379 408.53 159.85 409.13 160.37C409.28 160.5 409.44 160.629 409.59 160.769L410.069 161.21C410.469 161.62 410.879 162 411.279 162.42C412.869 164.05 414.359 165.72 415.619 166.89C415.219 167.46 414.51 167.609 413.31 166.819C412.71 166.429 411.989 165.8 411.119 164.92C410.679 164.47 410.2 163.97 409.68 163.4C409.42 163.12 409.149 162.819 408.859 162.509C408.499 162.129 408.48 162.089 408.25 161.819C408.29 162.379 408.949 163.369 409.439 164.049C409.969 164.759 410.53 165.37 411.13 165.9C412.33 166.96 413.67 167.739 415.01 168.539C417.69 170.139 420.45 171.9 421.85 176.42C420.72 174.7 420.27 173.67 419.27 173.37C420.17 174.2 421.2 175.48 422.18 176.91C422.67 177.63 423.14 178.39 423.59 179.14C424.06 179.96 424.519 180.769 424.939 181.519C426.529 184.379 427.35 186.59 426.1 185.72L424.93 183.98C432.21 195.92 447.949 219.749 451.859 219.749C451.569 220.099 447.48 220.349 446.46 219.999C454.07 225.009 461.659 230.06 469.229 235.2C465.639 234.84 464.27 245.58 456.8 236.6C458.21 239.64 459.97 243.369 464.47 248.799C463.65 246.659 465.059 241.819 466.899 244.329C468.589 253.249 468.55 250.259 471.52 260.609C470.33 257.389 476.13 258.329 478.68 263.059C477.68 262.669 475.06 265.65 473.68 264.2L476.27 266.509C476.39 266.629 476.46 266.66 476.54 266.71L476.779 266.859L477.27 267.18C477.6 267.4 477.95 267.64 478.3 267.89C479.71 268.92 481.26 270.229 482.92 271.859C481.85 270.639 480.78 270.649 479.84 270.999C478.9 271.369 478.01 271.97 477.52 272.43C477.71 272.34 477.92 272.55 478.17 272.97C478.39 273.39 478.7 273.999 478.77 274.739C478.77 274.829 478.769 274.929 478.699 275.009C478.629 275.079 478.51 275.08 478.42 275.12C478.22 275.17 478.019 275.229 477.819 275.289C477.419 275.409 477.02 275.53 476.63 275.64C475.87 275.88 475.2 276.119 474.75 276.349C474.6 276.429 474.48 276.499 474.38 276.569L474.949 276.539C475.909 276.489 476.95 276.409 478.08 276.309C477.08 276.579 476.319 276.88 475.689 277.22C475.089 277.55 474.59 277.909 474.13 278.329C473.9 278.529 473.69 278.75 473.47 278.97C473.23 279.2 473 279.45 472.77 279.7C472.53 279.96 472.34 280.199 472.05 280.489C471.71 280.809 471.38 281.12 471.05 281.42C470.4 282.05 469.769 282.669 469.119 283.299C466.519 285.799 463.559 288.329 457.319 290.539C458.719 289.039 459.53 283.759 452.27 285.829C451.03 287.469 448.379 291.33 444.359 295.42C440.339 299.5 434.92 303.869 428.08 306.039C427.1 305.769 426.15 305.52 425.18 305.21C424.3 305.46 423.42 305.71 422.5 305.91L421.13 306.23L419.71 306.489C417.81 306.829 415.799 307.029 413.609 306.989C415.749 306.429 418.45 305.439 421.21 304.009C423.98 302.599 426.86 300.799 429.71 298.859C435.4 294.989 440.979 290.609 445.029 287.769C439.499 288.499 443.09 286.889 435.38 289.329C432.34 288.949 439.05 286.369 441.29 285.519C435.25 287.199 429.18 288.669 423.68 289.309C424.29 290.539 421.129 291.78 418.319 292.44C416.919 292.76 415.7 292.93 414.92 293.14C414.53 293.24 414.28 293.339 414.02 293.509C413.96 293.549 413.909 293.6 413.859 293.64C413.799 293.68 413.669 293.709 413.609 293.749C413.459 293.839 413.4 293.949 413.42 294.099L413.659 294.15C413.659 294.15 413.73 294.15 413.76 294.15H413.949H414.31C414.52 294.17 414.839 294.15 415.119 294.13C415.649 294.13 416.329 294.03 416.939 293.98C418.279 293.77 419.669 293.53 421.149 293.13C424.089 292.38 427.16 291.309 430.25 290.089C430.96 291.239 428.62 293.859 424.3 296.059C422.15 297.139 419.469 298.11 416.609 298.4C415.189 298.53 413.73 298.5 412.39 298.18C410.48 297.73 408.429 297.31 406.369 297.4C405.839 297.29 405.48 297.13 405.25 296.94C405.03 296.77 404.94 296.549 404.96 296.289C404.99 295.759 405.49 295.159 406.21 294.559C407.61 293.259 410.03 292.479 409.88 292.009C409.51 292.079 408.909 292.13 408.149 292.17C407.389 292.22 406.469 292.379 405.449 292.509C404.429 292.629 403.359 292.969 402.239 293.239C401.149 293.579 400.039 294 398.979 294.44C394.759 296.33 391.619 299.11 390.819 299.46C391.599 298.39 392.56 297.43 393.54 296.44C394.04 295.95 394.599 295.519 395.149 295.059L395.989 294.38C396.279 294.17 396.599 293.969 396.909 293.759C396.569 293.879 396.229 294 395.899 294.14C395.589 294.3 395.289 294.449 394.989 294.599C394.389 294.919 393.81 295.249 393.27 295.599C392.27 296.369 391.259 297.119 390.479 297.999C389.689 298.869 388.919 299.74 388.319 300.69L387.399 302.089C387.119 302.569 386.86 303.059 386.6 303.539C386.34 304.029 386.059 304.499 385.819 304.999C385.589 305.499 385.349 305.999 385.109 306.509C384.589 307.499 384.189 308.57 383.659 309.63C383.149 310.7 382.7 311.839 382.1 312.999C381.62 314.199 380.93 315.429 380.35 316.809C380.22 317.299 380.03 317.85 379.81 318.43C379.58 319.01 379.399 319.649 379.149 320.309C378.639 321.619 378.22 323.05 377.88 324.4C377.23 327.11 377.06 329.519 377.92 329.769C378.15 328.869 378.59 328.059 379.1 327.359C379.61 326.659 380.2 326.069 380.84 325.579C382.15 324.609 383.72 324.07 385.21 323.87C386.71 323.67 388.169 323.789 389.399 324.109C390.649 324.439 391.559 324.96 392.199 325.66C392.119 326.11 391.49 329.669 392.05 333.809C392.13 334.859 392.38 335.89 392.59 336.93C392.76 337.99 393.129 338.96 393.369 339.91C393.599 340.87 393.959 341.7 394.199 342.45C394.459 343.19 394.62 343.859 394.77 344.309C395.13 345.679 394.739 346.229 393.939 346.309C393.139 346.389 391.899 346.01 390.729 345.44C388.299 344.43 385.889 342.779 386.369 345.609C386.739 345.509 387.59 346.05 388.46 346.71C388.9 347.04 389.339 347.409 389.739 347.739C390.169 348.049 390.54 348.339 390.81 348.559C391.76 350.219 391.099 350.28 390.869 350.69C390.759 350.9 390.75 351.199 391.14 351.839C391.56 352.439 392.379 353.369 393.909 354.829C395.359 354.339 398.33 357.199 400.21 358.609C401.12 359.359 401.689 359.849 401.489 359.549C401.309 359.229 400.29 358.189 398.3 355.739C399.9 356.869 401.15 357.65 402.14 358.46C403.15 359.24 403.999 359.849 404.859 360.569C405.719 361.279 406.61 362.029 407.81 362.799C409.01 363.569 410.439 364.569 412.479 365.489C411.589 364.089 414.099 363.69 417.489 363.87C420.809 364.06 425.409 364.889 428.699 366.539C427.989 366.909 428.939 368.499 429.399 369.239C430.989 370.169 432.389 371.22 433.729 372.18C435.059 373.16 436.33 374.089 437.55 374.989C439.89 376.929 442.04 378.719 444.13 380.529C446.18 382.389 448.2 384.23 450.34 386.18C452.43 388.2 454.729 390.209 457.229 392.549C457.729 393.889 461.999 398.95 459.159 397.87C460.929 398.84 462.809 399.49 465.869 402.39C470.019 409.73 458.949 396.07 461.409 402.4C462.129 402.04 464.46 403.52 467.17 405.63C469.87 407.75 473 410.409 475.38 412.309C475.94 409.259 466.109 401.89 461.119 398.46C462.249 397.26 465.29 397.87 469.51 399.96C471.62 401.01 473.95 402.489 476.5 404.259C479.03 406.049 481.699 408.22 484.449 410.65C492.769 418.77 486.179 415.809 487.869 417.009C492.859 423.099 496.32 426.19 499.22 428.39C499.94 428.94 500.63 429.43 501.3 429.9C501.64 430.13 501.96 430.359 502.29 430.589C502.62 430.809 503.059 431.199 503.449 431.539C505.069 432.929 506.73 434.46 508.56 436.44C509.77 437.91 510.839 439.659 511.939 441.759C512.069 442.019 512.21 442.289 512.34 442.559C512.43 442.829 512.529 443.11 512.619 443.39C512.819 443.94 512.92 444.57 513.04 445.21C513.25 446.51 513.2 447.979 512.89 449.529C512.11 451.729 511.06 452.6 510.42 452.87C509.74 453.12 509.359 452.779 509.029 452.279C508.439 451.269 507.899 449.659 506.949 450.249C507.479 447.509 506.909 445.009 505.869 443.239C504.799 441.469 503.88 439.869 503.01 438.249C502.29 437.019 501.57 435.799 500.77 434.569C500.38 433.969 499.95 433.309 499.54 432.759C499.15 432.219 498.74 431.69 498.3 431.16L502.63 438.22C501.29 437.08 499.539 435.319 497.939 433.569C496.339 431.829 494.86 429.93 494 428.44C494.76 430.35 497.62 434.25 501.08 438.87C501.94 440.02 502.839 441.239 503.779 442.499C504.259 443.119 504.69 443.799 505.02 444.539C505.31 445.289 505.55 446.09 505.6 446.93C505.76 448.59 505.289 450.319 504.369 451.769C503.419 453.199 501.979 454.329 500.319 454.839C496.979 455.779 493.64 456.559 490.56 457.249C487.37 457.939 484.219 458.57 481.489 458.95C478.819 460.37 474.04 462.289 476.59 462.539L481.619 460.98C486.739 461.45 472.579 465.669 479.239 464.829C472.669 467.689 465.36 471.379 455.39 472.599L453.04 470.65C453.4 471.31 459.709 470.649 462.279 469.299C458.449 471.289 446.69 469.44 442.88 473.4C445.27 473.47 447.669 473.559 450.069 473.599C443.369 476.259 435.2 480.529 426.3 481.359C430.71 482.949 428.27 480.759 435 482.279C431.98 481.099 437.58 480.079 442.75 479.039C447.92 477.999 452.659 476.979 447.989 476.109C454.999 477.909 459.22 475.099 468.1 475.849C467.66 475.139 464.829 475.07 472.189 473.73C472.459 473.43 473.169 472.96 473.619 472.67C473.849 472.64 473.929 472.629 474.119 472.609C473.969 472.609 473.849 472.609 473.699 472.609C473.989 472.419 474.01 472.389 473.54 472.609C471.73 472.679 470.23 472.609 469.56 472.309C472.75 469.729 484.229 466.919 487.859 464.989C492.219 464.239 486.3 466.339 488.85 466.549L491.56 465.109L495.279 463.37C495.659 463.72 496.949 463.789 498.529 463.739C499.319 463.719 500.18 463.67 501.01 463.62C501.76 463.49 502.479 463.359 503.069 463.249C504.289 463.059 505.08 463.01 504.75 463.48C504.58 463.72 504.13 464.08 503.3 464.63C503.09 464.76 502.859 464.909 502.609 465.069C502.479 465.149 502.359 465.239 502.199 465.309C502.029 465.369 501.86 465.439 501.67 465.509C500.92 465.769 500.059 466.08 499.069 466.43L500.939 465.92L501.88 465.67C502.2 465.59 502.51 465.51 502.76 465.37L505.92 463.87C506.96 463.36 508.06 462.889 509.06 462.349C509.94 461.749 510.789 461.079 511.569 460.279C513.159 459.039 514.66 457.27 515.75 455.17C516.84 453.07 517.449 450.639 517.569 448.279C517.579 447.689 517.59 447.099 517.56 446.529C517.49 445.959 517.47 445.379 517.35 444.839C517.24 444.299 517.159 443.749 516.989 443.249C516.849 442.739 516.71 442.24 516.42 441.73C515.43 439.71 514.34 437.849 513.27 436.319C513.08 435.929 512.889 435.53 512.569 435.12C511.439 433.65 510.1 432.109 508.84 430.739C508.21 430.049 507.59 429.409 507.02 428.819C506.74 428.539 506.47 428.259 506.21 428.009C505.95 427.759 505.83 427.679 505.67 427.539C504.46 426.549 503.999 426.239 505.649 427.259C502.249 423.619 498.829 420.019 495.319 416.499L495.56 416.109C490.89 410.439 485.25 405.31 479.59 399.9C473.94 394.45 468.12 388.85 462.88 381.95C460.83 380.47 458.769 378.95 456.409 377.12C455.209 376.23 453.95 375.24 452.59 374.13C451.91 373.57 451.209 372.979 450.489 372.349C449.749 371.729 448.969 371.09 448.149 370.41L447.729 368.2C447.029 367.76 446.269 367.23 445.479 366.63C444.689 366.03 443.85 365.37 442.93 364.72C441.15 363.37 439.24 361.939 437.43 360.569C435.54 359.269 433.699 358.09 432.149 357.21C431.369 356.77 430.66 356.41 430.05 356.16C429.42 355.92 428.859 355.809 428.439 355.819C427.859 354.949 426.95 354.039 425.79 353.109C425.21 352.639 424.559 352.17 423.869 351.7C423.259 351.3 422.619 350.88 421.949 350.43C420.769 349.65 419.35 348.97 418.04 348.13C417.36 347.73 416.669 347.33 415.949 346.93C415.249 346.52 414.59 346.07 413.89 345.64C412.45 344.82 411.219 343.84 409.869 342.96C408.689 341.98 407.409 341.069 406.449 340.069C405.359 339.129 404.589 338.1 403.779 337.19C403.159 336.22 402.47 335.349 402.18 334.509L400.31 335.249C399.06 332.899 398.08 330.609 397.43 328.089C396.8 325.579 396.45 322.81 396.89 319.66C396.29 319.63 395.67 319.599 395.08 319.599C395.15 318.099 395.559 316.359 396.529 314.779C397.459 313.179 398.799 311.659 400.359 310.529C401.909 309.389 403.669 308.69 405.159 308.48C405.539 308.37 405.889 308.44 406.229 308.39C406.579 308.36 406.89 308.47 407.21 308.43C407.52 308.54 407.83 308.52 408.14 308.62C408.29 308.68 408.44 308.719 408.6 308.749L408.72 308.769C408.78 308.779 408.739 308.769 408.949 308.819L409.859 309.069C409.669 309.109 409.43 309.109 409.14 309.089C409.01 309.079 408.859 309.059 408.699 309.049C408.649 309.069 408.61 309.079 408.56 309.089C408.37 309.129 408.159 309.109 407.949 309.019C407.729 308.999 407.509 308.959 407.279 308.839C407.049 308.759 406.8 308.729 406.56 308.599C406.76 308.729 406.939 308.84 407.119 308.92C407.299 309.01 407.449 309.179 407.609 309.259C407.689 309.309 407.76 309.35 407.84 309.38L408.05 309.559C408.12 309.619 408.19 309.67 408.26 309.71L408.369 309.769L408.42 309.799H408.449L408.58 309.859C411.76 311.089 414.569 311.37 417.199 311.42C422.429 311.45 426.82 310.299 430.96 309.019C439.19 306.399 446.29 302.989 453.46 302.039C456.58 300.279 459.02 299.61 461.47 299.17C461.17 299.29 460.909 299.419 460.689 299.559C461.029 299.459 461.53 299.269 462.04 299.079C463.59 298.829 465.189 298.599 466.899 298.249C465.379 298.369 463.96 298.529 462.76 298.799C465.27 297.829 468.98 296.179 472.51 294.349L474.76 295.509C475.05 295.369 475.29 295.28 475.59 295.13C476.55 294.95 477.189 294.729 477.569 294.509C478.149 294.209 478.41 293.92 478.33 293.69C478.26 293.46 477.9 293.259 477.35 293.109C477.04 293.049 476.84 292.939 476.58 292.849C476.32 292.759 476.039 292.679 475.729 292.599C475.949 292.469 476.159 292.35 476.369 292.23L476.689 292.039L477.14 291.799C477.72 291.479 478.29 291.17 478.83 290.87C479.87 290.27 480.889 289.67 481.699 289.13C483.439 289.41 485.489 288.999 487.609 288.299C488.199 288.059 488.79 287.789 489.39 287.499C489.97 287.209 490.629 286.939 491.069 286.559C491.559 286.209 492.05 285.849 492.54 285.489C493.05 285.139 493.38 284.77 493.83 284.43C494.73 283.72 495.42 283.139 496.31 282.599C496.53 282.449 496.69 282.13 496.81 281.9C496.93 281.66 497.049 281.43 497.159 281.21C497.389 280.77 497.63 280.379 497.92 280.009C497.53 279.079 497.179 277.139 496.159 274.509C495.159 271.879 493.32 268.589 491.39 265.499C490.42 263.949 489.43 262.449 488.46 261.069C488.23 260.739 487.96 260.359 487.76 260.089C487.58 259.869 487.4 259.65 487.22 259.43C486.86 259 486.51 258.6 486.17 258.23C484.79 256.75 483.53 255.769 482.54 255.739C482.85 255.399 482.43 254.29 483.54 256.13C481.64 252.11 479.69 248.12 476.84 245.22L477.92 242.37L470.14 235.839C468.31 230.099 467.75 227.589 472.38 231.559C462.56 221.149 465.45 222.46 456.72 213.9L458.34 213.559C456.01 209.989 450.6 205.379 450.3 202.529C448.98 197.729 442.71 187.769 435.31 176.299L434.609 175.22L434.27 174.69L434.04 174.309C433.58 173.549 433.119 172.789 432.649 172.019C431.709 170.489 430.739 168.94 429.729 167.39C427.719 164.29 425.61 161.18 423.33 158.13C422.19 156.61 420.999 155.1 419.739 153.61C419.419 153.24 419.119 152.869 418.779 152.499C418.339 152.019 417.89 151.529 417.46 151.089C416.58 150.179 415.669 149.319 414.739 148.509C412.859 146.879 410.85 145.509 408.71 144.529C406.59 143.549 404.26 142.99 402.04 143.14C402.76 143.52 403.13 143.86 403.25 144.12C403.36 144.37 403.22 144.54 402.89 144.63C402.57 144.78 402.029 144.79 401.399 144.94C400.759 145.09 399.98 145.23 399.1 145.37C397.89 145.76 396.49 146.2 395.04 146.69C393.65 147.3 392.199 147.97 390.909 148.64C390.549 148.83 390.359 148.939 390.149 149.059C389.939 149.189 389.74 149.31 389.56 149.44C389.19 149.69 388.859 149.95 388.609 150.21C388.099 150.73 387.859 151.239 388.029 151.759C386.209 151.679 383 153.159 385.81 150.079C380.79 154.139 376.779 156.519 373.229 158.799C369.709 161.079 366.739 163.26 364.109 166.91C362.339 166.82 365.36 164.109 363.96 164.299C363.29 165.049 361.3 167.299 359.89 167.489C358.5 167.669 360.85 165.72 362.17 164.23C357.1 167.88 354.779 170.469 353.819 172.589C352.859 174.709 353.28 176.37 353.75 177.93C350.68 178.98 348.53 179.97 346.77 181.12C345.01 182.33 343.659 183.67 342.149 185.64C341.559 185.68 340.889 185.7 340.319 185.69C340.039 185.69 339.769 185.67 339.569 185.63C339.399 185.58 339.279 185.51 339.199 185.42C339.119 185.33 339.09 185.23 339.13 185.11C339.15 185.05 339.18 184.98 339.22 184.91C339.28 184.83 339.4 184.73 339.52 184.62C339.78 184.4 340.159 184.149 340.659 183.829C341.169 183.479 341.81 183.069 342.6 182.589C342.13 182.819 341.419 183.159 340.529 183.589C340.089 183.769 339.61 183.97 339.09 184.18C338.75 184.31 338.379 184.46 337.989 184.61C336.509 185.15 334.82 185.74 333.22 186.41C331.61 187.07 330.069 187.8 328.699 188.63C327.349 189.45 326.13 190.39 325.43 191.38C325.32 191.08 324.49 191.38 323.51 191.88C322.54 192.37 321.389 193.06 320.819 193.46C316.309 195.26 315.319 195.51 311.699 197.1C311.479 197.2 311.08 197.38 310.55 197.62C310.48 197.65 310.42 197.68 310.35 197.71L310.239 197.759L310.189 197.789C310.189 197.789 310.21 197.819 310.22 197.829C310.31 197.949 310.41 198.07 310.52 198.18C310.74 198.41 311.009 198.629 311.319 198.799C310.879 198.839 310.45 198.839 310.04 198.809C309.83 198.799 309.629 198.769 309.439 198.739L309.149 198.69C309.149 198.69 309.19 198.7 309.21 198.7C308.92 198.94 308.54 199.15 308.35 199.39C308.19 199.64 308.05 199.87 307.93 200.1C307.68 200.55 307.499 200.949 307.359 201.309C307.099 202.029 307.069 202.58 307.199 202.95C307.469 203.71 308.45 203.71 309.55 203.17C310.67 202.65 311.89 201.609 312.96 200.509C314.03 199.399 314.949 198.21 315.569 197.13L316.02 196.7C318.83 192.63 319.73 190.679 320.26 189.509C320.96 187.859 320.73 187.689 321.05 186.589C321.2 186.039 321.5 185.269 322.05 184.019C322.62 182.789 323.369 181.06 324.489 178.94C323.729 179.31 322.96 179.72 322.18 180.16C321.12 180.21 321.009 179.32 321.449 177.9C321.659 177.2 322.01 176.379 322.42 175.519C322.84 174.669 323.29 173.739 323.77 172.759C324.86 170.419 326.09 167.82 327.13 165.14C328.08 162.44 328.83 159.659 329.04 157.009L327.149 160.47C327.129 159 327.68 157.37 328.54 155.65C329.42 153.94 330.469 152.099 331.659 150.269C332.819 148.439 334.08 146.6 335.09 144.85C336.06 143.09 336.849 141.429 337.199 139.989C337.739 138.769 337.45 142.08 337.43 143.9C339.79 136.43 339.249 135.82 338.279 135.69C337.299 135.55 335.909 135.84 336.279 130.13C337.829 128.16 339.36 133.249 340.42 125.509C341.07 123.599 340.58 117.849 339.8 111.299C339.72 110.479 339.64 109.659 339.56 108.819C339.46 107.979 339.36 107.139 339.26 106.289C339.07 104.599 338.93 102.899 338.85 101.249C338.6 97.9294 338.57 94.7594 339.02 92.0294C338.63 93.2494 338.14 94.4596 337.68 94.6896C337.19 94.9196 336.78 94.1894 336.14 91.5494C335.83 89.5194 335.86 87.0994 335.81 84.4894C335.78 83.1794 335.759 81.8296 335.729 80.4596C335.719 79.7696 335.699 79.0795 335.689 78.3895L335.54 76.3095C335.43 74.9195 335.3 73.5496 335.13 72.1996C334.95 70.8596 334.64 69.5695 334.33 68.3395C334 67.1195 333.639 65.9596 333.149 64.9196C332.649 63.8796 332.08 62.9496 331.43 62.1596C331.4 61.0596 331.549 60.5996 331.779 60.4796C331.169 58.9896 330.229 57.0796 329.319 54.9596C328.879 53.8896 328.31 52.8196 327.77 51.7096C327.22 50.6096 326.69 49.4896 326.1 48.4196C323.74 44.1296 321.149 40.3595 319.449 39.1295C319.809 38.1095 319.72 36.8095 319.3 35.3295C318.85 33.8595 318.04 32.2294 317.01 30.4994C314.87 27.0794 311.689 23.4196 308.399 20.1896C301.829 13.6696 294.909 9.0795 296.949 6.8495C293.719 4.1795 290.639 1.23954 286.609 0.389536C284.639 -0.0704636 282.56 -0.1306 280.58 0.2494C279.59 0.4394 278.629 0.719527 277.699 1.12953L274.909 2.40956L272.85 3.52943L273.239 2.62953C270.979 3.76953 270.13 4.2095 268.93 4.8495C267.81 5.4495 266.8 6.0395 265.88 6.5995C264.04 7.7095 262.57 8.73959 261.34 9.69959C258.88 11.6096 257.39 13.2796 255.92 14.9396C253.32 15.9396 254.79 14.4695 254.84 14.0795C246.94 17.8495 242.679 20.1095 238.989 22.6195C235.319 25.1595 232.199 27.9395 226.779 33.0595L224.46 32.2096C223.76 32.9596 221.979 34.0295 219.489 35.3795C216.999 36.7195 213.79 38.3394 210.29 40.2694C203.25 44.0694 195.009 49.1394 188.619 54.9994C188.619 54.7194 188.7 54.2096 189.67 53.1996C182.43 59.7296 172.28 65.4596 163.89 71.2096C161.81 72.5496 159.699 74.1896 157.819 75.6996C157.349 76.0896 156.89 76.4695 156.43 76.8395C156 77.2395 155.59 77.6394 155.18 78.0294C154.37 78.8194 153.62 79.5895 152.93 80.3495C151.52 81.8395 150.53 83.4195 149.8 84.8495C149.1 86.2995 148.68 87.6296 148.76 88.9296C147.55 90.8196 146.3 92.6595 145.17 94.5695C144.08 96.5095 142.919 98.3895 141.909 100.349C147.199 93.7095 147.449 94.7694 146.979 96.7494C146.509 98.7494 145.419 101.7 147.939 99.3695C146.089 102.01 143.359 105.159 141.479 106.789C139.709 108.479 138.73 108.579 140.76 105.089L141.77 104.249C141.43 103.119 140.45 103.58 139.14 104.9C137.92 106.27 136.319 108.479 134.859 110.849C131.889 115.579 129.36 120.9 128.29 120.15C121.14 135.33 116.15 151.139 113.01 167.029C109.89 182.919 108.619 198.919 109.449 214.569L112.13 210.85C112.2 212.65 112.24 214.439 112.34 216.239C112.46 218.029 112.549 219.83 112.689 221.63C112.499 223.07 112.05 224.079 111.55 223.759C111.06 223.439 110.47 221.79 110.26 217.9C109.94 218.95 109.91 220.29 110.1 221.7C110.31 223.11 110.709 224.59 111.159 225.94C112.099 228.63 113.32 230.769 113.64 230.829C114.22 238.399 113.2 237.11 112.05 234.43C110.87 231.76 109.84 227.689 110.09 230.029C110.42 232.139 110.85 234.239 111.26 236.339L111.359 234.86C112.329 237.33 113.22 238.61 114 240.42C114.39 241.33 114.78 242.369 115.22 243.749C115.64 245.139 116.07 246.87 116.64 249.16C117.61 255.06 115.73 252.59 116.25 254.88C116.05 254.92 116.18 255.729 117.21 258.319C118.48 262.689 119.86 266.929 120.84 270.739C121.14 269.019 121.379 267.199 121.569 265.319C124.489 270.499 124.32 276.34 125.63 270.44C125.43 271.58 125.36 273.099 125.29 274.749C125.26 275.139 125.219 275.54 125.189 275.96C125.149 276.35 125.059 276.679 125.029 277.059C124.969 277.419 124.859 277.79 124.779 278.16C124.629 278.52 124.56 278.899 124.38 279.269C124.22 279.629 124.05 280.009 123.83 280.329C123.72 280.529 123.599 280.74 123.489 280.94C123.379 281.18 123.23 281.389 123.08 281.599C122.53 282.479 121.89 283.33 121.18 284.15C119.75 285.79 117.96 287.29 115.89 288.62C111.74 291.28 106.62 293.209 102.34 294.539C98.0598 295.879 94.6097 296.699 93.2197 296.759C89.4997 298.619 85.6097 300.06 81.4297 301.47C77.2497 302.88 72.7601 304.26 67.8301 306.19C69.1401 305.89 70.3795 306.229 70.2295 306.989C70.1595 307.359 69.7401 307.86 68.8301 308.45C67.9201 309.03 66.5197 309.75 64.4697 310.63C64.6397 309.08 63.7596 308.629 62.1396 308.849C61.3296 308.949 60.35 309.24 59.25 309.68C58.14 310.09 56.9399 310.689 55.6699 311.349C54.3999 312.009 53.13 312.819 51.79 313.579C50.47 314.359 49.1994 315.239 47.8994 315.999C45.3794 317.619 42.9699 319.049 40.9199 319.779C42.6199 319.009 42.2399 319.86 40.9199 321.46C39.6399 323.09 37.4892 325.57 35.6592 328.16C34.7092 329.42 33.9297 330.79 33.2197 331.94C32.5297 333.1 32.0798 334.2 31.7998 334.95C31.2798 336.48 31.7299 336.799 33.8799 335.019C32.7599 336.609 32.0897 337.389 31.6797 337.739C31.2497 338.079 31.0095 337.959 30.7695 337.759C30.2995 337.379 29.8691 336.69 27.8691 339.19C26.5791 342.89 25.3099 346.75 24.4199 350.95C24.2399 352.02 24.0696 353.09 23.8896 354.18C23.7896 354.72 23.7295 355.269 23.6895 355.839C23.6395 356.399 23.5998 356.959 23.5498 357.529C23.4198 358.649 23.44 359.819 23.46 360.989C23.46 361.579 23.4795 362.159 23.4795 362.749L23.6299 364.17C23.6499 364.56 23.6995 364.949 23.6895 365.349C23.6895 365.739 23.5597 366.129 23.4297 366.499C23.2797 366.869 23.0992 367.219 22.9092 367.569C22.8192 367.749 22.7094 367.909 22.6094 368.079L22.2295 368.69C20.8995 370.87 19.1694 373.27 17.3994 375.7C16.9294 376.34 16.4595 376.99 15.9795 377.64C15.2795 378.62 14.5691 379.609 13.8691 380.589C12.4491 382.569 11.0292 384.579 9.65918 386.609C6.91918 390.649 4.43973 394.809 2.96973 398.569C3.31973 398.649 4.30934 397.56 5.06934 397.12C5.44934 396.89 5.76969 396.819 5.92969 397.089C6.09969 397.359 6.04914 397.989 5.86914 399.069C4.27914 401.239 2.90918 403.449 1.90918 405.609C0.84918 407.819 0.3 409.85 0 412.14C0.05 412.37 0.119688 412.589 0.179688 412.789C0.549688 413.599 1.11934 414.199 1.81934 414.599C2.49934 415.109 3.37918 415.089 4.15918 415.089C4.95918 415.079 5.76965 415.03 6.63965 415.12C7.50965 415.22 8.38996 415.439 9.45996 416.099C9.25996 415.779 9.02992 415.42 9.16992 415.12C9.31992 414.82 9.81996 414.59 11.21 414.46C13.38 414.61 15.9193 414.84 19.3193 414.46C21.0193 414.27 22.9093 413.879 24.8193 413.489C26.7293 413.099 28.65 412.71 30.54 412.43C31.49 412.3 32.4291 412.179 33.3691 412.089C33.8391 412.059 34.3093 411.999 34.7793 411.989L35.4893 411.96H35.8691L36.1191 411.94C37.2491 411.94 38.3592 411.979 39.4492 412.069C41.6292 412.249 43.7094 412.629 45.6494 413.249C46.6194 413.559 47.56 413.929 48.46 414.359C48.89 414.569 49.3993 414.819 49.7393 415.039L50.2793 415.37L51.0098 415.859C53.0698 417.269 55.5591 419 58.1191 420.43C63.2591 423.39 68.9996 425.549 74.8096 426.819C80.6396 428.099 86.5694 428.46 92.3594 428.21C93.8194 428.22 95.2395 428.02 96.6895 427.93L98.8496 427.759C99.5796 427.669 100.32 427.54 101.06 427.43L103.27 427.089L104.38 426.92L105.46 426.67L109.779 425.65C121.129 422.39 131.44 417.04 141.25 411.15C135.61 413.91 138.78 411.279 142.34 408.319C139.79 409.969 141.31 406.96 140.25 406.62C145.52 403.36 150.579 399.729 155.439 395.839C155.679 393.739 158.949 390.08 161.949 386.43C162.539 385.71 163.12 384.989 163.67 384.319C163.87 384.129 164.019 383.939 164.199 383.789C164.529 383.459 164.92 383.129 165.14 382.539C164.76 382.589 164.419 382.72 164.119 382.9C163.809 383.05 163.579 383.299 163.369 383.539C163.429 382.569 163.49 381.78 162.76 381.21C162.07 380.65 160.629 380.459 158.899 381.269C155.399 382.839 151.289 384.719 150.239 383.079C148.789 387.219 144.169 390.38 139.109 393.65C137.859 394.47 136.57 395.31 135.26 396.16C134.61 396.59 133.98 397.049 133.35 397.509C132.7 397.949 132.069 398.41 131.449 398.9C130.819 399.38 130.219 399.91 129.619 400.43C129.009 400.94 128.41 401.479 127.84 402.049C127.26 402.609 126.719 403.249 126.159 403.859C125.609 404.469 125.07 405.129 124.56 405.829C121.77 406.779 125.909 403.469 124.159 403.599C123.709 404.379 123.179 405.129 122.529 405.859C121.869 406.559 121.07 407.22 120.13 407.89C119.66 408.22 119.159 408.57 118.609 408.9C118.049 409.2 117.45 409.509 116.8 409.819C116.15 410.129 115.459 410.439 114.729 410.759C113.979 411.049 113.169 411.299 112.319 411.579L112.89 410.89C111.76 411.39 110.68 411.959 109.6 412.339C108.52 412.719 107.469 413.1 106.449 413.46C105.429 413.81 104.419 413.999 103.439 414.259C102.949 414.379 102.469 414.5 101.989 414.62C101.509 414.74 101.03 414.769 100.56 414.839C99.6196 414.969 98.6893 415.09 97.7793 415.22C96.8493 415.31 95.89 415.32 94.96 415.37C93.08 415.5 91.2695 415.379 89.4395 415.309C85.8095 415.019 82.1496 414.509 78.3096 413.349C74.4596 412.209 70.4696 410.47 66.0996 407.69C66.2296 408.5 66.3993 409.259 66.5693 410.059C64.5893 408.869 63.52 407.899 62.71 407.099C62.31 406.709 61.9699 406.31 61.6299 405.93C61.2999 405.55 60.9595 405.17 60.5195 404.72C57.2095 404.09 60.3298 406.419 63.0898 408.289C63.7898 408.749 64.4999 409.22 65.1299 409.63C65.7599 410.04 66.3097 410.4 66.6797 410.73C67.4197 411.38 67.46 411.88 66 411.98C64.99 410.41 62.8695 408.619 59.9795 406.279C59.5995 405.979 59.2093 405.669 58.8193 405.359C58.3593 405.019 57.8997 404.679 57.4297 404.329C56.1797 403.469 55.0493 402.83 53.8193 402.23C51.3593 401.03 48.67 400.139 46 399.569C43.32 398.989 40.6692 398.719 38.1992 398.609C37.5792 398.589 36.9799 398.569 36.3799 398.549C36.0799 398.549 35.79 398.549 35.5 398.549C35.46 398.549 35.2496 398.539 35.1396 398.529C34.6196 398.499 34.1194 398.48 33.6494 398.46C31.8094 398.35 30.7894 398.05 31.1094 396.96C29.5794 397.3 29.2596 397.9 29.0596 398.43C28.8496 398.98 28.7499 399.479 26.6299 400.029C26.6699 399.669 26.7699 399.3 26.9199 398.91C26.0099 399.61 25.0398 400.319 24.0098 401.049C22.7298 401.289 22.3198 400.989 22.5498 400.239C22.6398 399.879 22.9895 399.259 23.4795 398.749C23.9295 398.249 24.4094 397.829 24.8594 397.499C24.8194 397.659 24.8695 397.8 24.9795 397.92C25.1195 398.03 25.3896 398 25.6396 397.94C26.1496 397.82 26.6795 397.58 26.9795 397.48C26.9395 397.31 26.8096 397.219 26.5996 397.079C26.4896 397.019 26.3892 396.84 26.4092 396.63C26.3992 396.43 26.4095 396.229 26.4395 396.039C26.6195 394.969 26.8098 394.17 27.0098 393.4C27.2198 392.64 27.4896 391.96 27.8896 391.65C27.0596 392.49 26.1695 393.439 25.2695 394.539C26.0395 392.369 27.7798 389.79 29.5098 387.18C30.3898 385.85 31.2694 384.52 32.1494 383.18C33.1894 381.58 34.2298 379.91 35.2598 378.12C35.5198 377.67 35.7693 377.229 36.0293 376.739C36.2893 376.239 36.5096 375.86 36.8496 375.16C37.4796 373.88 38.0393 372.57 38.4893 371.23C38.9193 369.88 39.2794 368.509 39.3594 367.099C39.4094 366.749 39.3594 366.399 39.3594 366.049C39.3594 365.879 39.3294 365.699 39.3594 365.529L39.2998 364.999L39.04 362.9L38.8994 361.989L38.8301 361.529C38.8201 361.399 38.8296 361.31 38.8096 361.19L38.7393 359.89L38.6895 359.239C38.6895 359.019 38.7097 358.789 38.7197 358.569L38.7695 357.23C38.7595 356.79 38.8394 356.33 38.8994 355.88L39.0693 354.519C39.1993 353.609 39.4494 352.689 39.6094 351.779C40.4694 348.119 41.89 344.509 43.5 341.089L42 341.849C42.4 341.029 42.7691 340.259 43.1191 339.549C43.4991 338.859 43.9 338.24 44.25 337.65C44.94 336.47 45.6801 335.559 46.3301 334.749C46.6601 334.349 46.9595 333.97 47.2695 333.63C47.5995 333.31 47.9097 333 48.2197 332.71C48.8397 332.13 49.4095 331.599 50.0195 331.089C51.2995 330.129 52.5396 329.079 54.3496 327.739C54.7896 327.389 55.2598 327.019 55.7598 326.609C56.2798 326.229 56.8395 325.819 57.4395 325.359C58.5995 324.399 60.0497 323.46 61.6797 322.23L61.2998 322.739C63.5198 320.239 67.2401 317.719 71.5801 316.059C69.8101 317.349 71.8695 317.029 73.7295 316.819C75.6295 316.649 77.3297 316.559 74.9697 318.069C78.6197 316.209 81.0494 315.14 82.6494 314.38C84.2394 313.61 85.0399 313.16 85.6299 312.71C86.8299 311.81 87.2395 310.929 92.4395 307.829L95.4199 308.529C97.1799 307.369 98.0992 306.609 99.6592 305.769C101.209 304.929 103.41 304.07 107.71 302.44C104.33 304.22 105.869 304.29 107.369 304.43C108.859 304.56 110.31 304.79 106.43 306.92C111.37 306.21 115.74 304.72 119.46 302.72C123.19 300.73 126.25 298.12 128.63 295.42C131.02 292.7 132.749 289.929 134.239 287.349C134.919 286.139 135.839 284.62 136.569 283.17C137.349 281.71 138.01 280.199 138.71 278.589C138.32 276.889 137.82 276.09 137.5 275.88C137.16 275.67 136.899 276.039 136.699 276.769C136.329 278.229 136 281.209 134.71 284.049C134 285.549 133.43 286.74 132.71 287.87C132.07 289.02 131.319 289.96 130.779 290.72C129.609 292.17 129.03 292.69 129.83 291.45C128.78 292.17 128.489 291.969 128.659 291.249C128.739 290.879 128.959 290.399 129.239 289.799C129.489 289.179 129.83 288.46 130.21 287.69C130.53 286.88 130.929 286.019 131.279 285.109C131.569 284.209 132.06 283.16 132.29 282.14C132.86 280.09 133.04 277.989 133.05 276.269C133.05 275.379 133.02 274.609 133.1 273.779C133.11 272.989 133.219 272.159 133.279 271.339C133.429 269.679 133.65 267.879 133.71 265.849C133.87 261.739 133.37 256.729 131.3 249.829C131.68 251.219 132.009 251.22 132.409 252.61C132.109 249.86 131.05 247.449 130.14 244.829C129.65 243.529 129.249 242.15 128.949 240.69C128.629 239.23 128.509 237.66 128.609 235.96C127.039 234.37 126.78 232.21 126.43 230.41C126.11 228.61 125.809 227.139 124.189 226.789C124.959 231.219 125.99 235.58 127.09 239.89C126.51 238.08 125.799 236.32 125.029 234.48C124.319 232.63 123.47 230.73 122.83 228.62C121.43 224.43 120.469 219.439 120.979 213.029C121.619 213.989 122.739 217.7 123.399 220.22C123.709 218.34 123.42 216.589 123.14 214.819C122.9 213.039 122.66 211.239 123.04 209.309C123.82 209.549 124.319 210.69 124.649 212.38C124.959 214.07 125.19 216.309 125.43 218.759C125.93 223.659 126.619 229.45 128.489 233.2C128.659 232.19 128.45 230.779 128.13 229.279C127.83 227.769 127.399 226.159 127.069 224.779C126.469 222.009 126.229 220.199 128.119 222.039C127.509 221.379 127.04 220.65 126.68 219.88C126.33 219.1 126.09 218.27 125.92 217.4C125.75 216.53 125.65 215.61 125.6 214.66C125.57 213.71 125.57 212.71 125.59 211.69C125.63 207.6 125.96 203.06 124.39 198.1L126.229 198.779C126.099 197.999 125.85 196.81 125.63 195.44C125.41 194.07 125.26 192.54 125.38 191.11C126.07 192.88 126.83 194.63 127.59 196.37C127.36 195.38 127.219 194.39 127.159 193.42C127.109 192.45 127.159 191.479 127.229 190.529C127.309 189.569 127.44 188.63 127.6 187.69C127.79 186.75 128 185.82 128.22 184.9C128.44 183.98 128.66 183.06 128.88 182.14C129.12 181.23 129.35 180.32 129.54 179.4C129.73 178.48 129.879 177.57 129.989 176.64C130.119 175.72 130.19 174.779 130.18 173.839C129.6 177.729 129.32 179.899 128.93 181.039C128.57 182.179 128.23 182.31 127.88 182.15C127.2 181.83 126.38 180.32 125.42 183.64C125.25 178.65 125.67 175.47 126.34 173.2C126.97 170.92 127.88 169.56 128.85 168.15C129.81 166.74 130.82 165.28 131.88 162.86C132.41 161.65 132.879 160.19 133.449 158.4C133.999 156.6 134.509 154.429 135.159 151.829C135.029 152.549 134.709 153.549 134.319 154.569C133.959 155.609 133.529 156.669 133.109 157.499C132.279 159.159 131.519 159.899 131.649 157.549C131.989 156.559 132.36 155.5 132.76 154.43C133.18 153.37 133.649 152.309 134.109 151.299C134.999 149.269 136.009 147.51 136.859 146.47C137.799 143.04 138.279 141.48 138.239 140.88C138.219 140.28 137.8 140.689 137.26 141.339C136.18 142.619 134.7 144.899 135.17 141.819C137.09 139.889 137.38 138.14 137.58 136.13C137.75 134.12 137.58 131.74 138.6 128.7L140.34 129.44C144.32 122.31 144.079 120.999 143.659 119.749C143.459 119.139 143.239 118.57 143.609 117.38C143.799 116.79 144.109 116.019 144.689 115.059C145.289 114.099 146.12 112.92 147.25 111.43L146.71 114.789C146.53 115.889 146.37 117 146.26 118.12C146.76 116.94 147.35 115.82 147.92 114.68C148.5 113.55 149.049 112.379 149.659 111.269C149.949 112.089 150.289 112.929 150.619 113.759C152.189 109.919 153.489 107.51 155.119 105.41C156.689 103.25 158.599 101.389 161.449 98.5995C160.319 98.8195 159.85 98.0695 160.3 96.5795C160.77 95.1195 162.05 92.7795 164.72 90.3095C166.9 89.0095 166.689 89.8294 166.859 90.0494C166.939 90.1594 167.12 90.1195 167.72 89.6095C168.35 89.1295 169.43 88.2094 171.33 86.5094C170.83 87.7094 170.359 88.9895 169.449 90.1495C168.529 91.2995 167.319 92.4695 165.109 93.3295C165.159 93.7095 164.96 94.2995 164.77 94.8895C164.6 95.5095 164.429 96.1194 164.489 96.4994C165.579 95.7594 166.78 94.9296 167.92 93.9596C169.06 92.9896 170.17 91.8996 171.31 90.9296C172.44 89.9196 173.46 88.9194 174.46 87.9994C175.52 87.0694 176.46 86.2496 177.22 85.6596C176.01 86.5196 174.53 87.5295 173.68 87.8795C177.17 84.0495 180.68 80.1095 184.33 76.3395C186.72 75.4395 185.5 77.0596 184.3 78.6596C186.71 76.6296 187.88 74.5694 191.56 71.7494C191.5 73.7094 192.619 74.7694 187.859 79.2594C191.409 75.8294 195.11 72.5496 198.77 69.1996C199.97 69.1696 206.05 66.3796 204.79 67.9296C208.38 65.9496 212.129 62.5496 216.189 58.9696C220.279 55.4396 224.7 51.7495 229.64 49.3595C229.96 48.8095 230.759 47.9494 232.609 46.5394C241.509 41.4094 250.24 38.3794 259.72 30.4994L267.069 29.5094C275.069 24.3394 257.209 31.0096 270.569 22.4096C280.019 16.2596 275.369 22.4694 279.189 21.2794C279.399 21.0894 279.62 20.8896 279.85 20.6796C279.96 20.5796 280.079 20.4695 280.199 20.3595C280.229 20.2995 280.249 20.2496 280.279 20.1796C280.369 19.9396 280.479 19.6996 280.619 19.4296C280.899 18.9196 281.28 18.2394 281.88 17.7894C282.47 17.3394 283.27 17.1295 284.02 17.3195C284.4 17.4095 284.73 17.6295 285.06 17.8795C285.39 18.1295 285.71 18.4196 286 18.7296L286.22 18.9796L286.34 19.1195L286.59 19.3795C286.92 19.7295 287.25 20.0796 287.55 20.4496C288.16 21.1896 288.77 21.9594 289.29 22.7894C287.96 21.8794 286.91 20.9594 285.85 20.0194C285.61 19.7994 285.37 19.5795 285.13 19.3595C284.93 19.1795 284.71 19.0095 284.47 18.8795L284.33 18.8895ZM321.569 115.7C321.229 113.47 320.22 109.079 321.3 107.499C323.47 110.019 322.299 111.99 321.569 115.7ZM365.22 180.539C364.15 182.039 361.73 183.269 358.81 184.319C360.56 182.979 362.69 181.689 365.22 180.539ZM515.17 450.789C515.17 450.639 515.17 450.54 515.14 450.42C515.59 448.64 515.58 447.439 515.63 446.749C515.64 446.059 515.61 445.869 515.63 446.049C515.63 446.139 515.649 446.319 515.659 446.589C515.659 446.859 515.639 447.2 515.619 447.62C515.579 448.45 515.449 449.559 515.159 450.799L515.17 450.789ZM505.899 461.809C504.729 462.619 505 462.79 505.8 462.71C505.95 462.51 506.259 462.269 506.689 461.989C507.119 461.719 507.699 461.429 508.199 461.009C509.269 460.209 510.639 459.089 511.819 457.579C511.559 457.739 511.26 457.92 510.92 458.17C510.59 458.43 510.21 458.729 509.75 459.079C509.31 459.459 508.779 459.839 508.189 460.339C507.879 460.559 507.55 460.799 507.21 461.059C506.8 461.289 506.36 461.529 505.89 461.799L505.899 461.809ZM117.159 255.97L117.02 253.759C118.92 258.269 118.069 257.1 117.159 255.97Z" fill="#F8B344"/>
<path d="M348.709 193.859C347.949 193.909 347.619 193.679 347.309 193.449C346.619 194.179 346.759 194.519 348.709 193.859Z" fill="#F8B344"/>
<path d="M229.821 49.1895C229.711 49.2395 229.611 49.3094 229.511 49.3594C229.401 49.5594 229.381 49.7094 229.391 49.8394L229.821 49.1895Z" fill="#F8B344"/>
<path d="M388.369 350.29C387.639 349.23 387.219 348.26 386.889 347.51C386.569 346.75 386.38 346.16 386.26 345.67C386.03 345.74 385.989 346.06 386.279 346.8C386.429 347.17 386.659 347.64 386.989 348.23C387.159 348.52 387.349 348.85 387.569 349.2C387.799 349.54 388.069 349.9 388.369 350.3V350.29Z" fill="#F8B344"/>
<path d="M446.83 480.43C449.06 479.81 451.28 479.16 453.5 478.51C450.25 479.31 448.989 479.16 447.279 479.2C447.519 479.6 448.95 479.96 446.83 480.43Z" fill="#F8B344"/>
<path d="M385.97 478.729C385.01 479.079 383.87 479.009 382.92 479.359L383.29 480.199C387.52 479.629 390.38 478.569 385.97 478.729Z" fill="#F8B344"/>
<path d="M439.31 475.559C438.46 474.099 434.34 475.459 429.67 476.659C429.95 476.599 430.22 476.539 430.51 476.499C429.53 478.959 434.44 477.249 439.31 475.559Z" fill="#F8B344"/>
<path d="M428.579 476.91C427.129 477.25 425.649 477.56 424.209 477.75C423.809 478.73 426.019 477.61 428.579 476.91Z" fill="#F8B344"/>
<path d="M488.7 468.409C486.38 468.589 487.821 470.749 486.391 470.439C485.401 471.739 488.961 470.199 491.271 468.829C491.561 468.659 491.83 468.489 492.07 468.339C492.33 468.179 492.46 468.049 492.78 467.869C493.32 467.549 493.621 467.299 493.471 467.219C493.401 467.179 493.23 467.169 492.94 467.219C492.79 467.239 492.631 467.269 492.431 467.309C492.291 467.339 492.13 467.369 491.94 467.409C491.24 467.579 490.191 467.899 488.711 468.419L488.7 468.409Z" fill="#F8B344"/>
<path d="M434.479 471.159L436.539 472.759L438.868 470.689L434.479 471.159Z" fill="#F8B344"/>
<path d="M471.74 464.5L464.16 465.74C464.35 466.04 463.441 466.44 462.311 466.85C466.921 465.86 472.05 465.03 471.74 464.5Z" fill="#F8B344"/>
<path d="M462.31 466.85C459.9 467.36 457.629 467.92 456.369 468.53C457.659 468.22 460.44 467.52 462.31 466.85Z" fill="#F8B344"/>
<path d="M444.6 468.519L446.899 468.459L452.21 467.459C449.67 467.819 447.14 468.189 444.6 468.519Z" fill="#F8B344"/>
<path d="M482.751 413.539C480.771 411.569 478.691 409.679 476.671 407.749C475.601 407.589 476.85 409.54 479.16 411.64C480.88 412.78 483.121 414.939 482.751 413.539Z" fill="#F8B344"/>
<path d="M494.939 436.239C493.849 434.239 494.1 433.849 493.8 432.459L491.75 433.799L494.939 436.239Z" fill="#F8B344"/>
<path d="M478.919 418.18C477.899 417.97 469.419 410.67 476.579 418.24C477.629 418.41 483.549 424.22 478.919 418.18Z" fill="#F8B344"/>
<path d="M387.309 334.559L388.049 336.619L391.669 334.889C390.239 334.849 388.779 334.739 387.299 334.559H387.309Z" fill="#F8B344"/>
<path d="M466.63 276.59C457.1 279.22 465.32 279.75 456.62 281.77C454.8 283.47 463.72 280.13 461.81 281.72C466.99 278.67 470.14 278.06 466.63 276.59Z" fill="#F8B344"/>
<path d="M461.81 281.719C460.98 282.209 460.109 282.739 459.199 283.359C460.709 282.519 461.4 282.049 461.81 281.719Z" fill="#F8B344"/>
<path d="M165.111 387.96L165.721 387.38L166.031 387.089L166.181 386.94L166.221 386.9V386.89L165.361 386.19L165.331 386.17C165.261 386.12 165.191 386.06 165.111 385.97C165.031 385.88 165.031 385.899 164.981 385.829C164.851 385.669 164.861 385.62 164.881 385.72C164.871 385.64 164.821 385.679 165.141 386.009C165.191 386.059 165.241 386.11 165.291 386.15L165.331 386.18H165.351V386.2L165.811 386.569V386.579L165.791 386.609L165.651 386.88L165.091 387.96H165.111Z" fill="#F8B344"/>
<path d="M165.539 384.49C165.409 384.87 165.209 385.29 164.999 385.65C164.959 385.71 164.958 385.71 164.968 385.7V385.68C164.998 385.64 164.899 385.75 164.919 385.73C165.049 385.62 165.238 385.5 165.408 385.42C165.578 385.35 165.768 385.29 165.978 385.25C165.678 385.01 165.448 385.06 165.518 384.48L165.539 384.49Z" fill="#F8B344"/>
<path d="M314.93 131.949L315.489 132.479C316.249 131.639 316.46 130.249 316.89 127.449L314.939 131.939L314.93 131.949Z" fill="#F8B344"/>
<path d="M308.389 53.9297L308.889 55.1597L309.959 51.9297L308.389 53.9297Z" fill="#F8B344"/>
<path d="M275.76 26.7891C277.06 26.1391 278.39 25.2892 279.73 24.4592C280.37 24.0692 281.01 23.6691 281.64 23.2791C281.69 23.2091 281.7 23.1992 281.74 23.1992C281.72 23.2692 281.71 23.269 281.64 23.269H281.63L281.51 23.3191L281.27 23.4292C281.11 23.4992 280.96 23.5592 280.81 23.6292C280.5 23.7592 280.21 23.8692 279.92 23.9792C278.76 24.3992 277.74 24.6792 276.96 24.9192C275.38 25.3992 274.74 25.7291 275.77 26.7991L275.76 26.7891Z" fill="#F8B344"/>
</svg>
