<svg width="849" height="462" viewBox="0 0 849 462" fill="none" xmlns="http://www.w3.org/2000/svg">
<path d="M47.1389 450.109C47.1389 450.109 -32.2412 97.6693 37.2288 36.0893C86.2088 -7.33073 588.759 13.6796 588.759 13.6796C588.759 13.6796 637.299 18.6095 631.249 39.5795C625.199 60.5395 683.029 431.09 647.609 425.62C612.189 420.15 47.1487 450.109 47.1487 450.109H47.1389Z" fill="#604E29"/>
<path d="M50.0293 459.918C47.0393 459.918 48.1995 461.579 47.7695 461.909C52.7395 461.269 49.8793 459.478 50.0293 459.918Z" fill="#736343"/>
<path d="M99.1387 453.479L98.2988 454.219L105.488 452.129L99.1387 453.479Z" fill="#736343"/>
<path d="M145.259 451.15C140.749 448.46 128.569 452.47 120.299 451.85L118.908 451.26L115.318 453.79C125.288 452.91 138.179 450.69 145.249 451.15H145.259Z" fill="#736343"/>
<path d="M170.17 456.21C168.6 455.15 175.44 454.97 164.42 456.14C164.98 456.24 165.14 456.3 165.47 456.38C166.46 456.31 167.83 456.25 170.17 456.21Z" fill="#736343"/>
<path d="M165.47 456.379C168.7 457.169 160.62 456.709 165.47 456.379Z" fill="#736343"/>
<path d="M187.869 454.598L181.52 455.928C182.89 456.528 188.59 456.398 186.5 456.988C193.03 456.108 191.649 455.508 187.869 454.598Z" fill="#736343"/>
<path d="M193.831 452.18L190.541 452.77C191.141 453.02 192.021 453.08 193.831 452.18Z" fill="#736343"/>
<path d="M183.549 454.019L190.539 452.759C189.589 452.339 189.439 451.399 187.329 453.249C187.859 452.359 186.509 453.249 183.559 454.019H183.549Z" fill="#736343"/>
<path d="M179.549 453.778C175.929 453.328 171.269 453.158 177.639 451.828C165.419 452.848 167.329 454.798 179.549 453.778Z" fill="#736343"/>
<path d="M147.46 448.018L142.619 447.408L138.52 448.598C140.57 448.008 147.81 448.918 147.46 448.018Z" fill="#736343"/>
<path d="M227.79 454.139C228.16 453.499 225.56 452.588 225.04 451.818L220.35 452.769C222.8 453.069 227.42 453.239 227.79 454.139Z" fill="#736343"/>
<path d="M225.05 451.818L232.069 450.408C225.749 450.588 224.62 451.158 225.05 451.818Z" fill="#736343"/>
<path d="M194.809 448.878L183.299 451.698L197.039 448.738L194.809 448.878Z" fill="#736343"/>
<path d="M254.8 452.888L250.859 454.518L257.899 452.008L254.8 452.888Z" fill="#736343"/>
<path d="M272.699 451.779C269.789 453.109 276.86 453.589 273.76 454.479C278.61 454.029 282.72 452.809 286.42 451.719C282.47 452.419 278.229 452.489 272.699 451.789V451.779Z" fill="#736343"/>
<path d="M292.64 450.068C290.67 450.448 288.64 451.058 286.42 451.708C288.52 451.328 290.58 450.838 292.64 450.068Z" fill="#736343"/>
<path d="M244.119 450.129C244.689 450.479 245.79 451.409 249.77 451.629L246.899 450.02C246.049 450.05 245.089 450.089 244.109 450.129H244.119Z" fill="#736343"/>
<path d="M246.811 449.969L246.91 450.019C249.93 449.919 252.031 449.848 252.921 449.818C252.151 449.838 250.311 449.879 246.811 449.969Z" fill="#736343"/>
<path d="M243.42 450.149C243.68 450.149 243.869 450.13 244.119 450.12C243.839 449.96 243.68 449.909 243.42 450.149Z" fill="#736343"/>
<path d="M213.42 449.539C217.53 448.359 226.14 446.889 217.68 445.809C214.76 447.149 219.6 447.759 213.42 449.539Z" fill="#736343"/>
<path d="M239.859 448.14L232.33 448.109C232.5 448.559 233.89 449.17 231.85 449.75L239.859 448.14Z" fill="#736343"/>
<path d="M243.51 447.408L239.859 448.138L242.649 448.148L243.51 447.408Z" fill="#736343"/>
<path d="M279.689 449.048C282.899 448.128 286.439 447.898 290.449 447.588C286.139 447.448 281.69 447.478 277.47 447.688C276.9 448.268 275.089 449.338 279.699 449.048H279.689Z" fill="#736343"/>
<path d="M263.699 449.338C263.919 449.298 264.21 449.238 264.42 449.208C263.97 449.078 263.609 449.048 263.699 449.338Z" fill="#736343"/>
<path d="M329.91 445.728C329.69 445.638 329.491 445.528 329.261 445.438C329.211 445.538 329.191 445.638 329.131 445.748L329.91 445.728Z" fill="#736343"/>
<path d="M276.729 447.398C273.479 447.218 271.57 447.738 269.76 448.368C272.17 448.078 274.72 447.838 277.47 447.688C277.73 447.428 277.769 447.258 276.729 447.398Z" fill="#736343"/>
<path d="M303.61 448.729C301.91 448.449 299.991 448.229 297.971 448.039C299.641 448.509 303.03 449.209 303.61 448.729Z" fill="#736343"/>
<path d="M265.528 449.639C265.368 449.679 265.229 449.709 265.049 449.739C266.129 450.059 265.988 449.889 265.528 449.639Z" fill="#736343"/>
<path d="M265.529 449.639C267.179 449.309 268.47 448.809 269.76 448.369C267.8 448.599 265.99 448.879 264.42 449.209C264.83 449.309 265.239 449.479 265.529 449.639Z" fill="#736343"/>
<path d="M341.349 433.979C340.859 435.619 332.429 437.509 325.019 436.119C317.859 437.669 322.829 442.769 329.269 445.449C329.459 444.729 329.429 444.079 336.809 442.779C334.169 442.019 320.239 441.489 326.439 439.729C336.229 438.429 334.52 439.919 339.34 440.559C335.18 438.729 351.709 437.048 349.439 434.188L340.869 435.628C340.689 435.178 343.779 434.299 341.359 433.989L341.349 433.979Z" fill="#736343"/>
<path d="M315.119 445.95L312.08 446.299C315.57 446.419 318.1 446.95 322.75 448C327.79 446.97 328.819 446.32 329.149 445.77L314.1 446.25L315.13 445.959L315.119 445.95Z" fill="#736343"/>
<path d="M298.359 446.949C300.659 445.079 307.96 443.979 303.38 442.289C294.42 442.839 297.17 444.059 291.85 445.079C306.29 443.949 287.739 446.259 298.239 446.759C295.409 447.189 292.859 447.409 290.449 447.599C293.059 447.689 295.59 447.829 297.97 448.049C297.84 448.009 297.74 447.989 297.63 447.959H297.56C297.56 447.959 297.569 447.959 297.569 447.939C296.939 447.749 296.72 447.629 297.43 447.719C297.48 447.699 297.649 447.679 297.729 447.669C297.819 447.419 298.07 447.189 298.35 446.979C302.56 447.139 299.029 447.409 297.729 447.669C297.689 447.759 297.579 447.849 297.569 447.939C297.579 447.939 297.599 447.949 297.619 447.959L312.06 446.309C308.98 446.209 305.15 446.439 298.35 446.969L298.359 446.949Z" fill="#736343"/>
<path d="M225.221 441.648C225.681 441.778 225.66 441.909 225.7 442.039C226.63 441.779 226.971 441.608 225.221 441.648Z" fill="#736343"/>
<path d="M231.24 442.419C230.2 442.719 229.351 443.459 225.921 443.449C222.921 443.069 225.891 442.609 225.711 442.039C223.671 442.609 218.551 443.659 225.061 444.189L226.07 443.899C231.93 444.219 239.54 446.049 238.53 446.339C236.75 444.839 235.19 443.789 231.24 442.419Z" fill="#736343"/>
<path d="M265.199 444.209L277.22 442.759L271 441.529L271.359 442.429C264.479 442.399 266.019 443.459 265.199 444.199V444.209Z" fill="#736343"/>
<path d="M331.329 446.539L329.818 448.479L336.669 445.529L331.329 446.539Z" fill="#736343"/>
<path d="M347 445.588L346.5 447.238L350.59 446.068L347 445.588Z" fill="#736343"/>
<path d="M451.239 19.4492L447.689 19.8389C449.369 19.7289 450.449 19.5992 451.239 19.4492Z" fill="#736343"/>
<path d="M476.9 20.0884L477.55 19.3086C476.35 19.7186 475.86 20.0284 476.9 20.0884Z" fill="#736343"/>
<path d="M668.59 345.339C669.87 340.059 671.889 334.089 670.109 334.819L668.42 336.519C668.93 340.139 668.86 342.949 668.59 345.339Z" fill="#736343"/>
<path d="M633.09 82.9785C632.96 83.4885 632.829 84.0086 632.699 84.5386C633.429 85.7286 634.119 86.8486 634.729 87.8486C634.239 86.3886 633.67 84.7285 633.09 82.9785Z" fill="#736343"/>
<path d="M625.43 80.0488L625.939 73.1191C625.679 74.6891 625.5 76.9188 625.43 80.0488Z" fill="#736343"/>
<path d="M311.14 20.2578L307.02 22.0874C313.48 22.0374 310.63 21.1478 311.14 20.2578Z" fill="#736343"/>
<path d="M507.541 438.019C512.021 438.539 515.58 438.689 518.7 438.659C513.3 437.839 508.911 436.489 507.541 438.019Z" fill="#736343"/>
<path d="M461.719 0.837891C459.539 1.11789 458.599 1.45791 458.659 1.85791C460.899 1.59791 462.179 1.28789 461.719 0.837891Z" fill="#736343"/>
<path d="M531.55 438.189C530.76 438.039 529.99 437.979 529.18 437.859C525.93 438.279 522.669 438.629 518.689 438.669C522.679 439.279 527.24 439.579 531.55 438.189Z" fill="#736343"/>
<path d="M25.6484 260.258C25.6084 260.628 25.6184 261.077 25.5684 261.417C25.8184 261.497 25.7784 260.998 25.6484 260.258Z" fill="#736343"/>
<path d="M30.8193 409.359C30.4293 407.939 29.9793 405.589 29.5293 403.379C29.6193 404.479 29.9693 406.289 30.8193 409.359Z" fill="#736343"/>
<path d="M410.12 443.508C409.6 443.728 406.8 443.768 410.12 443.508Z" fill="#736343"/>
<path d="M393.631 437.219C394.331 436.989 394.851 436.709 394.921 436.299C394.671 436.739 394.211 437.029 393.631 437.219Z" fill="#736343"/>
<path d="M564.31 426.038C564.41 426.038 564.49 426.038 564.6 426.038C563.6 425.718 563.77 425.778 564.31 426.038Z" fill="#736343"/>
<path d="M405.08 442.918C406.34 443.078 407.779 443.198 409.359 443.258C408.669 443.148 407.37 443.038 405.08 442.918Z" fill="#736343"/>
<path d="M405.79 443.728C404.64 443.708 403.74 443.697 402.88 443.688C402.47 443.998 402.85 444.168 405.79 443.728Z" fill="#736343"/>
<path d="M414.739 443.209C412.839 443.319 411.06 443.319 409.35 443.269C410.01 443.359 410.289 443.449 410.109 443.519C411.079 443.459 412.459 443.369 414.739 443.219V443.209Z" fill="#736343"/>
<path d="M76.4592 27.8486C76.2392 27.8386 75.9785 27.8484 75.7385 27.8184C72.6585 29.1884 74.0492 28.7886 76.4592 27.8486Z" fill="#736343"/>
<path d="M643.85 260.14C643.88 260.29 643.94 260.37 643.97 260.51C643.97 260.35 643.979 260.16 643.989 260.02L643.85 260.14Z" fill="#736343"/>
<path d="M641.408 248.389C644.098 253.229 644.098 256.139 643.988 260.019L648.709 255.608L641.408 248.398V248.389Z" fill="#736343"/>
<path d="M389.8 19.0682L398.17 20.7484C388.03 23.2584 380.719 22.2982 388.569 24.6082C389.809 19.0482 421.14 24.4083 422.38 18.8983L427.89 20.1483C426.31 20.0683 426.049 20.3882 424.479 20.3182C435.179 23.1482 432.529 16.4283 446.369 17.4583C451.189 17.9683 454.539 18.8483 451.239 19.4383L462.02 18.2786C465.15 18.4486 464.36 19.3983 461.25 19.2283L477.67 19.1385L477.54 19.2982C479.9 18.4782 485.24 17.2584 487.84 16.7484C491.99 17.6484 485.729 17.2886 486.779 18.0086L495.899 16.8885C499.559 18.4185 491.999 19.6184 485.729 19.2684C494.079 25.0184 493.299 18.0384 511.529 21.7684L502.939 22.2386C508.379 25.5286 515.099 24.5684 524.739 26.8084C522.479 25.7084 505.469 21.3183 515.369 20.2083C518.139 20.7083 521.79 21.0082 527.14 20.0482C527.14 22.0182 532.34 21.6886 538.84 21.7786L538.319 24.3783C545.359 23.8483 544.85 22.4983 549.02 21.4583C556.84 21.9683 558.39 24.0582 560.18 25.8182C572.69 26.6682 551.639 22.2682 566.489 22.2982C571.679 22.9782 576.119 23.1286 580.819 22.9686C581.989 22.9286 583.189 22.8682 584.409 22.7982C585.019 22.7582 585.64 22.7185 586.27 22.6785C586.58 22.6585 586.9 22.6282 587.22 22.6082C587.53 22.5882 587.93 22.5686 588 22.5286C588.17 22.4986 588.24 22.4683 588.5 22.4583C588.8 22.4583 589.11 22.4583 589.42 22.4583C590.05 22.4583 590.699 22.4586 591.359 22.4686C592.689 22.4886 594.1 22.5285 595.58 22.5985C602.13 24.7885 594.11 23.9285 596.38 25.1385C598.47 24.8285 600.579 24.5885 602.689 24.3885C604.109 24.7985 603.48 25.2984 603.17 25.5584C605.69 25.7984 605.96 25.2183 606.58 24.7283C607.19 24.2583 608.21 23.8184 612.06 24.8084C612.44 24.5584 612.929 24.5283 613.529 24.6683C614.129 24.7983 614.83 25.1182 615.59 25.5682C617.1 26.4582 618.889 27.8886 620.409 29.5086C621.979 31.1086 623.129 32.9284 623.609 34.0784C624.109 35.2684 624.309 35.6085 624.909 37.1185C624.419 37.6885 624.079 37.3782 623.689 37.0682C623.309 36.7382 622.93 36.4186 622.39 36.4686C622.41 36.6186 622.449 36.7683 622.489 36.9183C622.489 36.9683 622.52 36.9784 622.52 37.0584C622.47 37.3084 622.43 37.5584 622.38 37.8084C622.34 38.0384 622.29 38.3386 622.27 38.5086L622.229 39.0482C622.159 39.8082 622.19 40.2785 622.18 40.8485C622.2 41.3285 622.219 41.7884 622.239 42.2284C622.349 43.9084 622.53 45.1586 622.68 46.2786C623 48.4886 623.28 50.0086 623.58 51.4486C624.2 54.3086 624.91 56.8184 626.8 62.7284L625.949 73.1082C627.249 65.4282 630.38 74.8283 633.1 82.9783C633.79 80.2383 634.399 77.9085 634.649 76.3485L637.34 89.5086C637.08 91.1586 636.049 89.9082 634.739 87.8382C635.049 88.7282 635.339 89.5686 635.609 90.2186C635.129 95.0686 633.38 92.7684 631.58 89.4984C631.93 87.8184 632.32 86.1584 632.71 84.5384C630.8 81.4084 628.76 78.4782 627.3 79.3182C627.68 80.1582 628.1 81.8083 628.42 83.6283C627.91 82.8083 627.47 82.2886 627.25 82.7186C627.02 83.1986 627.729 84.5385 628.609 86.6585L626.01 89.9886L627.239 90.6082V108.248C631.489 120.418 636.97 130.768 640.34 150.398C637.68 145.728 636.75 149.729 634.21 149.739C636.28 144.059 631.389 134.558 630.819 124.248C631.119 129.628 629.799 128.578 629.229 127.268L633.659 145.279C631.559 145.089 632.54 149.328 632.22 154.188C635.89 150.138 636.429 167.498 638.479 174.798C637.159 175.408 635.579 173.779 634.909 164.679C632.939 175.009 641.1 177.079 639.56 187.179C639.29 184.969 639.37 183.748 638.58 182.958C640.36 187.998 640.749 200.739 639.239 197.889L638.979 195.688C640.099 210.428 643.589 240.408 647.239 242.268C646.809 242.458 642.88 240.748 642.09 239.938C646.83 248.288 651.549 256.668 656.239 265.078C653.049 263.038 646.789 272.559 643.989 260.529C643.889 264.069 643.8 268.428 645.5 275.708C645.72 273.288 649.27 269.378 649.83 272.618C647.31 281.868 648.62 278.998 646.72 290.268C647.06 286.638 652.059 290.229 652.369 295.909C651.599 295.079 647.799 296.749 647.149 294.719L652.81 308.449C651.73 304.989 648.88 308.118 647.81 311.348C648.62 309.828 648.579 323.509 649.239 327.219L649.93 321.188C650.1 329.148 651.92 332.968 653.8 336.788C655.67 340.608 657.61 344.438 657.79 352.358C656.76 350.468 651.779 347.879 651.489 355.889C653.949 359.449 663.39 371.809 664.85 386.199L663.42 388.889C663.8 392.549 664.12 396.229 664.33 399.969C662.87 396.349 660.48 389.758 657.92 382.918C655.37 376.068 652.7 368.918 651.14 363.878C650.17 369.798 649.62 365.558 649.81 374.358C648.56 377.458 647.89 369.588 647.75 366.998C647.59 373.818 647.32 380.618 646.84 387.288C648.23 386.878 648.81 390.758 649.21 394.618C649.62 398.488 649.8 402.318 650.97 402.058C650.75 394.808 650.059 387.438 649.189 380.058C650.559 379.618 652.5 382.838 653.89 388.038C655.25 393.218 656.06 400.458 654.79 407.578C653.97 409.308 652.87 408.418 651.85 407.188C650.82 405.948 649.829 404.359 649.359 404.449C649.529 404.909 649.64 405.988 649.64 407.308C649.64 407.978 649.619 408.699 649.569 409.449C649.549 409.829 649.519 410.208 649.479 410.588C649.429 411.018 649.419 411.269 649.399 411.489C649.319 412.419 649.14 413.368 648.92 414.078C648.68 414.788 648.399 415.248 648.189 415.298C648.239 413.928 648.069 412.699 647.819 411.639C647.419 412.339 647.27 412.999 647.18 413.779C647.08 414.549 647.04 415.428 646.8 416.318C646.57 417.188 646.06 418.088 645.21 418.308C644.4 418.448 643.38 418.398 642.29 418.088C641.99 417.988 641.659 417.918 641.369 417.788L641.18 417.699C641.09 417.669 641.12 417.638 640.92 417.598C640.61 417.518 640.299 417.428 639.989 417.348C636.429 417.018 629.57 413.658 628.97 415.288C634.64 418.438 635.53 428.139 631.85 430.489C631.26 430.379 626.81 429.578 622.02 428.728C617.21 427.868 612.05 426.818 610.09 426.098C607.26 424.928 609.34 423.418 611.54 421.958C613.74 420.508 616.05 419.108 613.63 418.078C613.43 418.828 610.33 419.798 609.04 420.128C605.44 419.558 610.49 417.778 602.68 418.268C601.43 421.068 586.8 418.379 599.04 420.699C591.43 421.659 590.92 420.328 581.96 420.668C584.86 422.378 574.09 427.008 566.5 428.048C566.93 427.328 565.19 426.458 564.34 426.058C548.72 426.308 540.299 425.328 525.739 425.838C524.369 425.218 517.32 424.658 520.27 423.348C518.19 423.918 516.309 424.928 511.819 425.168C503.039 423.098 521.82 424.408 515.08 421.768C514.57 423.408 503.549 424.448 497.199 425.708C499.269 428.128 511.989 425.608 518.359 424.368C518.519 427.808 507.509 431.849 492.369 434.029C480.319 435.369 487.04 432.018 484.96 432.588C462.24 432.898 465.87 439.399 446.93 437.699C439.36 435.819 446.41 433.348 444.68 431.828C454.49 430.578 459.85 432.589 466.52 432.219L458.26 431.529C461.36 430.669 467.91 429.828 471.52 430.328C465.17 428.608 433.15 431.559 415.56 430.509C412.48 431.379 407.14 432.378 409.72 433.148L415.25 432.598C420.42 434.138 404.929 435.509 411.979 436.029C404.599 437.609 396.36 439.928 385.85 439.398L383.77 436.989C384.03 437.709 390.68 438.169 393.58 437.279C389.27 438.579 377.38 434.618 372.75 438.108L380.159 439.509C372.759 441.109 363.65 444.178 354.35 443.818C358.68 446.098 356.469 443.439 363.189 446.029C357.309 442.689 386.909 445.099 377.569 441.739C384.479 444.789 389.33 442.628 398.3 445.098C397.99 444.288 395.099 443.659 402.899 443.719C403.239 443.459 404.06 443.118 404.58 442.918C404.82 442.938 404.899 442.938 405.109 442.958C404.949 442.928 404.84 442.908 404.68 442.878C405.01 442.738 405.04 442.708 404.52 442.848C402.65 442.568 401.13 442.198 400.5 441.768C404.28 439.698 416.66 439.208 420.8 438.048C425.44 438.238 418.91 439.078 421.47 439.848L427.659 438.108C428.359 439.918 440.059 440.618 429.229 442.168L439.02 441.828C444.83 442.608 452.77 442.688 457.63 441.708C462.26 441.908 469.21 439.188 465.25 440.788L480.56 439.029L480.72 439.478C495.87 439.098 511.789 435.188 529.229 437.878C534.309 437.228 539.559 436.468 548.109 436.708L549.83 438.239C556.36 437.449 569.519 439.188 572.279 437.458C579.459 441.478 604.02 437.518 615.46 438.148L615.869 436.068C619.789 436.098 623.68 435.888 627.71 435.688C629.74 435.578 631.82 435.438 634.01 435.268C635.12 435.168 636.17 435.138 637.3 435.068C637.86 435.038 638.42 434.999 639 434.969C639.29 434.949 639.579 434.938 639.869 434.918L640.31 434.889C640.31 434.889 640.5 434.889 640.64 434.889H641.04L640.54 433.949C640.37 433.639 640.349 433.328 640.239 433.018C640.389 432.988 640.769 432.968 641.109 432.938C641.449 432.918 641.82 432.888 642.14 432.878C642.8 432.868 643.489 432.848 644.199 432.878C645.689 432.788 647.249 432.748 648.899 432.748C650.589 432.818 652.129 432.658 653.779 431.918C655.399 431.198 656.87 430.068 658.14 428.708C659.41 427.348 660.53 425.769 661.51 423.989C662.45 422.189 663.289 420.238 663.979 418.148C664.319 417.108 664.629 416.028 664.939 414.938L665.29 413.568C665.4 413.158 665.49 412.768 665.59 412.368C666.34 409.158 666.859 405.949 667.119 402.759C667.729 403.779 667.16 407.399 666.33 409.949C669.68 401.529 669.34 392.558 668.63 384.068C667.91 375.548 666.749 367.388 668.069 359.978C667.299 356.328 667.44 353.668 667.8 351.078C667.82 351.418 667.86 351.729 667.93 351.989C667.93 351.609 667.929 351.058 667.899 350.478C668.149 348.848 668.449 347.168 668.659 345.348C668.279 346.898 667.979 348.388 667.859 349.668C667.709 346.848 667.289 342.579 666.619 338.409L668.489 336.518C668.449 336.178 668.44 335.908 668.38 335.548C668.88 331.398 667.269 332.298 665.909 334.568C665.469 332.478 664.969 330.578 664.409 329.108C667.389 325.578 662.669 318.229 665.729 313.469C663.909 310.769 662.94 292.599 659.27 290.679C659.71 290.499 659.829 289.258 660.029 291.498C660.049 286.828 660.05 282.168 658.72 278.098L661.04 275.918L656.79 266.108C657.75 259.838 658.389 257.208 660.869 263.128C656.549 248.688 658.64 251.288 654.5 239.068L656.17 239.518C655.67 235.058 652.79 228.128 653.85 225.308C655.93 214.998 649.09 175.858 649.08 149.958C644.89 155.438 649.889 137.829 646.109 137.219C647.069 135.609 647.309 131.969 648.739 136.009C646.209 123.069 648.37 116.209 644.31 107.529C645.28 105.919 646.25 110.148 646.77 108.748C646.42 107.728 645.35 104.709 645.88 103.279C646.41 101.879 647.019 105.088 647.729 107.098C646.129 93.8085 642.56 92.8185 639.21 92.1785C640.06 85.2685 639.51 81.9286 636.92 77.2586C637.76 74.8086 638.509 70.7984 639.659 79.0184C639.519 76.6884 639.23 69.5484 638.76 62.9984C638.27 56.4384 637.69 50.5282 636.38 50.3582C636.68 49.6282 636.67 48.0386 636.58 46.5286C636.48 45.0086 636.319 43.5682 636.199 43.0482C636.239 42.4782 636.29 41.9882 636.34 41.5882C636.37 41.3982 636.4 41.2583 636.42 41.1483V41.1185L636.439 41.1082C636.439 41.1082 636.51 41.1082 636.34 41.0682L635.649 40.8485C634.899 40.6285 636.609 41.1282 636.439 41.0682V41.0384V41.0086L636.47 40.9383L636.54 40.6683C636.71 39.9583 636.87 39.2783 637.01 38.6283C637.13 37.9683 637.149 37.2883 637.199 36.6683C637.219 36.3483 637.24 36.0486 637.26 35.7386C637.24 35.4286 637.219 35.1284 637.199 34.8284C637.149 34.2284 637.099 33.6585 637.029 33.0985C636.909 32.5485 636.78 32.0186 636.64 31.4886C636.51 30.9586 636.359 30.4483 636.149 29.9783C634.589 26.0983 631.95 22.8382 626.84 19.5682C627.27 19.9082 627.689 20.3386 628.109 20.7186C628.529 21.1086 628.94 21.4885 629.34 21.9285C626.44 21.6185 624.459 20.5484 621.949 19.0584C619.469 17.5984 616.49 15.7785 612.27 14.6185L612.609 14.3885C607.999 12.3085 605.08 11.4683 603.1 10.9583C601.11 10.4783 600.039 10.3984 598.989 10.3084C597.929 10.2284 596.89 10.1386 594.93 9.7386C593.95 9.5386 592.739 9.25851 591.159 8.88851C590.749 8.79851 590.31 8.69821 589.85 8.58821C589.57 8.53821 589.279 8.45854 588.979 8.42854C588.829 8.40854 588.68 8.38849 588.52 8.36849L588.159 8.30843C587.199 8.14843 586.14 7.95862 584.97 7.75862L585.92 9.75862C584 13.8986 569.31 6.62825 558.3 7.87825L562.21 9.12825C556.19 10.3583 545.689 2.83825 539.699 2.12825C538.399 1.71825 541.789 1.60851 543.619 1.38851C527.969 -1.58149 541.5 3.88825 529.77 4.12825C527.65 2.67825 532.659 0.688565 524.779 0.198565C520.879 -1.04144 501.78 4.04851 491.08 1.13851C493.43 2.26851 495.75 3.38843 490.29 4.05843C481.94 4.22843 467.82 -0.501416 460.22 2.71858C459.16 2.40858 458.769 2.11847 458.729 1.84847C452.329 2.58847 437.97 2.89829 434.1 4.66829C428.31 -2.23171 394.41 7.40831 394.63 1.18831L375 1.34847L375.52 0.718584C362.98 0.218584 358.529 1.70831 354.119 3.18831C351.219 2.75831 353.34 2.17847 353.58 1.84847C335.25 0.548467 333.42 0.81835 318.06 3.97835L316.449 1.95833C312.299 3.14833 289.909 -1.08155 271.939 1.57845C272.109 1.34845 272.479 0.948506 273.899 0.638506C263.799 1.97851 251.659 0.808174 241.119 0.298174C230.579 -0.221826 221.64 -0.0816503 218.06 3.72835L204.77 6.02864C222.06 5.94864 202.32 9.31864 209.47 10.2786C202.71 10.9586 191.85 8.76841 200.17 8.03841L201.489 8.35823C202.939 6.37823 197.569 6.24819 191.869 6.31819C186.169 6.38819 180.149 6.65847 180.319 5.34847C163.319 6.32847 146.499 6.92825 129.899 7.87825C113.309 8.84825 96.9399 10.0883 80.8799 12.7283L85.0498 15.0682C81.3398 15.6182 77.6299 16.2082 73.9199 16.8582C70.8699 16.7882 69.53 15.2985 77.54 13.9285C75.29 13.4785 71.9895 14.4586 69.2695 15.6986C66.5495 16.9286 64.4199 18.4084 64.3799 18.7484C60.4299 19.3784 58.7597 19.4685 58.4297 19.1585C58.0897 18.8485 59.0892 18.1683 60.4492 17.4383C63.1692 15.9883 67.3096 14.4686 64.8896 14.9886C62.7196 15.5586 60.5394 16.1584 58.3594 16.8284L59.9297 16.7684C57.4197 18.0584 56.14 19.0682 54.29 20.0882C52.43 21.1582 50.0197 22.1186 45.1797 23.9686C42.0097 24.9586 41 25.0082 40.5 24.7982C39.99 24.6182 40 24.1982 38.71 24.8182C38.67 24.7182 38.4193 24.7682 37.8193 25.0682C37.2193 25.3582 36.2398 25.9584 34.7598 27.0784C34.1098 27.5384 33.4801 27.9186 32.8301 28.4486C32.2001 28.9486 31.4595 29.5086 31.0195 29.9686L27.9795 32.8685C27.0095 33.8585 26.16 34.9183 25.25 35.9583C24.81 36.4783 24.3295 36.9884 23.9395 37.5384L22.75 39.1683C24.56 37.8383 26.6096 36.6882 28.5596 35.5882C28.0996 36.3582 27.6199 37.1082 27.1299 37.8182C26.8799 38.1682 26.6296 38.5285 26.3896 38.8685C26.1696 39.2185 25.96 39.5683 25.75 39.8983C24.92 41.2283 24.1595 42.3786 23.6895 43.1986C23.2495 44.0286 23.1295 44.5284 23.4395 44.5184C23.7495 44.5184 24.5198 43.9986 26.0898 42.9686C23.7498 44.4386 20.7793 48.2983 17.9893 53.3983C15.2593 58.5183 12.9392 64.8983 11.1592 71.2083C10.7392 72.7883 10.3299 74.3683 9.91992 75.9183C9.57992 77.4783 9.23918 79.0084 8.90918 80.4984C8.55918 81.9884 8.29004 83.4382 8.04004 84.8382C7.78004 86.2282 7.53004 87.5682 7.29004 88.8182C6.44004 93.8482 5.79957 97.6384 5.30957 99.0784C5.82957 108.108 4.98945 116.698 4.18945 127.418C4.48945 126.098 5.36977 125.078 6.00977 125.548C6.64977 126.008 7.14953 127.939 6.76953 132.529C4.10953 130.719 3.29977 134.929 2.75977 140.509C2.19977 146.099 1.95 153.038 0 156.788C1.31 153.438 1.43938 160.028 1.85938 166.108C2.26937 172.198 2.87984 177.779 4.58984 172.509C4.35984 180.199 2.52945 173.029 1.43945 178.909C4.16945 197.129 2.16984 219.318 5.08984 241.788C5.83984 242.068 6.55961 238.199 8.09961 242.909C7.28961 246.979 6.51 251.049 5.75 255.139C6.57 259.549 10.3198 258.759 8.75977 267.139C9.22977 265.929 9.93977 264.118 10.5098 267.058C11.3298 289.198 15.1495 311.479 18.9795 333.779C22.8095 356.089 26.6401 378.438 27.5801 401.088C27.8301 394.858 28.6991 398.818 29.6191 403.358C29.3791 400.338 31.3797 403.088 32.2197 402.328C32.4997 408.638 32.8192 414.949 33.1592 421.259C36.4592 424.079 37.3601 440.948 40.3301 442.328L38.6494 436.608C43.2394 443.698 43.0399 424.419 47.1299 424.779C41.9699 416.819 47.6394 401.068 40.1494 387.808C40.3494 384.528 41.8797 390.249 42.4697 388.409C40.1497 385.119 39.0093 380.829 38.3193 372.639L38.8896 373.478C36.6796 362.198 35.6293 354.038 34.7393 345.518C33.8593 336.988 33.1293 328.078 31.7793 315.248L30.1396 317.418C29.5896 311.898 30.0196 310.648 30.1396 308.018C26.3196 302.138 32.2195 323.448 28.1895 318.188C29.5995 314.258 28.19 304.589 27 295.179C25.8 285.779 24.8193 276.648 26.7393 273.918C25.7493 265.458 24.8101 276.668 23.8301 268.208L24.7598 265.828L22.96 263.868C22.59 258.288 23.7693 255.319 24.7793 255.009C24.7993 256.369 25.4893 258.798 25.7393 260.228C26.0293 256.558 25.3792 251.508 24.6592 247.058C23.9692 242.608 23.2198 238.758 23.3398 237.498L23.3994 245.699C21.6494 234.209 20.6192 221.369 19.6992 208.639C18.7592 195.909 17.9399 183.299 16.4199 172.159L15.5498 173.878C15.0098 169.618 14.7893 166.628 14.7793 164.248C14.7593 161.868 14.8698 160.108 15.0498 158.288C15.4198 154.658 15.8392 150.828 15.6592 141.478L15.8594 142.159C15.4594 140.279 15.18 138.089 15.04 135.719C14.91 133.359 14.9591 130.829 15.1191 128.279C15.5491 130.669 16.1496 128.468 16.8096 126.478C17.4796 124.488 18.1393 122.698 18.5293 125.788C18.3493 121.188 18.2392 118.328 18.1592 116.418C18.0492 114.508 17.8995 113.548 17.6895 112.788C17.2795 111.248 16.6098 110.499 15.5898 104.239L17.46 101.659C17.07 99.5285 16.6498 98.3286 16.5498 96.5286C16.4898 95.6286 16.4893 94.5685 16.5693 93.1585C16.6093 92.4485 16.6698 91.6584 16.7598 90.7484C16.8698 89.8484 17.0097 88.8285 17.1797 87.6785C17.0997 91.5485 17.9493 90.1786 18.8193 88.9686C19.6993 87.7486 20.5894 86.6783 20.6494 90.9583C21.5194 88.6883 22.15 86.5284 22.75 84.5184C23.36 82.5184 23.7892 80.6182 24.1992 78.8382C24.6292 77.0682 24.9595 75.3982 25.2295 73.7982C25.5595 72.2282 25.8494 70.7585 26.1094 69.3485C26.3494 67.9185 26.7198 66.6485 27.0498 65.4085C27.4098 64.1885 27.7493 62.9984 28.2793 61.9784C28.7893 60.9384 29.3598 59.9682 30.0498 59.0882C30.7298 58.2082 31.6294 57.4985 32.6094 56.8485C32.5894 54.5485 32.0392 54.1482 31.1992 54.8582C30.7792 55.2082 30.2993 55.8383 29.7793 56.6283C29.5193 57.0183 29.2593 57.4485 28.9893 57.9085C28.7393 58.3785 28.4998 58.8785 28.2598 59.3885C27.7798 60.4085 27.3099 61.4683 26.8799 62.4383C26.4999 63.4383 26.1596 64.3582 25.8896 65.0682C25.3496 66.4882 25.0793 67.0883 25.2793 65.8783C23.9293 67.5683 23.7998 65.6384 24.3398 62.5184C24.5998 60.9584 25.1893 59.1883 25.7793 57.4183C26.3993 55.6583 27.2698 54.0286 28.0098 52.7186C28.7298 51.3686 29.8 50.3582 30.96 49.3382C31.26 49.0882 31.5499 48.8285 31.8799 48.5985C32.2199 48.3685 32.5599 48.1385 32.9199 47.9085C33.6099 47.4485 34.3496 46.9585 35.1396 46.4285C35.8896 45.8785 36.7992 45.4385 37.6592 44.8485C38.0992 44.5585 38.5393 44.2583 38.9893 43.9383C39.4493 43.6183 39.9592 43.3586 40.4492 43.0286C40.9492 42.7086 41.45 42.3684 41.96 41.9984L42.3398 41.7186L42.6699 41.5384C42.8999 41.4184 43.0796 41.2785 43.3496 41.1385C44.3196 40.5785 45.5798 39.9285 47.0098 39.1585C45.8798 39.7485 45.9092 40.0583 44.9092 40.6683C47.0592 39.9583 49.1198 38.5882 51.5898 37.3182C54.0498 36.0482 56.8992 34.9082 60.4492 34.7982C63.4992 31.2682 69.2494 32.7084 69.6494 29.3084C65.0594 30.5784 60.5397 31.9983 56.2197 33.6283C59.8297 32.0483 63.2898 29.9182 67.5898 28.0882C71.8898 26.2582 77.0294 24.7084 83.8594 24.4984C82.9194 25.3084 79.1195 26.8482 76.5195 27.8382C80.5395 28.0282 83.8598 25.8585 88.0498 26.1785C87.7198 27.8685 83.4395 28.7184 78.2695 29.7684C73.0995 30.8084 67.0498 32.1185 63.2998 34.4085C65.4198 34.5385 69.16 33.0382 72.04 32.1082C74.91 31.1682 76.8198 30.7583 75.0498 32.8983C77.6398 30.0983 81.4593 29.5282 85.8193 29.0882C90.1893 28.6482 95.0992 28.3183 100.159 25.9383L99.7197 27.9486C101.34 27.4186 104.689 26.0684 107.779 25.7484L102.529 28.9383C110.799 25.7183 119.209 28.8585 127.319 26.9285C110.079 28.6985 123.22 24.9782 115.76 24.3182C126.3 21.9082 129.519 22.9285 133.029 24.0985C136.559 25.2785 140.38 26.6084 152.33 25.2884C149.11 25.7784 140.069 25.0384 145.069 23.7484C149.669 23.7984 155.749 24.1183 158.619 24.9583C174.499 23.5483 156.05 23.1184 162.75 21.4984C168.32 23.5184 170.509 20.0583 177.479 18.9183L177.64 20.8885C195.89 21.2385 182.259 16.5182 198.739 17.2982L191.93 20.3382L200.449 19.2586L198.779 21.5682C207.999 19.5182 210.93 19.8483 220.06 20.1683C217.89 18.8483 221.13 16.5486 229.22 16.2386C234.77 17.2486 226.19 18.1885 237.63 17.5985C235.08 18.8985 232.29 20.5282 227.26 18.8582C226.77 19.5182 224.749 20.1784 224.239 20.8284C230.209 21.9884 239.14 20.6982 243.29 20.5882C241.69 20.5582 239.78 20.4986 238.8 20.2386L255.34 17.1185C257.97 17.8085 255.909 18.4382 253.869 19.0682C257.229 18.7882 259.539 17.8282 264.479 17.5682C263.229 19.1882 263.56 20.8383 256.58 21.7283L272.359 19.6683C273.429 20.3483 280.51 21.4584 278.46 22.0784C287.23 22.8984 299.94 18.7085 311.59 19.8885C312.19 19.5685 313.4 19.2686 315.88 19.0286C326.82 19.3386 336.509 21.2885 349.479 19.1185L356.83 22.0184C366.99 21.4084 346.88 18.3585 363.8 17.3485C375.78 16.4985 368.259 19.8283 372.449 20.6483C378.409 19.2383 388.799 16.3682 399.779 18.8382C396.129 19.3382 393.28 18.8882 389.88 19.0682H389.8ZM515.13 20.1785C512.69 20.5185 507.819 21.6683 506.069 20.4583C508.899 18.2783 511.01 19.4085 515.13 20.1785ZM631.189 101.768C630.349 100.038 630.38 97.2184 630.8 93.9984C631.19 96.2584 631.389 98.8584 631.189 101.768ZM446.489 440.318C446.589 440.278 446.66 440.258 446.75 440.208C452.2 440.748 450.269 440.528 446.489 440.318ZM435.21 439.949C434.09 440.269 434.18 440.538 434.67 440.798C435.43 440.268 437.96 440.119 440.84 440.139C440.02 439.659 438.55 439.369 435.21 439.949ZM37.6699 26.1883C38.5199 25.9283 39.3692 25.6283 40.1992 25.4183C37.7692 26.9783 36.8597 27.6382 36.6797 27.5882C36.5097 27.5482 37.0799 26.8583 37.6699 26.1883Z" fill="#736343"/>
<path d="M626.318 80.4591C626.588 79.7391 626.929 79.5189 627.289 79.3189C626.869 78.3989 626.488 78.4091 626.318 80.4591Z" fill="#736343"/>
<path d="M311.898 19.9185C311.768 19.8985 311.649 19.9184 311.519 19.8984C311.309 20.0184 311.199 20.1388 311.139 20.2588L311.898 19.9185Z" fill="#736343"/>
<path d="M609.08 417.109C611.41 417.339 612.72 417.69 613.59 418.06C613.71 417.58 612.64 417.159 609.08 417.109Z" fill="#736343"/>
<path d="M375.74 445.938L382.921 445.098C379.441 445.358 378.18 444.978 376.4 444.748C376.58 445.198 377.99 445.808 375.74 445.938Z" fill="#736343"/>
<path d="M312.619 436.648C311.579 436.938 310.389 436.779 309.359 437.079L309.689 437.979C314.169 437.709 317.279 436.818 312.619 436.648Z" fill="#736343"/>
<path d="M368.77 439.699C368.12 438.069 363.63 438.828 358.59 439.378C358.89 439.358 359.179 439.328 359.479 439.338C358.099 441.728 363.44 440.708 368.76 439.708L368.77 439.699Z" fill="#736343"/>
<path d="M357.429 439.488C355.879 439.638 354.289 439.758 352.769 439.748C352.219 440.708 354.669 439.858 357.429 439.488Z" fill="#736343"/>
<path d="M420.981 441.668C418.571 441.348 419.571 443.849 418.191 443.239C415.611 445.469 434.041 439.998 420.981 441.668Z" fill="#736343"/>
<path d="M364.43 434.43L366.34 436.39L369.09 434.609L364.43 434.43Z" fill="#736343"/>
<path d="M404.37 434.128L396.28 433.918C396.42 434.258 395.4 434.498 394.15 434.708C399.12 434.558 404.59 434.718 404.37 434.118V434.128Z" fill="#736343"/>
<path d="M394.149 434.719C391.559 434.799 389.1 434.949 387.67 435.349C389.07 435.259 392.079 435.059 394.149 434.719Z" fill="#736343"/>
<path d="M375.439 433.309L377.84 433.628L383.54 433.519L375.439 433.309Z" fill="#736343"/>
<path d="M491.119 430.848L499.9 429.918C500.77 429.178 498.35 428.848 495.08 429.248C492.99 429.818 489.729 430.218 491.109 430.848H491.119Z" fill="#736343"/>
<path d="M464.26 426.328C466.66 426.648 466.84 427.098 468.21 427.718L468.369 425.168L464.26 426.318V426.328Z" fill="#736343"/>
<path d="M489.93 424.699C490.78 423.949 502.639 422.179 491.479 422.769C490.609 423.499 481.81 424.449 489.93 424.699Z" fill="#736343"/>
<path d="M622.84 423.898L620.6 423.958L620.949 428.119L622.84 423.898Z" fill="#736343"/>
<path d="M647.01 338.349C646.52 348.719 649.711 340.679 648.881 350.069C649.971 352.459 649.57 342.389 650.52 344.839C649.19 338.639 649.59 335.339 647.01 338.349Z" fill="#736343"/>
<path d="M650.52 344.848C650.73 345.838 650.98 346.898 651.29 348.008C650.96 346.208 650.71 345.368 650.52 344.848Z" fill="#736343"/>
<path d="M33.4785 434.039L34.0088 440.829L34.4785 436.279L33.4785 434.039Z" fill="#736343"/>
<path d="M39.1689 446.088L36.9082 448.208L40.1289 451.688C39.6689 450.188 38.8182 447.348 39.1582 446.088H39.1689Z" fill="#736343"/>
<path d="M533.599 26.0581L534.129 25.438C533.109 24.718 531.548 24.618 528.408 24.418L533.599 26.0679V26.0581Z" fill="#736343"/>
<path d="M442.75 21.8896L444.31 21.9697L441.43 19.5195L442.75 21.8896Z" fill="#736343"/>
<path d="M366.43 24.0377C369.54 24.1577 373.2 23.6376 376.33 23.7676C369.54 24.1476 365.61 21.0377 366.43 24.0377Z" fill="#736343"/>
<path d="M628.028 162.658C664.908 147.788 748.798 98.3576 794.688 70.7376C808.848 62.2176 826.928 71.9976 827.598 88.5076L828.908 120.638L837.829 340.317C838.519 357.317 820.309 368.487 805.469 360.167L627.728 260.508C621.138 256.818 616.938 249.968 616.638 242.428L614.259 183.797C613.879 174.537 619.438 166.138 628.028 162.678V162.658Z" fill="#604E29"/>
<path d="M623.001 154.009C624.701 153.419 623.471 152.099 623.601 151.699C620.841 153.339 623.281 154.379 623.001 154.009Z" fill="#736343"/>
<path d="M608.75 177.297L608.18 176.688C608.29 177.397 608.479 178.098 608.659 178.778C608.829 179.458 609.05 180.118 609.29 180.768C609.01 179.648 608.88 178.487 608.75 177.297Z" fill="#736343"/>
<path d="M608.729 197.99C611.569 196.05 607.979 191.04 608.869 187.56L609.51 186.97L607.1 185.52C607.64 189.67 609.42 195.02 608.72 197.99H608.729Z" fill="#736343"/>
<path d="M602.85 208.508C603.96 207.828 603.919 210.688 603.109 206.098C602.999 206.338 602.93 206.407 602.84 206.547C602.87 206.957 602.89 207.538 602.85 208.508Z" fill="#736343"/>
<path d="M602.831 206.548C602.671 204.528 601.931 207.908 602.831 206.548Z" fill="#736343"/>
<path d="M603.859 215.878L602.739 213.248C602.089 213.828 602.04 216.218 601.52 215.348C602.19 218.068 602.829 217.478 603.869 215.868L603.859 215.878Z" fill="#736343"/>
<path d="M606.091 218.329L605.61 216.959C605.34 217.209 605.261 217.579 606.091 218.329Z" fill="#736343"/>
<path d="M604.59 214.059L605.609 216.958C606.069 216.548 607.009 216.468 605.229 215.628C606.099 215.828 605.25 215.288 604.59 214.068V214.059Z" fill="#736343"/>
<path d="M604.959 212.378C605.529 210.858 605.848 208.908 606.968 211.538C606.358 206.448 604.339 207.278 604.959 212.378Z" fill="#736343"/>
<path d="M611.791 198.849L612.561 196.809L611.511 195.119C612.031 195.969 610.881 199.009 611.791 198.849Z" fill="#736343"/>
<path d="M603.029 232.569C603.659 232.709 604.65 231.61 605.43 231.37L604.64 229.43C604.26 230.46 603.939 232.399 603.029 232.569Z" fill="#736343"/>
<path d="M605.43 231.378L606.609 234.288C606.629 231.648 606.1 231.188 605.43 231.378Z" fill="#736343"/>
<path d="M609.35 218.668L606.92 213.908L609.42 219.598L609.35 218.668Z" fill="#736343"/>
<path d="M603.471 244.388L602.66 243.078C602.4 242.738 602.16 242.518 601.9 242.238L602.471 242.958L603.091 244.118C603.501 244.898 603.951 245.648 604.421 246.378C604.081 245.728 603.741 245.068 603.461 244.388H603.471Z" fill="#736343"/>
<path d="M606.7 255.889C605.77 255.219 605.55 256.039 605.45 256.859C605.35 257.669 605.31 258.479 604.49 257.629C606.2 260.719 608.76 262.629 611.07 263.999C608.97 262.249 607.35 259.629 606.7 255.889Z" fill="#736343"/>
<path d="M614.891 266.148C613.761 265.448 612.451 264.818 611.061 263.988C612.181 264.918 613.441 265.678 614.891 266.148Z" fill="#736343"/>
<path d="M606.51 239.318C606.14 239.558 605.18 240.038 604.83 241.708L606.529 240.479C606.529 240.129 606.52 239.718 606.51 239.318Z" fill="#736343"/>
<path d="M606.591 240.438L606.541 240.478C606.541 241.778 606.551 242.677 606.551 243.067C606.541 242.777 606.551 242.568 606.551 242.138C606.551 241.718 606.571 241.168 606.591 240.438Z" fill="#736343"/>
<path d="M606.51 239.029C606.51 239.139 606.51 239.219 606.51 239.319C606.68 239.199 606.73 239.129 606.51 239.029Z" fill="#736343"/>
<path d="M608.09 226.469C609.14 228.159 610.33 231.739 611.67 228.179C610.42 226.989 609.66 229.019 608.09 226.469Z" fill="#736343"/>
<path d="M608.63 237.5L608.899 234.35C608.439 234.43 607.79 235.02 607.27 234.18L608.619 237.5H608.63Z" fill="#736343"/>
<path d="M609.25 239.008L608.63 237.498L608.529 238.668L609.25 239.008Z" fill="#736343"/>
<path d="M610.97 258.788C612.67 260.088 614.021 261.728 615.801 263.398C614.241 261.298 612.81 259.079 611.56 256.909C610.93 256.879 609.45 256.358 610.97 258.788Z" fill="#736343"/>
<path d="M607.51 249.588C607.58 249.708 607.65 249.878 607.72 249.988C607.79 249.688 607.78 249.468 607.51 249.588Z" fill="#736343"/>
<path d="M631.859 273.939C631.829 273.809 631.819 273.669 631.779 273.529C631.709 273.609 631.65 273.689 631.58 273.759L631.859 273.929V273.939Z" fill="#736343"/>
<path d="M611.631 256.378C611.011 254.558 610.211 253.729 609.291 252.889C609.991 254.169 610.721 255.509 611.551 256.909C611.841 256.919 612 256.868 611.62 256.378H611.631Z" fill="#736343"/>
<path d="M621.02 269.829C620.29 268.969 619.48 268.029 618.67 267.049C619.11 268.119 620.44 270.039 621.02 269.829Z" fill="#736343"/>
<path d="M607.438 250.768C607.388 250.678 607.328 250.598 607.278 250.498C607.098 251.238 607.248 251.108 607.438 250.768Z" fill="#736343"/>
<path d="M607.439 250.768C607.989 251.678 608.65 252.298 609.3 252.888C608.75 251.838 608.219 250.858 607.729 249.988C607.679 250.258 607.559 250.548 607.439 250.768Z" fill="#736343"/>
<path d="M641.699 266.608C640.699 267.908 636.88 267.479 635.06 264.469C631.84 264.059 630.95 269.658 631.79 273.538C632.22 272.968 632.54 272.398 635.71 273.078C635.2 271.778 630.72 267.909 633.72 267.909C637.71 269.189 636.369 270.049 637.699 271.779C637.209 269.189 643.689 271.778 644.359 268.748L640.71 267.898C640.88 267.458 642.38 267.458 641.71 266.598L641.699 266.608Z" fill="#736343"/>
<path d="M626.71 270.499L625.5 270.049C626.63 271.009 627.22 272.079 628.27 274.119C630.51 274.469 631.19 274.159 631.58 273.759L626.21 270.489H626.71V270.499Z" fill="#736343"/>
<path d="M619.528 266.369C620.638 266.099 622.129 266.399 623.219 266.279C624.309 266.189 624.919 265.768 624.419 264.358C622.439 263.198 621.608 262.929 620.858 262.909C620.108 262.889 619.499 263.049 618.139 262.309C619.679 263.619 620.369 264.119 620.509 264.349C620.649 264.569 620.269 264.488 619.799 264.378C619.319 264.278 618.768 264.139 618.568 264.309C618.368 264.499 618.529 265.008 619.599 266.168C618.079 265.368 616.849 264.409 615.799 263.409C616.729 264.699 617.719 265.899 618.669 267.059C618.629 266.979 618.599 266.919 618.579 266.849L618.539 266.829C618.539 266.829 618.559 266.829 618.559 266.809C618.389 266.399 618.379 266.219 618.639 266.579C618.679 266.579 618.769 266.638 618.809 266.668C619.009 266.508 619.268 266.449 619.528 266.389C621.368 268.139 619.569 267.028 618.809 266.668C618.729 266.718 618.629 266.739 618.559 266.809C618.559 266.819 618.558 266.839 618.568 266.849C619.838 267.649 621.159 268.329 622.509 268.929C622.879 269.109 623.099 269.179 623.339 269.269L624.059 269.529L625.499 270.059C624.999 269.639 624.399 269.238 623.589 268.798C623.069 268.508 622.489 268.189 621.849 267.829C621.139 267.429 620.378 266.938 619.528 266.378V266.369Z" fill="#736343"/>
<path d="M615.58 231.248C615.43 231.438 615.31 231.438 615.18 231.458C615.41 231.838 615.56 231.978 615.58 231.248Z" fill="#736343"/>
<path d="M614.618 233.778C614.358 233.348 613.639 233.008 613.759 231.578C614.239 230.318 614.599 231.548 615.179 231.458C614.679 230.618 613.799 228.498 613.049 231.228L613.309 231.648C612.799 234.108 610.739 237.318 610.479 236.908C612.029 236.138 613.139 235.458 614.629 233.778H614.618Z" fill="#736343"/>
<path d="M612.639 249.18C613.509 251.08 614.589 252.85 615.839 254.45C615.759 253.32 615.789 252.189 615.879 251.109L615.099 251.609C614.599 250.009 614.288 249.44 613.858 249.26C613.448 249.08 613.038 249.29 612.648 249.18H612.639Z" fill="#736343"/>
<path d="M631.93 274.988L630.439 276.278L634.26 275.418L631.93 274.988Z" fill="#736343"/>
<path d="M637.75 277.998L636.75 279.288L638.729 279.278L637.75 277.998Z" fill="#736343"/>
<path d="M822.581 203.979L822.061 202.52C822.231 203.21 822.401 203.659 822.581 203.979Z" fill="#736343"/>
<path d="M822.9 214.689L823.711 214.919C823.251 214.439 822.92 214.249 822.9 214.689Z" fill="#736343"/>
<path d="M778.1 356.479C779.24 358.849 780.199 362.068 780.859 360.358L781.149 358.489C779.679 358.029 778.77 357.289 778.1 356.479Z" fill="#736343"/>
<path d="M835.869 302.059C835.699 302.269 835.529 302.488 835.359 302.708C835.989 303.208 836.579 303.679 837.109 304.099C836.719 303.489 836.309 302.789 835.869 302.059Z" fill="#736343"/>
<path d="M828.471 300.839L829.501 297.949C829.131 298.599 828.781 299.529 828.471 300.839Z" fill="#736343"/>
<path d="M818.319 145.568L816.449 143.918C816.569 146.618 817.429 145.388 818.319 145.568Z" fill="#736343"/>
<path d="M696.561 310.219C697.841 311.729 698.991 312.708 700.091 313.418C698.631 311.438 697.801 309.219 696.561 310.219Z" fill="#736343"/>
<path d="M841.55 207.428C841.19 206.538 840.82 206.168 840.42 206.208C840.76 207.128 841.12 207.638 841.55 207.428Z" fill="#736343"/>
<path d="M704.779 316.049C704.579 315.729 704.34 315.499 704.13 315.209C702.8 314.799 701.49 314.34 700.09 313.43C701.16 314.9 702.589 316.239 704.779 316.049Z" fill="#736343"/>
<path d="M704.05 135.279C703.88 135.279 703.689 135.339 703.529 135.329C703.609 135.559 703.8 135.469 704.05 135.279Z" fill="#736343"/>
<path d="M641.068 148.298C641.558 147.938 642.439 147.498 643.259 147.078C642.799 147.168 642.128 147.508 641.068 148.298Z" fill="#736343"/>
<path d="M660.349 291.557C660.059 291.617 659.079 290.977 660.349 291.557Z" fill="#736343"/>
<path d="M657.889 282.138C658.249 282.108 658.569 281.998 658.799 281.658C658.489 281.978 658.189 282.118 657.889 282.138Z" fill="#736343"/>
<path d="M722.239 313.187C722.239 313.187 722.299 313.227 722.339 313.247C722.149 312.747 722.179 312.837 722.239 313.187Z" fill="#736343"/>
<path d="M658.92 289.828C659.27 290.278 659.7 290.728 660.21 291.158C660.03 290.898 659.64 290.488 658.92 289.828Z" fill="#736343"/>
<path d="M658.76 290.699C658.38 290.399 658.07 290.169 657.79 289.959C657.49 290.129 657.54 290.369 658.76 290.699Z" fill="#736343"/>
<path d="M662.091 292.418C661.381 292.058 660.781 291.618 660.221 291.158C660.401 291.398 660.45 291.538 660.36 291.558C660.73 291.728 661.251 291.978 662.091 292.418Z" fill="#736343"/>
<path d="M799.579 74.2593C799.489 74.2193 799.408 74.2392 799.308 74.1992C798.678 75.3692 799.039 75.0293 799.579 74.2593Z" fill="#736343"/>
<path d="M815.699 354.688C815.699 354.688 815.64 354.748 815.6 354.768C815.64 354.788 815.69 354.817 815.72 354.837L815.699 354.688Z" fill="#736343"/>
<path d="M818.479 353.139C818.389 353.449 818.288 353.718 818.188 353.958C818.078 354.168 817.968 354.349 817.858 354.489C817.628 354.789 817.388 354.968 817.158 355.068C816.688 355.318 816.219 355.089 815.729 354.829C816.019 356.529 816.449 358.308 817.009 359.958C817.419 358.808 817.749 357.668 817.999 356.548C818.119 355.988 818.229 355.428 818.309 354.878C818.389 354.308 818.449 353.709 818.479 353.139Z" fill="#736343"/>
<path d="M821.02 178.358L819.57 181.918C816.78 177.798 817.559 174.708 815.449 178.088C821.019 178.358 816.57 191.669 822.13 191.929L821.06 194.279C821.09 193.619 820.76 193.519 820.79 192.869C818.32 197.459 824.94 196.039 824.38 201.849C824.04 203.879 823.29 205.319 822.58 203.969L824.13 208.398C824.08 209.708 823.1 209.428 823.15 208.128L823.869 214.958L823.699 214.918C824.609 215.858 826.039 218.019 826.659 219.079C825.939 220.849 826.04 218.229 825.36 218.699L826.86 222.438C825.49 224.038 823.96 220.959 824.06 218.329C818.67 222.099 825.579 221.418 822.659 229.188L821.81 225.639C818.76 228.079 820.01 230.819 818.21 234.949C819.2 233.949 822.819 226.648 824.369 230.708C823.999 231.888 823.86 233.419 825.07 235.599C823.1 235.699 823.67 237.849 823.89 240.559L821.27 240.478C822.14 243.378 823.46 243.098 824.71 244.768C824.59 248.048 822.59 248.808 820.92 249.648C820.72 254.898 824.02 245.899 824.76 252.079C823.94 256.469 825.13 259.488 826.9 264.628C826.12 267.708 825.28 264.159 824.58 265.289L826.77 267.909C826.75 268.569 826.1 268.389 825.77 268.289C826.67 270.529 828.389 268.368 829.239 271.918C832.159 272.768 825.329 279.428 828.779 283.728C828.079 284.848 827.159 283.269 826.159 283.639C828.549 289.629 827.93 288.778 831.02 293.648L829.48 297.969C831.31 294.769 833.8 298.659 835.85 302.079C836.75 300.929 837.539 299.948 837.909 299.298L839.54 304.818C839.14 305.508 838.22 304.989 837.09 304.119C837.32 304.489 837.55 304.839 837.76 305.119C836.88 307.149 835.33 306.179 833.81 304.809C834.3 304.109 834.82 303.409 835.34 302.739C833.7 301.429 831.889 300.209 830.369 300.559C830.689 300.909 830.97 301.598 831.15 302.358C830.7 302.018 830.31 301.798 830.06 301.978C829.79 302.178 830.39 302.739 831.1 303.619L828.239 305.009L829.409 305.268L827.88 312.639C831.02 317.739 835.52 322.098 837.06 330.338C834.84 328.368 833.55 330.039 831.02 330.029C833.61 327.659 829.619 323.659 829.989 319.349C829.799 321.599 828.57 321.158 828.13 320.608L830.88 328.168C828.8 328.078 829.389 329.859 828.619 331.889C832.649 330.209 831.58 337.488 832.96 340.548C831.6 340.798 830.16 340.108 830.34 336.298C829.61 337.378 829.56 338.248 829.86 338.998C830.01 339.378 830.24 339.728 830.52 340.068C830.66 340.238 830.81 340.398 830.97 340.568C831.12 340.718 831.27 340.809 831.42 340.929C832.03 341.399 832.66 341.928 832.97 342.548C833.05 342.708 833.11 342.869 833.14 343.029C833.14 343.189 833.13 343.348 833.08 343.518C832.98 343.848 832.749 344.198 832.369 344.518C832.449 343.818 832.73 343.458 832.09 343.108C832.54 343.958 832.44 345.458 831.79 346.398C831.29 347.398 830.39 347.779 830.05 347.159C830.13 346.959 830.24 346.779 830.27 346.559C829.31 348.459 827.65 351.148 825.63 353.268C825.1 353.748 824.65 354.328 824.18 354.818C823.69 355.278 823.26 355.759 822.9 356.259C822.12 357.109 821.61 358.038 821.68 358.938C821.59 358.738 821.43 357.669 821.26 356.579C821.09 355.489 820.9 354.368 820.88 353.998C820.12 358.458 817.249 363.088 812.409 366.318C813.159 364.928 812.749 362.308 813.029 359.958C813.149 358.778 813.4 357.669 813.81 356.779C814.23 355.889 814.79 355.259 815.59 354.809C815.37 354.699 815.14 354.588 814.89 354.498C814.64 354.378 814.39 354.238 814.09 354.168C813.8 354.088 813.46 354.078 813.07 354.108C812.69 354.068 812.24 354.108 811.69 354.208C811.91 354.498 811.98 355.648 811.94 356.748C811.89 357.848 811.68 358.868 811.09 358.818C810.57 357.778 810.29 357.168 810.07 356.688C809.87 356.178 809.71 355.879 809.54 355.579C809.37 355.289 809.17 354.998 808.93 354.548C808.84 354.358 808.62 354.019 808.36 353.599C808.11 353.189 807.819 352.698 807.489 352.108C808.489 353.398 804.74 356.668 802.75 355.378C803.42 354.948 804.84 351.248 805.83 351.248L798.43 352.369C800.12 352.369 800.56 349.098 800.04 347.318C800.13 348.408 795.629 344.748 794.029 344.378L795.69 346.529C790.21 342.659 786.78 348.948 781.13 345.498C782.29 345.058 785.71 341.369 783.06 339.219C780.56 340.519 771.57 345.759 765.58 344.469L765.26 342.748L760.59 341.889C764.76 340.169 775.249 337.498 780.409 337.068C778.749 334.918 780.58 335.349 777.26 333.619C776.73 331.869 779.97 332.948 780.97 333.418L773.779 328.449C772.769 331.039 766.63 327.599 765.8 329.759L775.43 331.898C774.42 334.478 766.85 336.028 761.71 332.588C760.88 330.868 765.12 328.899 765.46 328.039C764.3 328.469 759.47 326.749 759.31 325.889H762.31C759.82 323.309 755.64 326.328 753.33 322.018C752.17 321.168 751.35 316.858 750.34 318.148C750.83 322.018 746.48 330.698 743.98 331.998C743.65 331.568 738.93 325.729 738.27 323.579C737.43 320.289 744.2 320.189 743.5 317.369C743.06 317.979 741.48 318.158 740.86 318.148C739.87 316.858 742.54 316.418 739.54 315.128C737.7 317.288 733.89 311.689 737.05 316.429C733.89 315.569 734.38 314.279 731.07 312.559C731.23 314.709 725.149 316.268 721.989 315.398C722.499 314.868 722.33 313.719 722.23 313.179C716.67 309.779 714.24 306.959 708.96 303.969C708.8 303.109 706.65 300.959 708.32 300.529C707.32 300.529 706.159 300.958 704.489 300.108C702.509 296.238 708.32 301.829 707.32 297.949C706.32 299.249 702 297.528 699.18 297.108C698.67 299.688 704.32 300.539 707.15 300.969C705.47 303.979 699.65 304.858 693.33 303.148C688.51 301.428 692.51 300.139 691.51 300.139C683.54 294.979 681.52 301.439 675.88 295.429C674.23 291.989 677.9 291.549 678.07 289.829C682.06 291.109 682.89 294.128 685.36 295.418L682.88 292.838C684.38 292.838 687.039 293.699 688.029 294.989C686.709 291.989 674.25 286.829 668.77 281.659C667.28 281.659 664.95 281.239 665.44 282.529L667.61 283.389C668.6 285.979 662.61 283.388 664.76 285.548C661.44 285.118 657.45 285.118 654.13 282.108L654.64 279.518C654.36 280.198 656.4 282.218 657.84 282.148C655.71 282.228 653.66 275.918 650.31 277.798L652.13 280.809C648.8 280.379 644.14 280.819 641.15 278.239C641.48 281.259 642.07 278.428 643.05 282.298C642.73 277.988 651.609 287.279 650.119 282.099C650.939 286.409 653.68 285.729 655.5 290.039C655.8 289.259 655.13 288.019 657.77 289.969C658.02 289.829 658.47 289.729 658.75 289.679C658.83 289.749 658.849 289.778 658.909 289.838C658.869 289.778 658.84 289.728 658.8 289.668C658.98 289.628 659.01 289.608 658.76 289.608C658.26 288.918 657.93 288.229 657.93 287.699C660.27 286.829 664.74 289.409 666.75 289.409C668.24 290.699 665.58 289.838 666.07 291.128H669.07C668.4 292.848 672.05 296.289 667.56 295.009L671.09 297.079C672.69 299.159 675.369 301.128 677.529 301.458C679.019 302.748 682.77 302.068 680.6 302.498L686.75 304.639L686.58 305.068C691.99 308.368 699.429 308.789 704.119 315.219C706.199 315.859 708.4 316.439 711.26 318.639L711.09 320.369C713.75 321.219 717.48 325.768 719.31 324.898C719.79 330.068 730.43 332.209 734.26 335.219L735.43 333.498C738.26 335.218 741.32 336.258 745.31 337.548L745.989 335.829C749.819 336.249 753.299 341.418 758.279 343.998C757.599 344.418 756.449 343.568 755.779 342.708C759.599 349.588 769.57 346.988 773.4 352.588C775.05 352.748 775.89 353.478 776.59 354.398C776.47 354.328 776.34 354.298 776.22 354.298C776.34 354.398 776.54 354.509 776.75 354.619C777.18 355.219 777.6 355.878 778.11 356.498C777.77 355.798 777.43 355.189 777.05 354.779C778.09 355.319 779.74 355.979 781.48 356.429L781.159 358.509C781.299 358.559 781.39 358.619 781.54 358.659C782.67 360.129 783.189 358.519 783.119 356.779C784.039 356.929 784.929 356.979 785.699 356.869C785.349 360.319 790.19 358.159 790.18 362.039C792.01 361.169 798.4 365.219 800.9 362.639C800.73 363.059 801.069 363.498 800.239 363.068C800.989 363.718 801.73 364.359 802.54 364.849C802.72 364.969 802.99 365.089 803.26 365.199C803.53 365.309 803.8 365.409 804.08 365.489C804.63 365.649 805.2 365.739 805.77 365.739C805.75 366.639 805.74 367.588 805.79 368.478C807.99 367.998 809.97 367.538 811.83 366.628C812.52 367.128 813.139 367.589 813.619 367.969C814.109 368.319 814.459 368.638 814.619 368.978C814.769 369.308 814.73 369.648 814.42 370.018C814.11 370.358 813.52 370.838 812.59 371.148C813.14 371.068 813.64 370.919 814.11 370.779C814.57 370.649 814.99 370.528 815.38 370.418C816.15 370.188 816.79 370.049 817.33 369.869C818.42 369.479 819.17 369.259 819.88 369.039C820.59 368.849 821.25 368.559 822.07 368.059C822.89 367.559 823.919 366.929 825.119 365.639L825.38 367.268C825.93 367.048 826.52 366.669 827.09 366.239C827.66 365.789 828.179 365.208 828.699 364.728C829.209 364.218 829.73 363.839 830.18 363.489C830.64 363.159 831.09 362.978 831.57 363.048C832.31 362.978 833.26 362.748 834.21 362.148C835.17 361.558 836.32 360.848 837.34 359.748C837.87 359.218 838.42 358.648 838.96 358.018C839.45 357.348 839.95 356.649 840.44 355.909C840.97 355.189 841.37 354.348 841.79 353.498C842.19 352.638 842.679 351.788 842.949 350.838C843.259 349.898 843.579 348.949 843.869 347.969C844.059 346.969 844.24 345.968 844.43 344.958L844.56 344.199C844.59 343.949 844.599 343.689 844.619 343.429L844.71 341.889L844.8 340.349C844.82 340.069 844.82 339.888 844.82 339.688V339.099C844.91 335.969 845.15 332.909 845.76 330.199C841.09 332.469 847.69 325.129 843.98 324.849C845.08 324.179 845.649 322.658 846.699 324.358C845.369 318.928 848.15 316.059 844.89 312.409C846 311.739 846.59 313.509 847.23 312.929C846.97 312.499 846.18 311.228 846.83 310.628C847.48 310.048 847.81 311.389 848.33 312.239C847.91 306.649 844.42 306.229 841.15 305.949C842.58 303.049 842.3 301.648 840.08 299.688C841.1 298.658 842.15 296.969 842.68 300.429C842.76 298.469 843.76 288.419 841.14 288.329C841.78 287.689 841.22 285.588 840.9 285.088C840.88 280.698 841.1 280.298 840.67 275.998L840.29 277.208C837.07 275.638 839.44 273.659 838.92 270.199L839.25 270.289C841.2 262.229 838.02 266.899 840.29 258.929L838.35 259.438C834.11 258.878 840.55 252.378 838.76 247.878L837.71 249.568C836.17 247.138 843.16 242.379 843.58 239.849C843.92 239.289 844.2 240.688 844.51 241.438C846.73 234.788 841.91 240.698 841.11 235.838C842.46 234.878 844.68 236.859 844.8 233.559C845.85 231.879 839.92 224.218 842.39 219.628C841.36 220.658 840.339 221.679 839.449 219.449C838.929 215.989 843.1 209.889 839.61 206.889C839.88 206.439 840.16 206.258 840.42 206.228C839.44 203.608 838.629 197.658 836.739 196.128C843.409 193.398 832.78 179.759 839.02 179.559L838.35 171.409L839 171.599C839.2 166.359 837.63 164.578 836.06 162.798C836.44 161.578 837.05 162.428 837.38 162.518C838.33 154.838 838.029 154.088 834.659 147.818L836.659 147.068C835.409 145.378 839.39 135.909 836.72 128.529C836.95 128.589 837.349 128.728 837.659 129.318C834.939 120.998 842.46 108.938 834.96 106.148L832.92 100.668C832.64 107.878 829.68 99.7287 828.57 102.739C828.02 99.9287 830.5 95.3383 831.02 98.7983L830.67 99.3583C834.56 100.478 831.67 90.3684 834.29 90.4584L834.23 89.1386C834.21 88.6886 834.21 88.3084 834.14 87.6884C834.03 86.5584 833.93 85.4185 833.79 84.2885C833.54 83.1685 833.29 82.0486 833.04 80.9286C832.73 79.8286 832.3 78.7486 831.92 77.6586C830.18 73.3786 827.45 69.5084 823.98 66.4584C820.52 63.3984 816.33 61.1487 811.8 59.9887C807.28 58.8287 802.41 58.7987 797.88 59.9887C798.84 60.7887 799.74 61.6187 800.57 62.4687C798.62 62.7287 796.769 63.3887 794.909 64.0287C794.089 64.0487 793.36 63.7687 793.33 63.2387C793.3 62.7187 793.98 61.8587 796.18 61.1987C795.48 60.9987 794.68 61.1487 793.92 61.5087C793.2 61.9287 792.52 62.5584 791.96 63.2084C790.72 64.5584 790.569 65.7986 790.659 66.1186C784.509 68.3986 791.02 61.8385 789.29 62.7885L787.1 64.3583H787.8C786.56 66.5083 787.06 67.7186 783.59 69.6386C781.13 70.4186 781.54 68.7184 780.64 69.1284C780.54 68.9484 780.2 69.0286 779.3 69.8286L774.18 72.5883L777.39 73.4184C775.77 75.7384 772.63 76.1185 776.3 77.0385C770.81 75.5285 756.88 86.8484 754.14 86.9584C751.9 90.2784 748.81 92.0486 744.89 94.0986C746.09 93.9686 747.99 95.9283 744.54 97.5683C742.98 92.1383 737.32 99.0386 732.67 97.1586C736.36 98.0386 723.63 103.138 729.22 104.188C726.24 105.388 728.03 102.508 725.29 102.588C719.8 108.198 710.16 109.678 702.39 114.878C702.62 115.578 704.52 115.769 703.3 117.679L697.239 116.949C695.809 118.159 697.78 121.399 693.63 120.869C694.34 121.169 695.4 121.618 694.43 122.418C690.01 123.878 685.84 125.868 681.77 128.108C677.69 130.318 673.709 132.778 669.659 135.128C661.559 139.778 653.169 144.138 643.489 145.168C646.329 145.328 644.91 146.179 643.22 147.059C644.47 146.819 643.97 148.668 644.61 149.438C641.91 149.788 639.2 150.049 636.51 150.289C636.45 151.809 634.6 152.719 632.82 153.579C631.03 154.379 629.309 155.129 629.449 156.469L631.48 155.099C630.62 157.129 632.309 158.249 634.409 159.309C636.519 160.379 638.99 161.298 639.58 163.188C640.55 160.828 643.299 160.969 646.279 160.789C649.219 160.569 652.37 160.039 654.01 156.469C655.57 156.589 653.54 158.099 654.59 158.599C655.24 156.419 656.74 155.269 660.15 154.369L659.989 154.918C664.219 152.538 667.44 151.228 670.85 149.978C674.27 148.738 677.93 147.609 682.97 145.489L681.34 144.168C683.52 143.288 684.24 143.588 685.43 143.498C686.39 139.648 679.58 146.468 680.19 142.458C682.48 143.448 686.12 141.529 689.65 139.679C693.18 137.829 696.63 136.098 698.63 137.548C701.79 135.838 696.619 136.099 699.779 134.389L701.199 134.978L701.23 133.168C703.4 132.248 705.18 132.988 705.76 133.838C705.2 134.008 704.479 134.879 703.989 135.259C707.349 135.009 711.26 130.628 712.4 130.518L709.029 131.548C717.009 125.778 728.159 121.228 735.119 114.378L734.04 113.949C739.43 108.879 739.539 111.919 745.989 107.279L745.85 107.608C746.76 106.028 748.35 104.559 750.27 103.559C749.09 105.489 754.56 103.458 752.9 105.798C758.73 100.288 755.52 102.619 758.25 97.0786L760.04 97.7787C760.86 95.7087 760.62 95.0084 763.82 92.6684C761.69 95.4284 767.159 93.3787 764.909 96.6987C773.739 95.3387 773.79 87.5487 779.54 89.7787C780.67 84.2287 772.18 91.4386 773.56 89.5786C771.33 89.3086 774.66 85.2783 777.11 84.3183C779.43 83.0483 783.72 86.6186 789.4 83.1386C788.82 83.4586 788.949 83.7586 788.369 84.0786C791.059 83.7186 791.81 80.3287 795.33 80.2387C795.48 77.1987 798.83 78.2983 797.54 75.3183L792.71 79.0786C793.98 77.8286 794.82 75.9687 796.07 74.2587C796.4 73.7987 796.68 73.4584 797.01 73.1284C797.34 72.7984 797.72 72.4784 798.14 72.1884C798.55 71.8684 799.079 71.7684 799.619 71.6284C799.889 71.5684 800.18 71.5285 800.47 71.4985C800.76 71.4585 801.07 71.4587 801.39 71.5287C801.34 71.7087 801.23 71.8986 801.09 72.1186C800.95 72.3586 800.79 72.6186 800.61 72.8686C800.25 73.3786 799.849 73.8685 799.529 74.2285C800.309 74.4685 800.78 74.1387 801.31 73.7787C801.83 73.4287 802.44 73.2283 803.14 73.5483C803.22 75.2083 802.1 75.5186 800.76 76.1586C800.41 76.2586 800.079 76.4784 799.739 76.6884C799.409 76.8984 799.07 77.1186 798.77 77.3486C798.71 77.3886 798.59 77.4883 798.48 77.5883L798.15 77.8784C797.94 78.0784 797.73 78.2885 797.54 78.4985C797.16 78.9285 796.84 79.3886 796.6 79.8886C797.16 79.9486 797.74 79.6286 798.3 79.1786C798.58 78.9486 798.849 78.6886 799.119 78.4286C799.359 78.1886 799.44 78.0686 799.6 77.8886C800.18 77.2486 800.59 76.9483 800.86 78.7983C800.78 78.2183 800.79 77.7183 800.88 77.3583C800.98 77.0183 801.14 76.7786 801.34 76.5986C801.75 76.2386 802.29 76.0884 802.89 76.1684C803.48 76.1984 804.079 76.1686 804.699 76.1186C805.009 76.0586 805.32 75.9287 805.65 75.6987C805.98 75.5087 806.339 75.2586 806.739 74.8486L806.44 76.7787C806.65 76.6387 806.99 76.3486 807.4 76.0986C807.8 75.9286 808.28 75.7986 808.68 75.8886C808.01 76.6486 807.43 77.3186 806.94 78.1386C807.46 77.6286 807.979 77.6487 808.449 77.7587C808.919 77.8987 809.279 78.3787 809.619 78.7587C810.289 79.6587 810.64 80.6086 811.65 80.5986C811.25 80.3886 810.999 80.1284 810.779 79.9584C810.549 79.7984 810.42 79.6387 810.34 79.4687C810.19 79.1387 810.28 78.7984 810.46 78.4584C810.8 77.7684 811.599 77.0985 810.949 75.9985C811.739 76.0285 812.399 76.1386 812.909 76.3286C813.379 76.5886 813.71 76.8887 813.92 77.2187C814.03 77.3887 814.109 77.5485 814.159 77.7285C814.199 77.9285 814.22 78.1286 814.23 78.3286C814.23 78.7386 814.18 79.1483 814.11 79.5683C814.03 79.9883 813.97 80.3785 813.88 80.8085C813.79 81.2485 813.72 81.6683 813.73 82.0683C813.73 82.2683 813.76 82.4586 813.81 82.6386C813.83 82.8486 813.87 83.0587 813.94 83.2587C814.01 83.4587 814.12 83.6483 814.27 83.8383C814.39 84.0483 814.51 84.2785 814.71 84.4985C814.57 84.3985 814.499 84.1886 814.489 83.9086C814.489 83.6386 814.429 83.3585 814.489 83.0585C814.599 82.4785 814.909 81.8983 815.619 82.1083C815.689 82.3883 815.79 82.6685 815.82 82.9785C815.82 83.3085 815.82 83.6387 815.79 83.9487C815.78 84.5487 815.48 85.1783 815.11 85.6083C815.55 86.2483 815.7 86.5986 815.97 86.6586C816.22 86.7286 816.459 86.5487 816.699 86.2787C817.219 85.7587 817.659 84.8287 818.449 85.4687C817.439 86.4787 817.849 86.7587 818.529 87.2187C818.859 87.4487 819.3 87.6887 819.72 88.0087C820.14 88.3487 820.56 88.6384 820.77 89.4584L818.8 89.5585C817.85 97.2385 822.989 91.4183 821.739 98.3383L818.89 95.5483L819.739 99.0986L817.47 98.4487C819.29 102.279 818.91 103.509 818.44 107.349C819.79 106.409 822.04 107.699 822.23 111.079C821.15 113.429 820.309 109.869 820.779 114.639C819.499 113.609 817.91 112.489 819.64 110.329C818.99 110.139 818.36 109.309 817.72 109.119C816.48 111.659 817.67 115.369 817.75 117.099C817.8 116.429 817.87 115.628 818.13 115.208L821.14 122.039C820.44 123.159 819.819 122.319 819.199 121.489C819.469 122.889 820.42 123.818 820.67 125.878C819.05 125.408 817.399 125.608 816.529 122.708L818.58 129.248C817.9 129.718 816.81 132.719 816.18 131.889C815.39 135.589 819.65 140.758 818.61 145.668C818.93 145.908 819.25 146.399 819.52 147.429C819.34 152.009 817.54 156.139 819.96 161.469L817.21 164.659C818.03 168.869 820.659 160.349 822.029 167.369C823.149 172.329 819.66 169.339 818.93 171.119C820.48 173.549 823.599 177.748 821.449 182.438C820.849 180.938 821.219 179.728 820.949 178.318L821.02 178.358ZM824.42 230.599C823.97 229.599 822.609 227.629 823.739 226.849C826.039 227.909 825 228.849 824.42 230.599ZM832.39 309.918C831.71 309.188 831.98 308.008 832.68 306.668C832.88 307.618 832.85 308.698 832.39 309.918ZM674.409 297.599C674.459 297.599 674.5 297.588 674.55 297.568C676.15 299.348 675.599 298.689 674.409 297.599ZM670.73 294.559C670.18 294.559 670.079 294.819 670.119 295.159C670.649 294.889 671.59 295.369 672.57 296.079C672.53 295.469 672.179 294.859 670.739 294.559H670.73ZM780.6 69.9785L781.65 69.9487C780.17 71.4887 780.4 70.7585 780.6 69.9785Z" fill="#736343"/>
<path d="M829.33 301.008C829.65 300.708 830.02 300.618 830.38 300.528C830.03 300.148 829.65 300.148 829.33 301.008Z" fill="#736343"/>
<path d="M818.67 145.869C818.68 145.819 818.669 145.758 818.689 145.708C818.569 145.628 818.45 145.589 818.33 145.559L818.68 145.869H818.67Z" fill="#736343"/>
<path d="M742.381 315.568C743.081 316.288 743.381 316.869 743.511 317.369C743.791 316.969 743.611 316.398 742.381 315.568Z" fill="#736343"/>
<path d="M647.381 285.299L650.261 286.319C648.941 285.689 648.701 285.06 648.211 284.43C648.041 284.86 648.211 285.73 647.381 285.29V285.299Z" fill="#736343"/>
<path d="M630.561 261.879C630.061 261.879 629.73 261.449 629.24 261.449L628.9 262.309C630.56 263.169 632.07 263.169 630.57 261.879H630.561Z" fill="#736343"/>
<path d="M648.15 278.229C648.75 276.669 646.83 276.229 644.84 275.469C644.95 275.529 645.071 275.568 645.171 275.648C643.491 277.368 645.83 277.799 648.15 278.229Z" fill="#736343"/>
<path d="M644.389 275.28C643.789 275.03 643.19 274.739 642.67 274.359C642 275.049 643.259 274.92 644.389 275.28Z" fill="#736343"/>
<path d="M665.001 292.599C664.341 291.739 663.421 294.14 663.251 293.28C661.241 294.58 670.311 294.309 665.001 292.599Z" fill="#736343"/>
<path d="M649.341 272.619L648.99 274.779L650.831 273.919L649.341 272.619Z" fill="#736343"/>
<path d="M663.119 282.078L660.46 279.938C660.34 280.257 659.86 280.227 659.33 280.107C661.11 281.177 662.889 282.648 663.119 282.078Z" fill="#736343"/>
<path d="M659.329 280.099C658.409 279.539 657.489 279.068 656.799 279.068C657.319 279.338 658.449 279.889 659.329 280.099Z" fill="#736343"/>
<path d="M653.65 274.338L654.311 275.198L656.311 276.488L653.65 274.338Z" fill="#736343"/>
<path d="M694.509 300.129L698 301.419C698.67 300.989 697.999 300.129 696.679 299.699C695.669 299.699 694.349 299.269 694.509 300.129Z" fill="#736343"/>
<path d="M687.549 289.799C688.209 290.659 688.038 291.089 688.198 291.949L689.539 289.789H687.549V289.799Z" fill="#736343"/>
<path d="M697.189 294.528C697.849 294.088 702.829 295.378 698.689 293.238C698.019 293.668 694.529 292.378 697.189 294.528Z" fill="#736343"/>
<path d="M743.939 324.418L743.109 323.988L741.189 327.688L743.939 324.418Z" fill="#736343"/>
<path d="M791.391 339.608C788.081 336.608 789.231 341.338 786.411 338.328C785.041 338.688 788.721 340.788 787.391 341.018C790.191 341.398 791.111 342.588 791.391 339.608Z" fill="#736343"/>
<path d="M787.389 341.019C786.939 340.959 786.458 340.909 785.908 340.919C786.698 341.069 787.109 341.069 787.389 341.019Z" fill="#736343"/>
<path d="M631.06 150.479L628.26 150.729L630.399 151.338L631.06 150.479Z" fill="#736343"/>
<path d="M627.52 155.349L625.92 153.148L625.34 156.009C625.86 155.659 626.86 154.979 627.52 155.349Z" fill="#736343"/>
<path d="M819.4 238.598L820.051 238.788C820.721 238.328 820.751 237.668 820.801 236.348L819.4 238.598Z" fill="#736343"/>
<path d="M819.841 200.559L819.811 201.208L822.16 199.889L819.841 200.559Z" fill="#736343"/>
<path d="M815.489 168.818C815.439 170.118 816.039 171.628 815.989 172.938C815.439 170.118 818.459 168.348 815.489 168.818Z" fill="#736343"/>
</svg>
