<svg width="411" height="749" viewBox="0 0 411 749" fill="none" xmlns="http://www.w3.org/2000/svg">
<path fill-rule="evenodd" clip-rule="evenodd" d="M213.49 230.11C216.16 218.21 220.32 201.97 226.6 182.72C240.17 141.08 263.61 85.3595 303.07 29.0195C303.07 29.0195 265.94 161.87 211.93 247.81C209.37 256.34 206.949 264.91 204.689 273.52C202.059 283.53 199.63 293.6 197.39 303.71C196.27 308.76 195.209 313.81 194.189 318.88L194.13 319.2C200.85 311.2 209.559 299.7 216.689 290.07C222.259 278.8 233.35 257.85 249.6 233.83C273.93 197.86 309.85 155.01 356.17 127.46C356.17 127.46 273.73 246.41 218.64 293.82C209.99 305.47 199.35 319.38 192.67 326.66L192.64 326.82C191.31 333.81 190.07 340.81 188.92 347.83C187.71 355.24 186.6 362.66 185.58 370.1L185.479 370.84C184.249 379.96 183.16 389.1 182.22 398.25C181.21 408.02 180.369 417.81 179.689 427.61V427.74C197.819 415.71 211.97 401.99 222.26 390.18C228.14 377.53 241.06 351.76 261.11 322.18C289.55 280.2 332.34 230.57 389.71 199.93C389.71 199.93 302.89 323.59 224.87 392.98C213.96 405.46 198.84 419.98 179.38 432.49V432.55C179.07 437.33 178.8 442.11 178.57 446.9C178.33 451.84 178.13 456.79 177.97 461.74L177.95 462.42C177.81 466.83 177.7 471.25 177.63 475.67C177.47 484.84 177.45 494.01 177.55 503.18C177.69 515.33 178.059 527.47 178.649 539.6C178.919 545.05 179.23 550.51 179.59 555.96V556.02C191.04 542.16 202.79 526.03 212.25 512.49C217.12 500.57 227.339 478.37 245.149 451.48C272.039 410.9 316.25 359.63 385.49 316.93C385.49 316.93 275.8 458.62 213.17 517.8C203.2 531.96 191.059 548.43 179.479 562.09L179.979 561.6C180.199 564.62 180.42 567.64 180.67 570.65L180.72 571.23C181.83 584.88 183.21 598.52 184.88 612.11C185.92 620.56 187.06 629 188.32 637.43L188.36 637.72C197.36 630.17 206.71 620.12 214.82 610.59C219.71 600.04 230.559 578.74 249.229 552.51C276.099 514.75 319.14 466.76 383.84 425.84C383.84 425.84 304.15 540.64 218.25 612.39C209.36 622.88 198.91 634.12 189.02 642.09V642.11C189.31 643.95 189.59 645.78 189.89 647.62L189.96 648.07C190.48 651.31 191.02 654.55 191.57 657.79C193.32 668 195.23 678.18 197.32 688.32C198.43 693.71 199.6 699.09 200.82 704.45C201.92 709.26 203.06 714.06 204.26 718.85C205.1 722.2 205.96 725.54 206.86 728.87C207.33 730.63 207.82 732.38 208.31 734.14C208.62 735.24 208.94 736.35 209.27 737.45C209.37 737.78 209.47 738.11 209.57 738.44L209.689 738.86C209.719 738.99 209.74 739.12 209.74 739.25C209.74 739.49 209.71 739.73 209.62 739.95C209.55 740.14 209.45 740.32 209.32 740.48C209.22 740.61 209.1 740.72 208.97 740.82C208.57 741.11 208.07 741.25 207.58 741.18C207.4 741.16 207.22 741.1 207.05 741.03C206.84 740.94 206.65 740.8 206.49 740.64C206.31 740.46 206.17 740.25 206.08 740.02C206.04 739.93 206.02 739.84 205.99 739.75L205.74 738.91C205.44 737.91 205.15 736.91 204.87 735.91C203.9 732.5 202.97 729.07 202.08 725.64C200.94 721.26 199.85 716.87 198.8 712.46C197.02 704.98 195.35 697.47 193.79 689.93C191.69 679.8 189.77 669.62 188.01 659.42C187.45 656.18 186.91 652.94 186.39 649.7L186.33 649.32C177.54 643.46 167.96 635.64 159.36 628.07C117.34 609.18 80.9996 561.46 54.8496 517.68C27.6096 472.07 11.4395 430.74 11.4395 430.74C79.8895 490.05 146.53 599.52 161.52 624.92C169.15 631.64 177.57 638.58 185.51 644.15L185.45 643.73L185.09 641.39C183.79 632.86 182.6 624.32 181.52 615.76C179.7 601.26 178.19 586.72 177 572.16L176.979 571.9C166.949 561.64 157.51 549.57 149.72 538.67C107.65 500 80.9298 448.76 64.5898 406.42C47.4598 362.02 41.7598 327.43 41.7598 327.43C89.2598 389.49 139.459 504.95 152.649 536.24C159.529 545.9 167.74 556.49 176.5 565.9V565.74C176.38 564.26 176.27 562.79 176.17 561.31L176.13 560.72C175.72 554.88 175.36 549.04 175.06 543.2C174.37 529.99 173.94 516.77 173.78 503.55C173.67 494.34 173.69 485.13 173.85 475.93C173.93 471.5 174.03 467.06 174.17 462.63C164.45 447.12 153.14 425.22 144.99 408.79C118.29 366.48 100.68 317.15 89.5801 277.28C77.5501 234.07 73.1699 201.97 73.1699 201.97C110.11 267.95 140.1 374.64 149.12 408.57C156.31 423.04 165.78 441.34 174.41 455.74V455.4C174.58 451.34 174.769 447.27 174.979 443.21C175.179 439.33 175.41 435.46 175.66 431.58L175.71 430.87C176.39 420.57 177.24 410.28 178.27 400C179.25 390.2 180.41 380.41 181.72 370.65L181.76 370.37C170.85 343.05 160.65 304.77 158.32 295.81C137.16 245.08 128.73 198.28 125.68 163.29C122.37 125.31 125.42 101.26 125.42 101.26C145.86 155.08 159.11 263.99 162.91 298.31C166.04 310.08 174.02 339.03 182.85 362.62C184.62 350.36 186.69 337.97 189.08 325.49L189.12 325.3C189.75 322.01 190.4 318.72 191.07 315.43C192.4 308.92 193.81 302.43 195.3 295.96C199.42 278.06 204.17 260.31 209.55 242.75C210.85 238.53 212.18 234.31 213.55 230.11H213.49Z" fill="#739155"/>
<path d="M204.401 234.62C207.211 226.1 205.041 228.78 205.241 227.42C200.971 241.84 204.831 234.35 204.401 234.62Z" fill="#839E69"/>
<path d="M177.909 333.951C178.109 333.991 178.299 333.991 178.479 333.961C177.109 331.291 175.569 327.851 173.859 323.641C175.279 327.481 176.629 330.921 177.909 333.951Z" fill="#839E69"/>
<path d="M155.52 211.02C155.5 217.61 157.55 229.89 159.73 243.61C161.93 257.33 164.32 272.48 165.38 284.69V288.76L166.61 293.26L167.23 295.51L167.54 296.64L167.62 296.92L167.68 297.07L167.8 297.38C167.89 297.55 167.98 297.67 168.08 297.87L168.45 298.71C168.33 298.27 168.2 297.82 168.06 297.33C167.61 293.8 167.14 290.15 166.66 286.43C166.13 282.58 165.59 278.65 165.05 274.69C163.93 266.78 162.74 258.76 161.56 251.03C159.19 235.56 156.9 221.22 155.52 211.02Z" fill="#839E69"/>
<path d="M145.78 137.821C145.91 140.151 144.8 136.291 144.68 135.891C144.73 136.091 144.82 136.411 145.53 139.091C146.22 141.831 147.58 146.621 149.41 154.731C149.14 153.081 149.09 152.601 148.95 151.631C148.34 148.701 147.36 144.681 145.77 137.821H145.78Z" fill="#839E69"/>
<path d="M148.96 151.631C152.13 165.911 147.61 142.131 148.96 151.631Z" fill="#839E69"/>
<path d="M115.88 113.12C115.9 111 115.94 108.88 116.02 106.75L116.16 103.53L116.25 101.89L116.38 100.13L119.3 61.1101L133.83 98.05L136.39 104.56C136.1 103.24 135.3 100.6 134.43 97.8201L121.65 57L115.73 100.05C115.62 100.86 115.51 101.69 115.39 102.49C115.3 103.25 115.21 103.99 115.12 104.7C114.97 106.1 114.83 107.35 114.72 108.28C114.51 110.13 114.39 110.67 114.41 108.45C114.19 113.54 114.181 117.05 114.241 119.32C114.301 121.59 114.4 122.6 114.54 122.63C114.82 122.68 115.18 118.81 115.85 113.11L115.88 113.12Z" fill="#839E69"/>
<path d="M117.099 131.621C116.979 128.271 116.889 124.921 116.849 121.551C116.619 123.311 116.479 125.991 117.099 131.621Z" fill="#839E69"/>
<path d="M133.001 98.8496L132.841 98.4297L120.621 66.7695L117.461 100.27C117.361 101.33 117.311 102.16 117.251 103.09L117.111 105.76C117.021 107.53 116.971 109.29 116.921 111.05C116.831 114.57 116.831 118.06 116.851 121.56C117.281 118.74 117.921 118.5 116.971 111.72C117.241 112.6 117.271 112.02 117.261 110.1C117.261 109.14 117.241 107.85 117.261 106.24C117.261 105.43 117.28 104.54 117.31 103.57C117.34 102.57 117.381 101.59 117.471 100.28L119.94 67.1196L132.831 98.4497C132.881 98.5697 132.941 98.7096 133.001 98.8596V98.8496Z" fill="#839E69"/>
<path d="M136.699 110.51C137.389 113.15 138.129 115.99 138.769 118.46C139.079 119.7 139.369 120.84 139.619 121.83C139.829 122.82 139.999 123.65 140.099 124.25C140.309 125.45 140.259 125.75 139.799 124.58C139.569 124 139.249 123.05 138.779 121.67C138.299 120.29 137.659 118.49 136.849 116.19C137.539 118.4 138.179 120.46 138.779 122.35C139.319 124.25 139.819 126 140.279 127.59C141.199 130.77 141.979 133.33 142.579 135.3C143.709 139.24 144.289 140.77 144.309 140.06C144.319 139.71 144.199 138.8 143.929 137.35C143.789 136.63 143.619 135.77 143.429 134.78C143.189 133.79 142.929 132.67 142.629 131.43C142.019 128.93 141.249 125.93 140.319 122.42C139.329 118.93 138.079 114.95 136.699 110.5V110.51Z" fill="#839E69"/>
<path d="M152.199 204.45C152.799 209.18 153.309 213.92 153.869 218.66C154.769 222.69 155.589 226.73 156.449 230.77C155.229 224.71 152.769 203.46 152.199 204.46V204.45Z" fill="#839E69"/>
<path d="M127.519 233.339C128.249 234.409 127.179 226.699 127.419 225.169L125.629 218.24C125.029 215.93 124.509 213.599 123.949 211.279C124.249 213.099 124.609 215.319 124.989 217.649C125.409 219.969 125.849 222.399 126.249 224.639C127.079 229.099 127.739 232.789 127.519 233.349V233.339Z" fill="#839E69"/>
<path d="M127.42 225.169C129.3 232.059 131.26 238.909 133.45 245.699C132.8 243.409 132.25 241.329 131.78 239.469C131.29 237.619 130.85 235.979 130.47 234.529C129.72 231.629 129.18 229.509 128.74 228.019C127.87 225.029 127.55 224.519 127.43 225.169H127.42Z" fill="#839E69"/>
<path d="M119.519 135.031C119.159 129.341 118.91 123.641 118.83 117.911C118.8 115.051 118.78 112.181 118.83 109.291C118.85 107.851 118.889 106.401 118.939 104.951C118.999 103.471 119.05 102.091 119.18 100.471L121.229 74.3311L131.21 99.041L121.35 74.1211L119.17 100.481C119.01 102.401 118.94 104.051 118.87 105.821C118.8 107.561 118.759 109.281 118.729 111.001C118.669 114.441 118.69 117.881 118.75 121.301C118.87 128.151 119.21 134.971 119.72 141.771C119.64 139.531 119.56 137.281 119.53 135.031H119.519Z" fill="#839E69"/>
<path d="M152 310.02L149.91 304.34L148.88 301.49L148.37 300.06L148.11 299.34C148.05 299.17 148.06 299.23 148.04 299.21H148C148 299.21 148.03 299.17 148.07 299.26L148.29 299.9L148.729 301.18L149.62 303.73L151.41 308.81L155.07 318.92L152.01 310.01L152 310.02Z" fill="#839E69"/>
<path d="M168.178 361.52C166.268 357.42 166.948 360.45 167.648 363.42C168.398 366.39 169.159 369.29 167.249 364.87C167.899 366.56 168.518 368.22 169.188 369.85C169.358 370.26 169.518 370.66 169.688 371.06L169.938 371.66L169.999 371.81C169.999 371.81 170.049 371.81 170.079 371.83C170.099 371.83 170.108 371.89 170.138 371.83C170.148 371.81 170.168 371.73 170.178 371.76L170.098 372.711C169.998 373.971 169.898 375.21 169.808 376.44C169.638 378.89 169.468 381.28 169.308 383.62C169.028 388.29 168.758 392.731 168.508 396.991C168.878 392.721 169.308 388.341 169.848 383.741C170.128 381.441 170.428 379.08 170.728 376.64C170.888 375.42 171.058 374.18 171.228 372.92L171.359 371.971C171.379 371.851 171.359 371.92 171.369 371.9H171.378C171.398 371.9 171.429 371.75 171.449 371.68C171.449 371.61 171.429 371.551 171.419 371.481L171.398 371.37V371.32C171.398 371.32 171.398 371.32 171.338 371.15C170.988 370.14 170.608 369.1 170.258 368.05C169.568 365.95 168.839 363.77 168.159 361.52H168.178Z" fill="#839E69"/>
<path d="M167.9 415.45C168 412.61 168.101 409.72 168.201 406.74C168.241 405.17 168.281 403.58 168.331 401.95C168.371 400.33 168.401 398.67 168.521 396.99C168.361 398.57 168.29 400.15 168.23 401.73C168.17 403.31 168.111 404.88 168.051 406.45L167.931 411.17L167.891 413.53V414.71L167.871 415.3C167.871 415.37 167.89 415.4 167.9 415.45Z" fill="#839E69"/>
<path d="M144.379 280.41C144.539 281.23 144.739 282.45 145.379 284.88C145.709 286.1 146.139 287.62 146.749 289.54C147.399 291.45 148.219 293.76 149.269 296.58C148.619 293.81 147.939 291.06 147.329 288.29C146.429 285.89 145.409 283.17 144.379 280.41Z" fill="#839E69"/>
<path d="M147.27 288L147.34 288.29C148.15 290.42 148.96 292.37 149.66 294.15C150.02 295.04 150.35 295.89 150.68 296.69C150.84 297.09 150.999 297.48 151.149 297.86L151.22 298.05C151.25 298.11 151.27 298.18 151.28 298.25C152.02 301.08 152.56 303.16 152.89 304.41C152.6 303.29 152.11 301.4 151.36 298.51C151.34 298.42 151.31 298.33 151.29 298.23C151.28 298.16 151.259 298.09 151.229 298.03C151.119 297.76 151.009 297.48 150.899 297.19C150.569 296.37 150.22 295.49 149.85 294.53C149.11 292.63 148.22 290.47 147.29 288H147.27Z" fill="#839E69"/>
<path d="M143.66 278.42C143.91 279.16 144.1 279.7 144.38 280.41C144.21 279.61 144.08 279.14 143.66 278.42Z" fill="#839E69"/>
<path d="M123.059 190.711C123.689 193.781 124.519 197.671 125.339 201.401C126.199 205.111 127.029 208.661 127.739 211.031C128.429 213.401 128.889 214.611 128.949 213.681C129.029 212.741 128.579 209.681 127.769 203.441C126.539 199.121 126.419 200.521 126.049 200.731C125.679 200.931 125.039 199.941 123.059 190.721V190.711Z" fill="#839E69"/>
<path d="M141.74 268.051C140.63 264.451 139.44 260.871 138.42 257.241L136.84 251.811L135.36 246.351C135.15 246.871 135.79 250.941 133.76 245.061L135.63 250.851L137.6 256.611C138.89 260.461 140.339 264.251 141.729 268.051H141.74Z" fill="#839E69"/>
<path d="M145.77 278.371C144.43 274.931 143.03 271.511 141.74 268.051C142.57 270.721 143.51 273.351 144.39 276.011L145.77 278.371Z" fill="#839E69"/>
<path d="M173 377.601C172.71 382.471 172.259 387.541 171.729 392.901C171.589 394.241 171.45 395.591 171.31 396.971C171.16 398.341 171.01 399.741 170.93 401.151C170.72 403.981 170.5 406.891 170.27 409.891C170.59 406.691 170.92 403.461 171.24 400.221C171.61 396.981 172.07 393.75 172.47 390.51C172.88 387.28 173.28 384.051 173.68 380.851C174.04 377.871 174.39 374.92 174.74 372.01C174.65 371.83 174.549 371.511 174.439 371.321C174.149 371.041 173.91 370.971 173.92 371.381C173.84 371.531 173.74 371.911 173.68 372.181C173.6 372.821 173.5 373.561 173.38 374.441C173.27 375.361 173.15 376.411 173 377.611V377.601Z" fill="#839E69"/>
<path d="M161.809 335.49C162.029 336.13 162.309 336.939 162.519 337.539C162.229 336.239 161.949 335.21 161.809 335.49Z" fill="#839E69"/>
<path d="M151.059 388.76C151.159 389.41 151.249 389.98 151.349 390.64C151.459 390.76 151.559 390.84 151.679 391.01L151.059 388.76Z" fill="#839E69"/>
<path d="M175.03 371.09C174.95 370.84 174.87 370.6 174.79 370.36L174.67 370C174.57 369.73 174.47 369.47 174.38 369.21C173.99 368.17 173.62 367.19 173.27 366.24C172.58 364.36 171.91 362.66 171.3 361.09C170.08 357.95 168.97 355.33 167.91 352.76C169.03 355.92 170.23 359.16 171.47 362.51C172.11 364.18 172.75 365.89 173.41 367.62C173.74 368.46 174.08 369.31 174.42 370.17C174.56 370.53 174.72 370.89 174.84 371.26C174.82 371.47 174.79 371.73 174.76 371.99C174.83 372.12 174.89 372.21 174.95 372.14C174.98 372.1 175 372.04 175.03 371.9C175.06 371.74 175.08 371.52 175.11 371.23C175.12 371.21 175.08 371.15 175.06 371.09H175.03Z" fill="#839E69"/>
<path d="M167.899 424.45C168.169 423.88 168.459 422.65 168.759 420.98C168.529 421.5 168.239 422.15 168.049 422.67C167.859 423.21 167.769 423.7 167.899 424.45Z" fill="#839E69"/>
<path d="M163.16 340.76C162.99 340.3 162.85 339.891 162.67 339.391C163.37 342.511 163.38 342.09 163.16 340.76Z" fill="#839E69"/>
<path d="M163.16 340.759C164.84 345.469 166.369 349.109 167.899 352.759C165.929 347.189 164.1 342.009 162.52 337.529C162.79 338.699 163.01 339.899 163.16 340.759Z" fill="#839E69"/>
<path d="M133.14 356.881C133.97 357.511 136.46 363.791 139.34 372.591C142.2 381.391 145.38 392.731 147.61 403.421C148.01 404.701 148.39 405.841 148.74 406.861C148.92 407.361 149.09 407.831 149.25 408.271C149.42 408.701 149.71 409.041 149.91 409.381C150.81 410.751 151.53 411.661 152.08 412.171C153.18 413.191 153.61 412.611 153.51 410.891C153.49 410.461 153.43 409.961 153.34 409.401C153.29 409.121 153.239 408.821 153.189 408.511C153.139 408.211 153.05 407.831 153.05 407.631C153.05 407.391 152.98 407.171 153.02 406.901C153.03 406.781 153.04 406.651 153.05 406.521C153.06 406.401 153.07 406.281 153.05 406.051C153.01 405.231 152.96 404.361 152.89 403.441C152.62 399.751 152.07 395.341 151.35 390.661C151.01 390.411 150.72 390.311 149.68 387.641C148.65 384.971 146.86 379.711 143.41 369.181C144.2 372.991 147.259 384.891 149.229 393.661C151.209 402.431 152.189 408.031 149.229 399.161C145.049 385.121 143.44 379.341 142.55 375.311C141.66 371.281 141.42 369.021 139.67 362.101C140.68 368.121 137.55 359.321 133.96 349.941C130.4 340.541 126.39 330.561 126.35 333.931L130.61 346.021L134.76 358.161C134.58 358.721 131.32 350.001 133.12 356.891L133.14 356.881Z" fill="#839E69"/>
<path d="M163.41 421.78L165.2 424.79C164.21 422.75 163.44 420.92 162.8 419.13C162.45 418.17 162.34 417.62 161.67 415.93C160.59 413.39 159.42 410.62 158.09 407.49C157.86 407.08 157.64 406.68 157.43 406.29C157.34 406.12 157.239 405.96 157.149 405.79L157.04 405.64C156.96 405.55 156.93 405.43 156.89 405.34L156.86 405.27L156.77 404.98C156.71 404.79 156.65 404.6 156.59 404.42C156.12 402.95 155.7 401.64 155.32 400.47C154.56 398.14 153.94 396.39 153.46 395.06C152.49 392.4 152.01 391.45 151.68 391L154.61 401.85L155.33 404.57L155.64 405.73C155.68 405.9 155.72 406.08 155.81 406.24L158.12 410.9L162.02 418.64L164.07 422.63L163.42 421.78H163.41Z" fill="#839E69"/>
<path d="M169.43 422.701C169.79 424.481 169.96 427.301 170.16 430.261C170.35 433.201 170.52 436.281 170.8 437.981C170.85 438.391 170.9 438.671 170.97 438.711C171.15 439.511 171.38 439.591 171.7 438.581C171.87 433.971 172.01 430.741 172.03 428.391C172.05 426.041 172.01 424.561 171.95 423.331C171.87 422.171 171.81 421.241 171.72 419.901C171.68 419.291 171.65 418.611 171.64 417.821C171.64 417.431 171.64 417.011 171.63 416.541C171.63 416.311 171.63 416.071 171.63 415.821V415.631L171.649 415.281C171.659 415.041 171.67 414.801 171.68 414.551C171.45 417.691 171.28 419.941 171.16 421.501C171.04 422.951 170.95 423.741 170.91 424.051C170.81 424.681 170.75 423.451 170.72 422.101C170.68 420.741 170.61 419.301 170.43 419.101C170.26 418.881 169.94 419.871 169.57 422.801C169.57 420.881 169.67 419.221 169.74 417.671C169.78 416.891 169.82 416.131 169.87 415.381C170.01 413.521 170.15 411.691 170.28 409.881C170.08 411.781 169.879 413.671 169.689 415.541C169.589 416.221 169.48 416.891 169.38 417.561C169.18 418.841 168.96 419.991 168.78 420.991C168.81 420.901 168.84 420.841 168.87 420.781V420.711L168.89 420.751C169.08 420.341 169.19 420.221 169.05 420.851C169.06 420.921 169.05 421.121 169.05 421.211C169.2 421.581 169.319 422.111 169.439 422.701C169.179 424.961 169.1 424.891 169.08 424.171C169.08 423.521 169.06 422.021 169.06 421.211C169.01 421.071 168.959 420.861 168.899 420.751C168.899 420.751 168.89 420.771 168.88 420.781C168.83 423.421 168.79 426.291 168.77 429.391V429.961V430.251C168.77 430.281 168.78 430.391 168.76 430.341L168.7 430.251L168.22 429.531L167.25 428.031C166.59 427.001 165.92 425.931 165.24 424.791C165.77 425.871 166.36 427.021 167.07 428.311C167.43 428.941 167.81 429.621 168.22 430.351C168.43 430.711 168.65 431.081 168.88 431.461L169.05 431.751L169.09 431.821L169.11 431.861C169.11 431.861 169.11 431.831 169.11 431.821V431.641C169.13 431.401 169.139 431.161 169.149 430.911C169.229 428.881 169.33 426.081 169.46 422.701H169.43Z" fill="#839E69"/>
<path d="M135.148 225.471C135.348 226.801 135.249 226.761 135.179 226.881C135.979 229.561 136.328 230.561 135.148 225.471Z" fill="#839E69"/>
<path d="M138.77 242.88C138.24 241.39 137.72 240.04 137 237.83C136.28 235.61 135.35 232.54 134.26 227.54C132.58 218.83 134.87 227.44 135.18 226.89C134.26 223.95 132.93 218.73 132.19 216.64C131.46 214.54 131.35 215.56 133.15 225.07L134.031 228.009C134.941 232.279 135.91 236.849 136.85 241.259C137.88 245.649 138.75 249.92 139.64 253.53C141.29 260.78 142.47 265.51 141.89 264.09C141.64 261.48 141.37 259.05 140.92 255.83C140.69 254.22 140.4 252.42 140.02 250.31C139.68 248.19 139.28 245.75 138.77 242.89V242.88Z" fill="#839E69"/>
<path d="M166.898 339.35C168.708 344.77 170.609 350.17 172.559 355.55C173.559 358.23 174.549 360.92 175.599 363.59C176.119 364.93 176.629 366.27 177.179 367.59L177.909 369.37C178.099 369.85 178.329 370.32 178.489 370.81L178.369 372.08L178.629 370.79C178.529 370.31 178.349 369.82 178.219 369.33L177.979 368.55L177.659 367.56C177.229 366.24 176.829 364.91 176.429 363.58C175.609 360.93 174.859 358.26 174.099 355.6L173.779 356.7C170.539 346.97 169.239 343.17 168.459 341.56C167.689 339.94 167.519 340.49 166.879 339.35H166.898Z" fill="#839E69"/>
<path d="M150.56 384.61L153.18 388.84C150.69 382.32 148.14 375.82 145.58 369.34C147.24 374.43 148.95 379.5 150.57 384.6L150.56 384.61Z" fill="#839E69"/>
<path d="M136.931 339.77L138.591 341.07L134.141 329.49L136.931 339.77Z" fill="#839E69"/>
<path d="M199.648 524.421L205.469 515.721C202.689 519.821 200.918 522.461 199.648 524.421Z" fill="#839E69"/>
<path d="M175.709 595.47L176.489 597.28C175.789 593.78 175.409 592.35 175.709 595.47Z" fill="#839E69"/>
<path d="M174.34 618.6C174.24 619.81 174.06 620.76 173.85 621.37C173.65 621.99 173.4 622.29 173.23 622.46L173.17 622.52C173.18 622.6 173.03 622.4 172.96 622.34C172.8 622.17 172.65 622.01 172.51 621.87C172.25 621.6 172.06 621.41 171.94 621.33C171.71 621.16 171.69 621.33 172.04 622.06C172.67 623.12 173.43 624.28 174.35 625.55C174.71 625.72 175.351 626.36 175.031 625.5C174.491 622.49 174.38 620.63 174.34 618.62V618.6Z" fill="#839E69"/>
<path d="M189.579 641.23L188.639 641.89C188.549 641.93 188.579 642 188.579 642.07V642.28L188.619 642.71L188.679 643.57L188.799 645.33C189.329 647.33 189.839 649.09 190.329 650.76C190.819 652.44 191.289 654.04 191.729 655.56L190.209 648.82L189.469 645.43L189.099 643.69L188.909 642.81L188.819 642.37L188.769 642.15C188.759 642.08 188.719 641.99 188.789 641.96L189.569 641.24L189.579 641.23Z" fill="#839E69"/>
<path d="M194.039 630.04C198.969 625.72 203.729 621.1 208.369 616.33C205.159 619.46 200.659 624.06 194.039 630.04Z" fill="#839E69"/>
<path d="M286.229 411.68L282.77 416.66L279.439 421.72C280.929 419.9 282.149 418.41 283.149 417.18C284.169 415.98 284.95 415.03 285.55 414.29C286.74 412.81 287.169 412.16 287.229 411.9C287.349 411.38 285.989 412.45 286.229 411.67V411.68Z" fill="#839E69"/>
<path d="M166.68 507.41C166.53 514.09 166.511 520.09 166.571 525.58C166.591 526.95 166.61 528.3 166.63 529.61C166.63 529.92 166.64 530.23 166.65 530.54V530.85C166.65 531.06 166.65 531.26 166.65 531.46C166.65 532.26 166.65 533 166.68 533.72C166.75 533.12 166.82 532.54 166.89 531.97C166.93 531.65 166.96 531.34 167 531.03L167.05 530.55V530.49L167.06 530.32V529.98L167.08 529.31C167.14 525.76 167.2 522.5 167.25 519.6C167.33 513.81 167.26 509.51 166.69 507.4L166.68 507.41Z" fill="#839E69"/>
<path d="M192.51 556.709C196.39 551.439 197.859 549.059 197.519 549.039C193.599 554.489 191.39 557.599 192.51 556.709Z" fill="#839E69"/>
<path d="M164.52 538.82C165.06 539.68 165.589 540.42 166.229 541.32C166.499 541.57 166.78 541.83 167.05 542.08L167.26 542.27C167.32 542.31 167.44 542.48 167.38 542.27C167.35 542.01 167.32 541.74 167.29 541.48C166.98 538.77 166.76 536.39 166.67 533.74C166.44 535.79 166.28 537.23 166.49 539.52L166.55 540.09L166.57 540.24C166.57 540.24 166.52 540.21 166.5 540.2L166.35 540.06C166.14 539.88 165.95 539.72 165.75 539.58C165.35 539.29 164.96 539.05 164.54 538.83L164.52 538.82Z" fill="#839E69"/>
<path d="M222.031 295.32C221.331 296.17 220.51 297.23 219.85 297.99C219.79 298.36 220.711 297.14 222.031 295.32Z" fill="#839E69"/>
<path d="M250.859 107.11C251.799 105.13 253.049 102.53 254.409 99.6702C255.819 96.8202 257.418 93.7402 258.938 90.7402C257.368 93.6202 254.809 98.5001 250.859 107.11Z" fill="#839E69"/>
<path d="M71.7697 239.37C71.2897 237.85 69.5997 229.6 71.7697 239.37Z" fill="#839E69"/>
<path d="M81.3789 210.97C80.2489 209.17 79.3292 207.83 78.9492 207.75C79.6092 208.33 80.4389 209.46 81.3789 210.97Z" fill="#839E69"/>
<path d="M122.54 469.629C122.42 469.369 122.32 469.159 122.18 468.859C123.22 471.619 123.04 471.149 122.54 469.629Z" fill="#839E69"/>
<path d="M69.3203 224.5C69.8803 228.22 70.6002 232.49 71.4902 237.12C71.1402 235.08 70.4803 231.25 69.3203 224.5Z" fill="#839E69"/>
<path d="M69.1097 226.61C68.4997 223.21 68.0297 220.54 67.6097 217.98C67.1897 216.77 67.1997 217.92 69.1097 226.61Z" fill="#839E69"/>
<path d="M74.9297 252.951C73.5697 247.391 72.49 242.161 71.5 237.121C71.83 239.061 71.9303 239.881 71.7803 239.371C72.4203 242.231 73.3197 246.271 74.9297 252.951Z" fill="#839E69"/>
<path d="M325.938 251.24C325.428 251.64 324.878 252.15 324.338 252.6C317.648 259.88 320.668 256.78 325.938 251.24Z" fill="#839E69"/>
<path d="M37.3994 464.5C37.7294 464.82 37.9 464.98 38.21 465.27C37.91 464.92 37.5298 464.49 37.2598 464.18L37.3994 464.5Z" fill="#839E69"/>
<path d="M11.8398 440.641C14.8498 442.841 17.4994 444.861 19.8994 446.771C22.2194 448.781 24.2902 450.691 26.2402 452.561C28.1902 454.431 30.0198 456.261 31.8398 458.141C33.6598 460.021 35.37 462.071 37.25 464.191L34.6494 458.641C33.7794 456.781 32.8096 455.011 31.8896 453.181L21.96 446.691C18.63 444.581 15.1898 442.651 11.8398 440.651V440.641Z" fill="#839E69"/>
<path d="M320.1 386.61C314.55 392.79 308.93 398.9 303.34 405.04C307.76 398.95 311.97 393.37 315.55 388.68C319.11 383.98 322.009 380.15 323.899 377.65C327.649 372.62 327.2 372.79 319.17 381.3C319.64 383.96 304.4 402.73 288.88 421.23C281.08 430.44 273.309 439.67 267.399 446.81C264.469 450.39 262.04 453.49 260.36 455.86C258.67 458.2 257.73 459.82 257.83 460.48L246.27 472.09C249.43 468.63 249.75 467.91 252.87 464.49C250.03 467.29 247.7 469.7 245.72 471.81C243.71 473.9 242.08 475.71 240.67 477.36C237.85 480.66 235.959 483.32 233.899 486.21C231.819 489.09 229.52 492.14 225.97 496.33C225.08 497.38 224.11 498.49 223.05 499.69C221.99 500.9 220.82 502.17 219.5 503.49C216.88 506.16 213.8 509.2 210.11 512.71L209.41 513.38C209.17 513.61 208.92 513.83 208.7 514.07C208.34 514.56 207.98 515.05 207.63 515.53C207.12 516.21 206.62 516.88 206.13 517.53C205.15 518.82 204.22 520.03 203.37 521.13C201.66 523.33 200.229 525.11 199.229 526.27C197.229 528.59 196.979 528.48 199.649 524.41C193.709 533.17 187.62 541.81 181.29 550.23C179.83 552 178.79 553.19 178.13 553.86C177.21 554.86 176.78 555.23 177.01 554.82C177.11 554.62 177.36 554.25 177.75 553.72C178 553.35 178.31 552.92 178.72 552.38C179.53 551.29 180.67 549.84 182.11 548.07L179.1 551.86L177.52 553.82L175.04 556.82L178.35 561.28L178.76 561.84L178.81 561.91C178.81 561.91 178.8 561.88 178.79 561.87L178.74 561.78L178.64 561.6L178.439 561.24C178.439 561.24 178.4 561.08 178.31 561.1L177.97 561.23L175.26 562.26L173.91 562.78L173.57 562.91L173.399 562.97C173.339 562.99 173.28 563.01 173.3 563.06L173.34 563.54L173.49 565.46L173.72 568.34C173.98 571.6 174.28 574.86 174.58 578.11C175.19 584.62 175.87 591.12 176.61 597.62L176.45 597.27C177.97 605.24 181.42 623.29 183.1 632.11C184.05 640.64 183.69 638.85 183.08 635.3C182.47 631.79 181.62 626.6 181.72 629L184.79 646.7C184.8 647.19 185.03 647.1 185.36 646.77L186.27 645.95L188.06 644.33L191.54 641.13C193.83 638.99 196.06 636.92 198.26 634.74C200.99 632.54 201.779 632.1 200.979 633.22C200.179 634.33 197.76 636.96 194.25 640.29C192.49 641.97 190.47 643.85 188.2 645.9C187.05 646.93 185.85 648 184.62 649.1C184.47 649.22 184.29 649.42 184.17 649.47L184 649.52C183.94 649.54 183.96 649.36 183.93 649.29C183.87 648.91 183.8 648.52 183.74 648.14C183.61 647.36 183.48 646.57 183.35 645.78C182.32 639.39 181.23 632.3 180.27 625.52C180.5 630.46 180.81 634.97 181.17 639.04C181.53 643.11 181.93 646.73 182.37 650.07C182.48 650.9 182.59 651.72 182.7 652.53C182.7 653.11 182.95 652.94 183.28 652.63L184.21 651.84C185.46 650.77 186.68 649.7 187.91 648.61C190.37 646.42 192.85 644.13 195.56 641.59C198.27 639.06 201.24 636.19 204.56 632.68C206.22 630.94 207.97 629.06 209.81 627.04C210.04 626.79 210.27 626.54 210.5 626.28L210.939 625.78C211.239 625.44 211.54 625.1 211.85 624.76C212.46 624.07 213.1 623.35 213.76 622.6C215.07 621.11 216.48 619.5 217.99 617.78C218.37 617.35 218.75 616.91 219.14 616.46C219.45 616.11 219.76 615.75 220.07 615.39L220.54 614.84C220.7 614.66 220.87 614.48 220.95 614.24C221.33 613.45 221.72 612.65 222.11 611.83C222.38 611.29 222.659 610.73 222.939 610.17C225.209 605.67 228.03 600.61 231.51 594.93C229.57 598.61 227.699 602.32 225.899 606.05C224.999 607.91 224.13 609.79 223.28 611.66L222.51 613.37L221.95 614.61C221.84 614.81 221.79 615.05 221.64 615.21L221.2 615.73L218.63 618.82C219.03 618.47 219.43 618.11 219.83 617.76C220.05 617.55 220.16 617.48 220.54 617.08L221.52 616.08C222.26 615.47 222.61 614.58 223.08 613.77C223.61 612.77 223.76 612.56 224.06 612.06C225.13 610.24 226.24 608.38 227.38 606.44C229.65 602.56 232.04 598.41 234.7 593.97C240.01 585.09 246.35 575.01 254.93 563.85C253.84 565.12 251.1 568.52 247.96 572.62C244.82 576.72 241.279 581.52 238.399 585.44C235.499 589.35 233.26 592.39 232.53 592.82C231.81 593.26 232.54 591.08 236 584.74C238.2 581.32 240.75 577.36 243.8 572.62C246.83 567.85 250.36 562.3 254.54 555.72C255.19 556.09 257.62 553.11 261.39 548.2C263.31 545.77 265.48 542.78 268.03 539.58C269.3 537.97 270.62 536.27 272 534.51C273.42 532.78 274.88 530.98 276.39 529.14L277.04 531.37C283.4 523.33 286.27 519.56 288.43 516.56C289.49 515.04 290.41 513.75 291.49 512.2C292.59 510.67 293.94 508.96 295.86 506.6C303.84 498.35 309.15 493.85 312.95 490.99C316.72 488.09 319.08 486.92 321.49 485.57C324.89 482.51 327.14 480.48 328.54 479.22C329.94 477.95 330.459 477.39 330.399 477.3C330.279 477.12 327.84 478.81 325.54 480.36C323.29 481.95 321.17 483.4 321.61 482.59C321.83 482.19 322.69 481.22 324.49 479.43C326.33 477.68 329.14 475.15 333.22 471.55C335.58 469.68 337.88 467.86 340.12 466.08C341.24 465.19 342.34 464.3 343.43 463.43C344.54 462.58 345.639 461.73 346.729 460.89C348.909 459.2 351.05 457.54 353.18 455.89C355.31 454.24 357.48 452.68 359.62 451.06C368.16 444.56 376.99 438.32 387.21 431.27L378.51 422.19C374.96 427.59 370.94 433.51 366.52 439.92C353.06 456.84 367.85 436.2 362.77 442.08L357.64 450.2L352.43 458.27C349.55 461.97 350.1 460.48 350.38 459.73C345.69 466.3 345.83 466.83 345.29 468.3C345.02 469.03 344.56 469.99 343.22 472.03C342.55 473.05 341.66 474.35 340.46 476.02C339.24 477.68 337.7 479.71 335.77 482.23C335.1 483.89 332.61 487.17 328.87 491.49C326.99 493.64 324.819 496.06 322.439 498.69C320.059 501.32 317.49 504.17 314.72 507.1C311.98 510.06 309.109 513.16 306.189 516.32C303.269 519.49 300.29 522.72 297.32 525.95C294.36 529.18 291.53 532.51 288.7 535.69C285.89 538.89 283.23 542.06 280.79 545.15C275.16 550.48 282.45 541.6 280.31 542.84C266.25 559.12 259.92 565.84 254.29 571.88C251.47 574.89 248.89 577.82 245.42 581.51C241.92 585.18 237.6 589.7 231.49 596.1L219.729 605.49L216.79 607.83L216.06 608.42C215.67 608.74 215.32 609.02 215 609.3L213.51 610.92C211.81 612.74 210.09 614.56 208.35 616.34C212.26 612.48 214.07 610.9 214.42 611.1C214.76 611.29 213.62 613.25 211.47 616.28C209.32 619.31 206.15 623.4 202.38 627.81C198.59 632.24 194.31 636.87 189.55 641.24C191.3 640.04 192.85 638.9 194.3 637.82C195.76 636.73 197.129 635.66 198.399 634.64C200.939 632.6 203.09 630.74 204.79 629.21C202.49 631.7 200.14 634.15 197.72 636.54L195.89 638.32L194.16 639.96C193.11 640.94 192.05 641.88 191 642.8C190.9 642.84 191 642.96 190.99 643.03L191.04 643.29L191.14 643.8L191.33 644.82L191.71 646.84L192.58 651.34C193.2 654.53 193.78 657.72 194.5 660.89C195.1 665.65 193.64 661.85 191.74 655.58C192.31 658.23 193 660.72 193.49 662.66C195.42 676.73 192.97 669.72 190.03 659.88C189.74 657.47 189.6 655.04 189.38 652.65C189.19 650.19 188.99 647.76 188.8 645.36C188.63 644.72 188.45 644.08 188.29 643.46C188.2 643.14 188.12 642.83 188.03 642.52C187.99 642.36 187.939 642.21 187.899 642.06L187.84 641.83C187.82 641.75 187.79 641.67 187.84 641.63C189.35 640.05 190.88 638.43 192.27 636.84C193.49 635.41 194.41 634.18 195.16 633.11C196.63 631 197.13 629.74 196.16 630.01C195.33 630.97 194.07 632.32 192.5 633.87C192.11 634.26 191.7 634.66 191.28 635.06C191 635.32 190.72 635.58 190.43 635.85C190.12 636.13 189.81 636.41 189.49 636.69C188.22 637.82 186.88 638.98 185.5 640.14C187.8 637.85 189.34 636.14 187.92 637.1C187.2 637.6 185.94 638.68 184.2 640.26C184.4 641.66 184.83 643.38 185.22 645.29C185.43 646.24 185.64 647.25 185.88 648.32C185.94 648.58 186 648.85 186.06 649.11C186.11 649.32 186.16 649.54 186.22 649.75C186.32 650.16 186.43 650.59 186.53 651.03C186.34 654.13 186.079 657.24 185.939 660.34L187.189 662.36L191.38 688.19C192.12 692.49 192.99 696.77 193.79 701.06C194.57 705.36 195.5 709.63 196.41 713.91C197.08 716.12 197.74 718.32 198.41 720.5C199.12 722.67 199.83 724.84 200.53 727C201.23 729.16 201.95 731.31 202.71 733.46C203.44 735.59 204.24 737.81 205.02 739.89L205.07 740.02L205.1 740.09C202.64 740.75 208.46 739.21 207.86 739.36C207.83 739.35 207.89 739.31 207.85 739.32C207.79 739.31 207.86 739.33 207.81 739.32C207.81 739.32 207.81 739.32 207.83 739.33C207.83 739.33 207.81 739.3 207.86 739.36C207.83 739.32 207.82 739.28 207.83 739.3C207.83 739.3 207.83 739.33 207.83 739.35C207.83 739.34 207.83 739.43 207.83 739.33V739.31V739.32C207.83 739.32 207.8 739.35 207.81 739.34L207.82 739.32C207.32 739.52 212.12 737.56 210.09 738.4V738.42L210.11 738.47C210.11 738.48 210.11 738.51 210.11 738.51L210.07 738.41L209.92 738.01C209.53 736.95 209.14 735.89 208.75 734.82C208.38 733.74 208 732.65 207.63 731.55C206.88 729.35 206.12 727.13 205.35 724.88C204.63 722.61 203.91 720.3 203.17 717.95C202.45 715.6 201.67 713.22 200.97 710.77C200.29 708.31 199.59 705.81 198.88 703.25C198.18 700.69 197.47 698.07 196.74 695.4C196.04 692.72 195.23 689.99 194.62 687.15C193.32 681.49 191.98 675.54 190.61 669.25C189.93 666.1 189.24 662.87 188.52 659.55C187.89 656.17 187.24 652.7 186.57 649.14C185.88 648.69 185.07 648.17 184.27 647.63C185.61 648.37 186.81 648.98 186.95 648.9C187.7 651.26 188.22 652.6 188.62 653.12C189.01 653.64 189.27 653.36 189.47 652.69C189.67 652.02 189.82 650.95 190.01 650.02C190.21 649.09 190.46 648.3 190.89 648.35C191 649.81 191.14 651.29 191.31 652.82C191.43 653.98 191.56 655.19 191.7 656.44C191.96 658.83 192.42 661.38 192.92 664.08C193.92 669.48 195.22 675.49 196.64 681.93C197.97 688.39 199.83 695.18 201.57 702.26C202.47 705.79 203.27 709.41 204.21 713.03C205.15 716.65 206.06 720.32 206.93 724.01C203.3 708.58 205.01 711.77 206.28 715.59C205 711.27 203.92 706.89 202.79 702.52L199.41 689.39L193.46 662.9C194.08 663.24 194.12 661.83 193.82 659.22C193.66 657.92 193.489 656.31 193.229 654.47C193.159 653.99 193.09 653.49 193.02 652.98C192.91 652.23 192.79 651.47 192.68 650.68C192.44 649.1 192.199 647.44 191.939 645.72C190.869 644.97 189.77 644.19 188.64 643.4C188.07 643 187.5 642.59 186.92 642.18L186.05 641.54L185.51 641.13C184.06 640.03 182.59 638.85 181.11 637.62C184.43 641.94 176.05 636.62 165.17 627.52C164.48 626.94 163.78 626.35 163.06 625.75C162.58 625.35 162.12 624.91 161.61 624.54C161.01 624.25 160.4 623.95 159.8 623.66C158.14 622.86 156.45 622.05 154.74 621.23L153.46 620.61L152.22 619.9L149.729 618.47C148.899 617.99 148.07 617.52 147.24 617.05L146 616.34L144.81 615.56C141.66 613.45 138.51 611.53 135.79 609.42C134.4 608.41 133.06 607.44 131.8 606.53C130.54 605.61 129.41 604.66 128.32 603.83C128.14 602.99 129.17 603.29 132.83 605.79C133.76 606.39 134.86 607.12 136.14 608.02C136.78 608.47 137.47 608.96 138.21 609.48C138.58 609.74 138.96 610.02 139.35 610.3C139.76 610.56 140.18 610.83 140.61 611.12C142.35 612.24 144.3 613.53 146.49 615C148.75 616.34 151.26 617.84 154.06 619.5C152.58 618.47 151.16 617.5 149.79 616.6C148.43 615.68 147.06 614.91 145.85 614C144.61 613.12 143.409 612.3 142.229 611.53C141.069 610.74 139.89 610.07 138.82 609.27C136.66 607.74 134.58 606.37 132.54 605.06C130.54 603.67 128.619 602.33 126.689 600.99C124.719 599.69 122.88 598.23 120.95 596.74C119.03 595.24 117.05 593.7 115.11 591.85C114.13 590.95 113.13 590 112.11 589.01C111.09 588.02 110.04 586.99 109.02 585.83C107.99 584.69 106.94 583.5 105.86 582.23C104.78 580.97 103.66 579.64 102.59 578.18C103.65 579.43 104.62 580.49 105.5 581.44C106.38 582.38 107.15 583.21 107.83 583.95C109.23 585.4 110.289 586.5 111.399 587.22C109.989 585.94 108.43 584.32 106.7 582.56C105.85 581.67 104.96 580.75 104.04 579.8C103.16 578.81 102.26 577.79 101.35 576.76C97.6696 572.66 94.0602 568.08 90.9502 564.07C84.8502 555.94 81.0702 549.85 83.9902 553.16L85.9199 555.79L87.8994 558.37C81.4194 549.68 73.6001 538.43 65.8301 526.11C58.0401 513.81 50.29 500.47 43.46 487.93C29.71 462.89 19.6402 441.13 17.2002 438.63C17.3302 438.11 22.2801 442.67 23.8301 444.85C20.8401 439.71 17.8598 434.48 15.0898 429.3L8.82031 433.73C25.2503 445.17 40.8399 458.2 55.8799 471.89C52.7799 470.01 54.6204 474.94 54.1104 476.98C53.8504 478 53.0102 478.31 50.7002 476.72C49.5402 475.92 48.0198 474.65 46.0098 472.76C43.9798 470.89 41.3897 468.48 38.2197 465.28C39.9297 467.22 41.7397 469.27 43.7197 471.52C45.7097 473.75 47.7596 476.29 50.1396 479.01C52.5196 481.73 55.1396 484.72 58.0596 488.05C60.9396 491.43 64.15 495.13 67.79 499.22C63.54 493.58 58.9696 483.57 65.3096 490.93C67.1996 493.69 68.7796 495.99 70.1396 497.97C71.5096 499.94 72.5796 501.64 73.5596 503.09C75.5096 506 76.94 508.07 78.5 510.27C80.06 512.47 81.7501 514.82 84.1201 518.38C85.3101 520.15 86.6896 522.22 88.3496 524.69C89.9996 527.16 91.9296 530.04 94.0996 533.53C91.1696 529.09 92.12 528.74 95.04 531.23C96.5 532.47 98.4502 534.42 100.66 536.92C102.87 539.41 105.32 542.46 107.7 545.94C105.77 544.09 105.73 549.04 101.91 544.22C110.86 554.96 119.77 565.8 128.39 576.88C122.09 568.49 125.01 576.92 129.35 585.26C128.43 583.27 133.39 590.83 139.21 600.15C145.07 609.45 151.68 620.54 154.66 625.24C151.86 620.04 149.01 614.85 146.11 609.68C149.7 615.61 152.8 620.63 155.56 625C155.97 625.65 156.37 626.28 156.76 626.91C157 627.29 157.24 627.67 157.47 628.04C157.55 628.23 157.83 628.39 158 628.56L158.6 629.06C159.29 629.63 159.97 630.19 160.64 630.74C161.29 631.26 161.92 631.77 162.54 632.28C165.03 634.27 167.35 636.03 169.49 637.57C173.79 640.69 177.34 642.87 180.58 644.87C182.2 645.86 183.74 646.77 185.25 647.65C186 648.08 186.75 648.51 187.51 648.94L188.07 649.26L188.35 649.42L188.49 649.5C188.49 649.5 188.5 649.43 188.51 649.4C188.54 649.06 188.56 648.72 188.59 648.38C187.02 641.24 185.61 634.44 184.22 627.06C183.53 623.37 182.849 619.52 182.189 615.35C181.609 611.44 181.05 607.11 180.53 602.27C181.19 605.06 182.67 608.43 183.68 608.12C184.7 607.81 185.19 603.85 184.17 591.98C183.46 589.31 182.29 585.01 180.91 579.41C180.74 578.71 180.56 577.99 180.38 577.25C180.2 576.49 180.03 575.83 179.82 574.79C179.29 572.94 179.569 570.73 177.399 569.65C175.959 568.46 174.459 567.23 172.899 565.95C171.459 564.74 169.98 563.47 168.49 562.12C162.49 556.75 156.12 550.31 149.79 543.02C149.4 542.56 149 542.1 148.6 541.64L148.03 540.98C147.87 540.81 147.73 540.63 147.56 540.47L147.03 540.06L146.34 539.5L144.899 538.31C142.979 536.71 141.02 535.11 139.1 533.42C135.36 529.95 131.479 526.42 127.899 522.51C126.349 520.26 124.77 518.06 123.34 515.74L117.979 509.67L112.83 503.43C111.08 501.37 109.5 499.19 107.83 497.06L105.36 493.85C104.54 492.77 103.77 491.67 102.97 490.58C103.81 491.53 104.71 492.61 105.75 493.75C106.79 494.89 107.91 496.12 109.11 497.44C110.31 498.75 111.54 500.17 112.91 501.61C114.28 503.04 115.71 504.54 117.2 506.1C117.94 506.88 118.7 507.67 119.47 508.48C120.26 509.26 121.07 510.06 121.89 510.87C123.52 512.48 125.2 514.14 126.92 515.83C128.69 517.46 130.49 519.13 132.32 520.83C133.23 521.67 134.15 522.52 135.08 523.37C136.04 524.19 137 525.01 137.96 525.84C139.9 527.48 141.8 529.18 143.78 530.79C145.78 532.38 147.78 533.97 149.78 535.55L150.53 536.14L151.46 536.91C151.75 537.17 151.969 537.49 152.229 537.78L152.88 538.54C153.72 539.49 154.55 540.44 155.38 541.39C157.04 543.27 158.71 545.12 160.36 546.92C163.67 550.51 166.92 553.93 170.04 557.06C171.6 558.62 173.12 560.12 174.6 561.54C176.18 563.03 177.7 564.47 179.14 565.83C178.87 565.53 178.62 565.24 178.37 564.95C178.2 564.76 178.04 564.57 177.89 564.38C177.58 564.01 177.29 563.66 177.01 563.32C176.46 562.65 175.97 562.06 175.55 561.52C174.7 560.44 174.08 559.62 173.59 558.94C172.6 557.59 172.13 556.85 171.46 555.92C170.79 554.99 169.93 553.87 168.22 551.72C166.52 549.56 163.95 546.37 160.02 541.16C157.66 537.17 160.02 539.86 163.64 544.2C167.26 548.55 172.25 554.41 174.77 557.23C171.53 553.44 168.4 549.51 165.35 545.52C163.82 543.52 162.33 541.5 160.84 539.46L158.63 536.39L157.54 534.84L156.75 533.73L156.26 533.04C156.07 532.83 155.86 532.64 155.66 532.45L149.86 526.78C148.04 525.07 146.38 523.2 144.66 521.4C141.17 517.83 137.96 513.99 134.66 510.23C134.7 511.08 132.779 509.38 129.899 506.36C126.959 503.39 123.27 498.92 119.58 494.42C117.79 492.12 115.99 489.82 114.32 487.68C112.68 485.5 111.17 483.48 109.89 481.78C107.27 478.43 105.67 476.3 105.6 477.03C111.85 486.15 118.48 494.97 125.56 503.38C132.69 511.74 140.25 519.68 148.22 527.13C148.35 527.95 146.419 527.01 143.149 524.45C141.509 523.17 139.439 521.57 137.189 519.53C134.969 517.46 132.38 515.11 129.68 512.37C128.36 510.97 126.97 509.51 125.53 507.99C124.82 507.22 124.09 506.44 123.35 505.64C122.64 504.82 121.919 503.98 121.189 503.12C119.739 501.4 118.24 499.63 116.7 497.82C115.24 495.94 113.74 494.01 112.22 492.04C106.23 484.08 100.18 475.13 94.8301 465.61C93.5901 463.12 93.4997 462.17 93.9297 462.21C94.3897 462.23 95.4094 463.21 96.6494 464.41C99.1094 466.84 102.18 470.33 102.24 469.77C101.38 468.65 99.5703 465.93 97.3203 462.42C95.1803 458.83 92.5194 454.5 90.1494 450.05C87.6794 445.66 85.48 441.17 83.71 437.62C82.01 434.02 80.81 431.3 80.5 430.35C81.98 433.04 83.3902 435.77 84.9102 438.43C86.4402 441.09 87.9202 443.77 89.4902 446.4C84.3602 435.52 79.6901 426.88 75.1201 417.45C70.5901 408.02 66.1895 397.78 62.4795 383.71C60.9195 378.95 59.3097 371.61 57.9697 365.31C56.6397 359 55.5803 353.72 54.7803 353.04C55.7503 361.2 54.9001 366.55 53.1201 368.63C51.3601 370.71 48.6703 369.49 46.3203 364.37C45.8403 362.3 41.5394 344.6 39.3994 327.83L38.0898 317.57L43.5996 326.01C46.9196 331.09 50.19 335.93 52.75 340.13C55.26 344.37 57.2594 347.84 58.3994 349.94C62.2694 357.39 57.9099 352.72 53.3799 347.89C51.1199 345.47 48.8295 342.99 47.5195 341.9C46.8395 341.38 46.4196 341.19 46.3896 341.52C46.3596 341.84 46.7203 342.68 47.5303 344.26C48.3203 344.44 53.98 351.64 56.29 354.69C61.52 363.89 52.5699 351.89 64.9199 371.22C65.8499 371.78 67.7897 374.58 69.9297 377.97C70.9997 379.66 72.1197 381.5 73.1797 383.29C74.2297 385.08 75.18 386.83 76 388.3C77.63 391.25 78.64 393.11 78.25 392.23C78.05 391.79 77.5 390.66 76.5 388.63C75.5 386.6 74.07 383.66 71.96 379.69C75 384.43 77.0799 388.22 78.9199 391.45C80.7299 394.7 82.24 397.42 83.71 400.32C86.62 406.12 89.85 412.29 95.96 424.05C95.28 422.03 95.8703 422.2 97.3203 423.92C98.7703 425.64 101.09 428.88 103.75 433.05C109.14 441.36 116.08 453.27 121.22 463.39C120.18 462.41 121.76 467.3 122.54 469.65C132.29 490.49 139.289 506.77 145.939 522.74C147.589 526.74 149.23 530.71 150.88 534.73L151.53 536.31L151.7 536.72C151.77 536.85 151.87 536.97 151.95 537.09L152.46 537.82C153.15 538.79 153.84 539.77 154.53 540.75C155.94 542.72 157.39 544.7 158.89 546.7C161.89 550.69 165.07 554.68 168.47 558.72C170.18 560.74 171.93 562.79 173.78 564.87C174.71 565.9 175.66 566.95 176.61 568.01L177.34 568.8L177.71 569.2L177.76 569.25C177.76 569.25 177.76 569.23 177.76 569.22V569.13L177.78 568.95C177.82 568.46 177.86 567.97 177.91 567.47C177.89 567.18 177.86 566.8 177.83 566.42C177.96 564.94 177.85 558.5 177.84 553.5C177.84 551.01 177.88 548.91 178.02 548.18C178.16 547.46 178.4 548.1 178.84 551.32C178.35 546.98 177.869 542.93 177.399 538.04C177.169 535.61 176.95 532.93 176.75 529.98C176.57 527.48 176.42 524.63 176.31 521.31C176.86 508.41 177.09 515.83 177.46 524C177.56 526.04 177.66 528.13 177.78 529.96C177.92 532.25 178.069 534.37 178.229 535.72C178.389 537.08 178.54 537.75 178.68 537.27C178.83 536.78 178.95 535.14 179.08 531.73C179 531.58 178.91 531.26 178.83 530.79C178.76 530.4 178.68 529.89 178.57 529.26C178.4 528.18 178.23 526.69 178.06 524.9C177.72 521.31 177.38 516.48 177.1 511.11C176.96 508.42 176.82 505.6 176.72 502.73C176.64 499.86 176.57 496.94 176.49 494.06C176.32 488.3 176.15 482.7 176.01 477.96C175.09 480.86 174.959 491.83 175.189 504.43C175.389 510.73 175.74 517.44 176.16 523.75C176.4 527.09 176.63 530.33 176.85 533.37C177.14 536.92 177.4 540.22 177.64 543.16C176.98 542.62 176.16 539.54 175.34 535.28C174.93 533.13 174.53 530.75 174.13 528.06C173.73 525.34 173.33 522.22 172.96 518.75C172.2 511.8 171.519 503.42 171.149 493.93C170.939 489.19 170.74 484.17 170.56 478.91C170.45 476.28 170.44 473.6 170.42 470.86C170.4 468.5 170.38 466.09 170.36 463.63C169.94 462.98 169.54 462.36 169.16 461.78C168.64 460.94 168.14 460.13 167.67 459.38C166.7 457.81 165.88 456.39 165.13 455.13C163.67 452.6 162.62 450.67 161.87 449.22C160.38 446.31 160.08 445.31 160.22 445.12C160.52 444.75 162.649 447.62 160.979 444.96C152.929 430.06 147.36 419.37 142.81 411.08C142.5 410.5 142.32 410.18 142.07 409.84C141.75 409.36 141.43 408.89 141.12 408.43C140.49 407.51 139.89 406.62 139.3 405.75C138.12 404.02 136.99 402.42 135.97 400.85C133.93 397.72 131.98 394.96 130.25 392.18C128.5 389.41 126.74 386.74 125.06 383.8C123.35 380.88 121.57 377.78 119.75 374.16C116.03 366.97 111.86 357.85 106.95 344.58C100.21 323.14 109.56 342.47 108.81 337.41C114.46 350.93 118.83 361.29 122.88 370.52C126.92 379.76 130.739 387.83 135.689 396.48C133.719 392.9 131.96 389.2 130.1 385.56C129.19 383.73 128.34 381.87 127.46 380.03C126.59 378.18 125.7 376.35 124.88 374.48C127.17 378.55 130.67 384.87 134.33 391.28C136.18 394.48 138.04 397.71 139.78 400.72C141.57 403.69 143.209 406.49 144.479 408.8C143.449 406.74 141.669 403.65 139.479 399.74C138.399 397.77 137.199 395.59 135.899 393.23C134.639 390.85 133.27 388.28 131.82 385.54C130.37 382.81 128.95 379.86 127.39 376.81C125.87 373.74 124.35 370.5 122.74 367.16C119.65 360.43 116.4 353.22 113.33 345.65C107.09 330.56 101.28 314.17 96.4102 298.36C91.5302 282.55 87.6299 267.32 84.8799 254.62C82.1099 245.79 78.2697 230.28 79.2197 237.81C80.4497 243.17 81.7701 248.5 83.1201 253.83C84.3001 261.34 81.98 253.93 80.04 247.13C78.12 240.33 76.4997 234.18 78.4697 244.47C76.7597 238.15 75.0396 231.58 73.3896 224.64C71.7496 217.68 70.1503 210.44 68.8203 202.52L64.6699 177.81L76.9102 199.81C78.2402 202.2 79.6002 204.65 80.9902 207.14C82.3402 209.65 83.8201 212.17 85.0801 214.85C86.3701 217.52 87.6903 220.24 89.0303 223.02C89.6803 224.42 90.38 225.81 91 227.26C91.62 228.71 92.2499 230.17 92.8799 231.64L93.6299 237.75C93.7399 237.34 91.8797 232.57 89.4697 226.93C88.1797 224.15 86.7501 221.15 85.3701 218.36C83.9801 215.58 82.6795 213 81.4795 211.14C84.8595 216.75 89.5901 227.82 94.1201 239.08C95.3101 241.87 96.3597 244.73 97.4697 247.48C98.5697 250.24 99.6698 252.91 100.76 255.42C102.87 260.47 104.87 264.89 106.76 267.98L103.29 257.58C102.13 254.11 100.85 250.68 99.6299 247.23C109.23 267.38 120.85 292.57 129.04 319.07C127.93 312.79 127.3 311.31 126.49 308.96C126.08 307.79 125.6 306.4 124.95 304.1C124.63 302.95 124.26 301.57 123.83 299.87C123.38 298.18 122.87 296.17 122.28 293.76C123.9 302.26 118.06 285.5 112.13 270.13C110.6 266.3 109.1 262.55 107.79 259.28C107.12 257.65 106.499 256.14 105.939 254.79C105.359 253.46 104.83 252.3 104.38 251.36C102.6 247.61 102.139 247.42 104.189 254.02C102.799 249.18 101.31 244.73 99.7402 240.39C98.0902 236.08 96.3002 231.9 94.4502 227.54C93.5502 225.35 92.5097 223.17 91.4697 220.9C90.4397 218.62 89.3698 216.27 88.2598 213.82C87.1998 211.35 85.9502 208.82 84.7002 206.13C83.4502 203.44 82.1503 200.61 80.8203 197.58L60.9395 152.49L64.3203 203.1C64.3403 203.4 64.3596 203.76 64.3896 204.12C64.4696 203.95 64.5198 203.56 64.5498 203.07L68.0498 149.69L80.6104 197.69C80.8804 198.74 81.2604 199.9 80.1104 197.97L56.6494 158.5L65.0996 202.99C65.4796 204.97 66.0798 209.19 67.5498 217.92C67.9098 218.93 68.5895 221.35 69.0195 222.88C69.1295 223.59 69.1695 223.84 69.2695 224.44C69.2095 223.97 69.1596 223.63 69.0996 223.16C69.3796 224.14 69.41 224.23 69.04 222.68C68.25 217.15 67.8098 212.63 67.8398 210.76C69.4698 216.4 71.9994 228.32 74.8994 240.26C77.7494 252.21 80.9897 264.19 82.9297 270.15C86.2797 283.57 80.7398 264.75 82.0898 272.2C84.0698 278.14 86.0795 284.06 88.2295 289.94C87.3195 292.11 97.1795 325.77 86.5195 294.81C89.3695 304.21 92.4202 313.55 95.7002 322.83C100.68 339.49 109.68 361.8 116.77 374.85C117.5 376.44 118.31 378.12 119.16 379.82C120.04 381.5 120.96 383.21 121.88 384.87C123.67 388.2 125.58 391.28 127.02 393.66C128.45 396.05 129.54 397.7 129.81 398.13C130.09 398.56 129.5 397.8 127.8 395.24C129.75 398.6 131.77 401.93 133.78 405.25L136.91 410.18L138.29 412.33C138.29 412.33 138.33 412.4 138.35 412.44L138.439 412.6L138.77 413.24L139.43 414.51C142.97 421.3 146.58 428.07 150.28 434.79L150.18 435.32C152.67 440.09 155.26 444.86 157.97 449.63C159.32 452.02 160.71 454.4 162.12 456.78C162.84 457.97 163.56 459.16 164.28 460.35L165.38 462.14C165.73 462.71 166.2 463.47 166.26 463.55C166.53 464.02 167.029 464.46 166.899 465V465.77V467.84C166.879 470.63 166.86 473.43 166.84 476.24C166.91 481.86 166.97 487.52 167.04 493.22C167.06 504.63 167.42 516.21 167.78 527.99C167.81 529.08 167.84 530.17 167.88 531.27L167.92 533.16C167.94 534.37 167.95 535.58 167.97 536.8C168 539.13 167.95 541.24 167.84 542.85L167.8 543.36V543.42C167.8 543.42 167.8 543.48 167.76 543.42L167.61 543.22L167.32 542.83C166.94 542.31 166.569 541.78 166.189 541.26C164.619 539.77 162.85 537.92 160.74 535.26C160.48 534.92 160.209 534.58 159.939 534.23C159.649 533.84 159.36 533.45 159.06 533.05C158.71 532.63 158.74 532.52 158.09 531.05C157.59 529.88 157.09 528.69 156.57 527.47C154.5 522.59 152.25 517.28 149.77 511.42L148.83 506.4C144.67 497.54 138.9 484.03 133.41 471.91C130.69 465.84 128 460.14 125.76 455.48C123.48 450.84 121.58 447.28 120.38 445.53C117.13 435.36 106.73 413.93 94.2002 391.66C91.0002 386.12 87.8195 380.46 84.5195 374.95C82.8495 372.2 81.1896 369.47 79.5596 366.77C77.9296 364.07 76.3196 361.4 74.6396 358.84C68.1396 348.49 61.8494 339.18 56.8994 331.94L54.8799 331.75C52.6199 328.65 50.3704 325.57 48.1104 322.48L27.7695 294.62L33.7402 328.7C34.2102 331.39 34.7002 333.79 35.2402 336.3C35.7702 338.79 36.3395 341.27 36.9395 343.76C38.1295 348.75 39.4697 353.77 40.9297 358.91C43.8697 369.19 47.3301 379.95 51.6201 391.68L52.3096 389.52C56.8996 401.44 62.4795 416.85 69.6895 433.67C73.3395 442.06 77.4099 450.79 81.9199 459.58C86.5099 468.33 91.5598 477.14 97.0898 485.67C96.1398 484.64 94.3103 481.92 92.2803 478.67C90.2703 475.4 88.1595 471.53 86.4395 468.31C97.1795 490.13 112.64 511.13 130.3 529.15C132.54 531.37 134.78 533.58 137.01 535.78C139.32 537.89 141.63 540 143.92 542.1C144.18 542.34 144.59 542.72 144.55 542.66C144.66 542.75 144.809 542.87 144.899 543.01L145.06 543.2L145.39 543.63L146.08 544.55C147.01 545.77 147.94 546.98 148.86 548.18C150.72 550.59 152.59 552.96 154.47 555.31C158.23 560 162.01 564.56 165.84 568.95C166.8 570.05 167.76 571.14 168.71 572.22L169.43 573.03L169.61 573.23L169.689 573.33L169.85 573.51L170.46 574.23L170.76 574.58C170.81 574.72 170.78 574.89 170.79 575.05V576.44L170.83 577.46C170.86 578.15 170.88 578.83 170.91 579.51C172.36 590.27 173.03 598.09 173.55 605.69C173.43 604.69 173.31 603.79 173.18 603.02C173.3 604.13 173.48 605.77 173.67 607.45C173.84 609.84 174.01 612.27 174.18 614.77L174.25 615.71L174.29 616.18V616.39L174.3 616.47C174.3 616.7 174.3 616.94 174.3 617.18C174.3 617.63 174.31 618.08 174.32 618.54C174.35 618.18 174.379 617.79 174.399 617.39C174.399 617.19 174.41 616.98 174.42 616.78V616.47V616.39C174.42 616.38 174.42 616.35 174.42 616.27L174.39 615.87C174.25 613.74 174.099 611.71 173.939 609.82C174.199 611.81 174.49 614.06 174.81 616.5C174.99 617.58 175.19 618.74 175.39 619.96C175.83 622.45 176.35 625.32 176.97 628.51L176.78 628.41C176.67 628.35 176.549 628.27 176.439 628.19L176.35 628.12L176.16 627.88L175.77 627.38C175.25 626.72 174.77 626.08 174.33 625.47C174.07 625.3 173.86 625.16 173.59 624.98C172.64 624.09 172.11 623.64 171.78 623.44C171.45 623.25 171.32 623.33 171.37 623.61C171.46 624.17 172.279 625.61 173.939 627.61C171.429 625.99 169.13 624.5 167.34 623.35C167.13 622.98 166.91 622.63 166.68 622.28C166.56 622.12 166.44 621.95 166.32 621.78L166.13 621.53C166.06 621.44 165.99 621.36 165.99 621.33L165.93 621.21L165.899 621.15L165.84 621C165.75 620.81 165.67 620.61 165.58 620.41C165.56 620.36 165.43 620.12 165.33 619.93C165.22 619.73 165.12 619.54 165.01 619.34C164.79 618.95 164.56 618.54 164.34 618.14C162.49 614.89 160.23 611.37 157.92 607.74C153.27 600.51 148.32 592.95 145.72 586.59C142.94 583.4 134.32 570.39 125.28 557.93C116.32 545.42 106.98 533.45 103.99 531.55C104.01 531.01 101.989 527.96 105.939 533.37C103.959 530.53 101.99 527.7 100.02 524.88C98.0395 522.07 95.9897 519.35 93.9697 516.65C91.9497 513.96 89.9402 511.31 87.9102 508.76C85.8402 506.24 83.77 503.8 81.71 501.48L79.5098 495.72C77.8098 493.85 76.0298 492.04 74.2598 490.23L68.9697 484.79C67.1997 482.99 65.4702 481.15 63.6602 479.38L58.2197 474.09C55.3997 470.46 53.0597 467.3 51.1797 464.92C49.2997 462.55 48.0396 460.85 47.5596 459.98C47.0796 459.11 47.3902 459.08 48.6602 460.04C49.3002 460.52 50.1803 461.25 51.3203 462.25C52.4603 463.25 53.89 464.51 55.5 466.13C53.99 464.52 52.4801 463.08 51.0801 461.7C49.6801 460.32 48.3601 459.03 47.1201 457.82C44.6501 455.38 42.4798 453.24 40.5498 451.32C36.5398 447.61 33.5201 444.77 30.8701 442.27C29.5401 441.02 28.3298 439.83 27.0898 438.71C25.8198 437.61 24.5695 436.53 23.2695 435.39C20.6495 433.13 17.8001 430.69 14.0801 427.58L0 415.8L7.58008 432.18C9.18008 435.64 11.6203 440.76 15.0703 447.49L13.25 446.29C15.96 452.43 19.97 460.17 23.71 467.28C27.43 474.41 30.9201 480.89 32.3301 484.7C35.2701 491.61 41.0603 503.29 49.3203 517.62C51.3603 521.22 53.6395 524.93 55.9795 528.83C58.3995 532.68 60.8698 536.72 63.5898 540.79C66.2398 544.91 69.1403 549.05 72.0703 553.31C75.1103 557.51 78.17 561.84 81.5 566.11C94.6 583.28 110.2 600.68 128.2 614.87C132.67 618.44 137.38 621.7 142.13 624.77C144.57 626.22 146.96 627.71 149.41 629.1C151.67 630.26 153.91 631.41 156.13 632.55C157.94 634.15 159.72 635.73 161.49 637.3C163.47 639.04 165.45 640.74 167.43 642.4C169.41 644.06 171.39 645.68 173.36 647.26C174.36 648.04 175.34 648.82 176.32 649.59C177.23 650.29 178.14 650.98 179.04 651.67C179 651.59 178.97 651.52 178.93 651.45C178.87 651.36 178.74 651.22 178.66 651.12C178.48 650.9 178.32 650.7 178.18 650.53C177.9 650.18 177.73 649.91 177.63 649.73C177.44 649.36 177.6 649.31 178.02 649.52C178.23 649.62 178.52 649.79 178.87 650.01C179.15 650.2 179.48 650.42 179.87 650.68C180.4 651.05 181.06 651.53 181.77 652.08C181.87 652.89 181.95 653.8 182.04 654.73C182.24 656.34 182.439 658.05 182.649 659.8C183.149 663.39 183.71 667.14 184.27 670.6C185.39 677.52 186.55 683.24 187.58 684.03C187.57 688.6 189.25 699.22 186.12 687.12C187.07 691.94 188.25 696.41 189.18 700.67C190.15 704.92 191.04 708.93 191.86 712.75C193.66 720.37 195.199 727.21 196.939 733.67C197.369 735.29 197.76 736.87 198.21 738.46C198.44 739.25 198.66 740.05 198.89 740.83L199.07 741.42L199.16 741.71C199.26 742.01 199.36 742.32 199.5 742.66C200.22 744.4 201.51 745.9 203.09 746.86C203.88 747.36 204.75 747.68 205.66 747.92C206.55 748.16 207.53 748.24 208.45 748.17C210.29 748.03 212.07 747.35 213.52 746.13C214.97 744.93 216.009 743.33 216.479 741.55C216.719 740.65 216.83 739.74 216.78 738.78C216.75 738.27 216.68 737.75 216.57 737.25L216.49 736.92L216.46 736.81L216.399 736.6C215.939 735.11 215.48 733.62 215.02 732.13C214.11 729.19 213.21 726.24 212.28 723.23C211.34 720.22 210.29 717.17 209.26 713.98C209.15 711.73 209.92 713.67 210.67 715.68C211.4 717.69 212.2 719.74 211.93 717.78C211.01 714.83 208.36 706.02 207.93 701.99C207.76 700.01 208.19 701.37 208.97 703.92C209.72 706.48 210.82 710.25 211.67 713.19C210.48 708.41 209.43 704.17 208.5 700.39C207.59 696.61 206.75 693.31 205.97 690.42C205.18 687.53 204.5 685.05 203.91 682.91C203.31 680.77 202.74 678.98 202.22 677.48C200.12 671.47 198.58 669.99 197.14 668.79C196.74 665.88 196.37 663.18 196.03 660.65C195.84 659.39 195.66 658.17 195.49 656.98C195.33 655.79 195.17 654.64 195.02 653.52C194.86 652.4 194.7 651.32 194.54 650.26C194.38 649.28 194.23 648.31 194.08 647.37C193.89 646.08 193.6 644.81 193.43 643.58C194.08 642.99 194.72 642.39 195.35 641.75C196.16 640.91 196.97 640.07 197.79 639.22C199.75 637.15 201.65 634.96 203.59 632.55C206.39 630.32 209.93 627.12 210.68 626.82C211.05 626.67 210.73 627.25 209.24 629.02C207.73 630.77 205.09 633.76 200.53 638.17C203.16 635.74 208.37 630.74 214.32 624.26C215.81 622.65 217.35 620.94 218.91 619.17C219.69 618.28 220.48 617.38 221.27 616.46L221.7 615.96C221.8 615.83 221.96 615.71 222.06 615.62C222.47 615.27 222.89 614.91 223.31 614.55C227.04 611.34 230.879 608.03 234.649 604.78C235.589 603.96 236.52 603.15 237.45 602.35C238.35 601.52 239.24 600.69 240.12 599.87C241.87 598.22 243.579 596.62 245.229 595.07C248.509 591.96 251.55 589.1 254.06 586.56C259.01 581.42 262.18 577.87 262.09 577.28C262.96 576.59 264.26 575.4 265.78 573.94C266.53 573.21 267.34 572.42 268.18 571.6C269 570.77 269.819 569.88 270.649 569.01C273.939 565.51 277.1 562 278.3 560.6C283.81 555 287.85 550.48 291.37 546.72C294.87 542.94 297.8 539.85 300.58 536.66C303.38 533.49 306.18 530.33 309.55 526.53C312.92 522.72 316.7 518.13 321.68 512.25L315.899 518.55C318.959 513.16 323.049 508.25 328.189 502.15C330.769 499.11 333.69 495.84 336.86 492.05C340.02 488.25 343.52 484.03 347.33 479.13L347.08 479.84C351.11 474.96 354.43 470.93 357.21 467.56C359.92 464.14 362.099 461.39 363.899 459.12C367.459 454.56 369.39 451.83 371.04 449.52C372.69 447.21 374.01 445.26 376.25 442.18C378.53 439.12 381.69 434.87 386.89 427.88L398.39 412.43L381.8 422.57C378.42 424.64 374.01 427.33 368.67 430.6C369.77 430.4 370.9 430.25 372.03 430.09C371.34 431.42 368.41 433.81 363.95 436.89C359.46 439.94 353.6 443.93 347.03 448.4C343.79 450.71 340.35 453.11 336.87 455.65C333.44 458.25 329.9 460.91 326.42 463.67C323 466.5 319.54 469.31 316.28 472.22C313.06 475.17 309.88 478.04 307.03 480.98C310.06 478.45 313.2 476.05 316.27 473.59C309.98 479.93 300.23 487.73 290.61 495.87C281.01 504 271.63 512.56 265.66 519.37C264.3 520.81 265.2 519.53 266.88 517.36C268.61 515.23 271.08 512.18 272.82 510.04C268.77 514.38 265.67 517.71 263.43 520.38C261.16 523.03 259.59 524.87 258.61 526.23C256.6 528.92 256.6 529.42 256.89 529.66C257.18 529.9 257.75 529.9 256.92 531.57C256.07 533.24 253.83 536.61 248.68 543.74C246.36 546.07 247.07 544 246.59 543.72C246.35 543.58 245.82 543.9 244.46 545.45C243.09 546.99 240.92 549.79 237.51 554.68C233.83 559.36 224.779 574.17 215.979 592.06C213.779 596.53 211.579 601.19 209.479 605.94L209.1 606.85L208.86 607.17L208.74 607.33L208.479 607.65L206.1 610.51C204.5 612.4 202.88 614.26 201.25 616.07C200.74 616.64 200.23 617.2 199.72 617.76C199.34 618.16 198.97 618.55 198.6 618.94C197.85 619.71 197.09 620.43 196.36 621.08C195.63 621.73 194.92 622.3 194.27 622.77C193.94 623 193.63 623.21 193.33 623.39L193.28 623.42C193.28 623.42 193.24 623.44 193.25 623.39V623.18L193.22 622.74C193.21 622.45 193.199 622.15 193.189 621.87C193.169 622.48 193.16 623.09 193.14 623.67V623.77C193.14 623.77 193.16 623.77 193.17 623.77H193.24L193.39 623.74C193.49 623.73 193.58 623.72 193.67 623.71C194.03 623.68 194.32 623.69 194.36 623.92C194.4 624.15 194.189 624.61 193.479 625.47C193.129 625.91 192.65 626.43 192.02 627.09L191.96 627.15L191.939 627.1L191.91 626.98C191.89 626.89 191.87 626.8 191.84 626.7C191.8 626.5 191.75 626.3 191.7 626.08C191.6 625.62 191.5 625.12 191.38 624.57C190.91 621.5 190.48 617.68 190.11 613.83C189.88 611.24 189.639 608.57 189.399 605.84C189.139 602.61 188.88 599.31 188.62 596C188.16 589.36 187.69 582.64 187.24 576.13C187.01 572.88 186.79 569.69 186.57 566.59C186.53 566.06 186.49 565.53 186.45 565C186.42 564.64 186.39 564.29 186.35 563.94L186.32 563.68C186.3 563.62 186.33 563.42 186.24 563.55L186.06 563.71L186.22 563.51C186.43 563.24 186.64 562.97 186.84 562.7C187.2 562.19 189.21 559.58 190.51 557.74C191.9 555.79 193.15 553.92 194.25 552.15C196.37 549.78 197.27 548.95 197.5 548.96C200.29 545.08 203.95 539.99 207.89 534.35C209.84 531.52 211.88 528.56 213.95 525.56C214.92 524.12 215.9 522.67 216.87 521.22C216.98 521.01 217.22 520.78 217.32 520.67L218.2 519.76C218.84 519.1 219.48 518.45 220.11 517.79C222.64 515.17 225.14 512.59 227.51 510.14C229.88 507.68 231.989 505.23 233.979 503.03C237.899 498.59 241.11 494.97 242.77 492.61C244.71 491.43 247.4 489.15 250.61 486.09C252.22 484.56 253.96 482.83 255.81 480.94C257.64 479.03 259.55 476.95 261.55 474.75C269.58 465.98 278.68 455.09 287.33 444.56C304.62 423.5 319.91 403.76 321.56 405.4C333.9 390.38 346.099 375.25 358.189 360.03L357.6 361.51C374.77 340.44 383.2 328.8 389.29 319.79L405.149 296.34L382.899 312.68C379.569 315.13 376.71 317.3 373.86 319.48C370.11 321.67 369.54 321.87 369.93 321.39C370.32 320.91 371.72 319.83 371.96 319.53C370.49 320.41 369.09 321.32 367.74 322.23C366.38 323.12 365.07 323.99 363.79 324.84C361.24 326.55 358.78 328.1 356.54 329.68C352.06 332.87 348.02 335.66 344.43 338.35C340.88 341.09 337.66 343.57 334.63 345.89C331.69 348.32 328.95 350.62 326.28 352.89C325.61 353.46 324.95 354.02 324.29 354.59L322.36 356.34C321.08 357.52 319.8 358.7 318.5 359.9C317.21 361.11 315.9 362.34 314.55 363.6C313.24 364.9 311.9 366.24 310.51 367.63C309.13 369.03 307.7 370.47 306.2 371.98C304.7 373.48 303.22 375.15 301.62 376.84C300.04 378.55 298.37 380.35 296.62 382.24C294.92 384.18 293.129 386.23 291.229 388.39C289.769 389.2 288.28 389.98 286.84 390.82C284.92 393.3 280.359 397.97 274.479 404.63C271.459 407.89 268.259 411.76 264.649 415.91C261.169 420.15 257.36 424.72 253.56 429.71C245.9 439.65 237.9 450.99 230.58 463.06C223.25 475.12 216.6 487.9 211.37 500.43C211.44 499.88 211.63 498.72 213.29 494.74C211.74 498.24 210.179 501.83 208.649 505.52C208.269 506.45 207.89 507.38 207.5 508.31L207.1 509.31C207.03 509.55 206.859 509.73 206.729 509.94C205.619 511.53 204.5 513.14 203.38 514.75C201.07 518.03 198.69 521.32 196.26 524.61L194.43 527.07L193.439 528.36L191.59 530.7C190.36 532.23 189.149 533.69 187.979 535.06L186.25 537.04L185.41 537.97L185.2 538.2C185.15 538.28 185.16 538.2 185.16 538.13V537.94L185.14 537.17C185.11 535.22 185.09 533.28 185.06 531.37C185.04 529.54 185.1 527.83 185.11 526.21C185.11 525.35 185.13 524.5 185.13 523.65C185.1 521.76 185.07 519.88 185.05 518.03C184.98 514.33 184.91 510.73 184.84 507.24C184.81 505.5 184.73 503.78 184.74 502.1C184.74 500.42 184.74 498.76 184.75 497.14C184.75 493.9 184.72 490.8 184.67 487.86C184.38 476.07 184.03 466.79 182.83 461.27C182.9 454.71 182.84 448.13 183.04 441.56L183.09 439.1L183.11 438.04V437.23L183.12 435.58V434.75V434.54C183.15 434.49 183.22 434.46 183.27 434.42L183.59 434.18L184.899 433.22L186.29 432.18C187.65 431.19 188.99 430.18 190.32 429.15C189 430.1 187.74 430.96 186.56 431.74C186.09 432.05 185.64 432.35 185.21 432.64C184.82 432.88 184.45 433.11 184.1 433.34C183.74 433.56 183.4 433.78 183.06 433.99C182.91 434.11 182.69 434.17 182.61 434.32C182.59 434.5 182.58 434.68 182.56 434.86C182.5 435.57 182.44 436.21 182.38 436.79C182.24 438.19 182.12 439.31 182.03 440.19C181.92 441.22 181.81 441.96 181.72 442.46C181.35 444.45 181.15 442.55 180.99 439.7C180.91 438.41 180.819 436.91 180.729 435.52C180.679 434.82 180.64 434.16 180.59 433.56C180.58 433.41 180.57 433.26 180.55 433.11C180.6 433 180.72 432.94 180.79 432.85C180.96 432.69 181.11 432.54 181.24 432.41C181.76 431.88 181.94 431.58 181.43 431.75C181.17 431.84 180.74 432.04 180.09 432.39C180.01 432.43 179.92 432.48 179.84 432.53C179.8 432.56 179.74 432.57 179.72 432.61L179.7 432.76C179.67 432.96 179.65 433.18 179.62 433.42C179.57 433.9 179.509 434.45 179.439 435.08C179.469 434.46 179.49 433.84 179.52 433.2L179.54 432.72C179.55 432.64 179.54 432.55 179.57 432.49L179.77 432.36L180.58 431.82C181.66 431.09 182.799 430.39 183.899 429.62C186.179 428.1 188.51 426.5 190.74 424.94C195.2 421.81 199.33 418.75 202.3 416.51C205.28 414.27 207.169 412.91 207.189 413.18C207.189 413.45 205.37 415.41 200.61 419.47L197.399 421.73C194.599 425.66 207.78 416.16 219.75 403.81C221.26 402.29 222.75 400.72 224.2 399.15C224.92 398.36 225.64 397.58 226.35 396.8C226.69 396.43 227.02 396.06 227.35 395.69C227.45 395.57 227.58 395.44 227.71 395.33L228.17 394.91C231.18 392.18 234.01 389.62 236.46 387.45C238.91 385.28 240.97 383.51 242.42 382.35C243.84 381.15 244.67 380.58 244.71 380.88C248.24 377.38 251.77 373.88 255.3 370.39L257.939 367.77L260.51 365.09L265.64 359.74C272.56 352.67 279.13 345.35 285.8 338.14C298.91 323.52 311.78 308.85 324.13 293.91C336.53 279.01 348.64 264.03 360.37 248.92C372.12 233.8 383.569 218.71 394.649 203.31L410.42 181.37L386.71 194.35C377.37 199.46 368.17 204.74 359.54 210.75C355.13 213.62 350.97 216.81 346.74 219.89C344.62 221.42 342.63 223.11 340.57 224.71L337.51 227.14L335.979 228.36L334.5 229.62C336.12 228.68 337.809 227.83 339.479 226.96L344.479 224.38L337.939 229.55C335.789 231.31 333.7 233.14 331.57 234.93L328.39 237.63L325.3 240.43C323.25 242.3 321.169 244.15 319.149 246.05C315.839 248.91 313.43 250.66 314 249.61C314.28 249.09 315.31 247.87 317.34 245.74C319.35 243.6 322.539 240.72 326.939 236.69C324.419 238.58 321.34 241.26 318.17 244.24C315.1 247.33 311.85 250.64 309.04 253.85C306.26 257.09 303.73 260.04 301.99 262.32C300.25 264.61 299.179 266.12 299.149 266.32C295.099 270.5 292.41 273.55 290.51 275.5C288.63 277.46 287.65 278.39 287.32 278.57C286.64 278.91 288.54 276.23 291.18 272.81C293.76 269.36 297.19 265.29 299.33 262.7C301.46 260.11 302.31 259.02 299.88 261.65C297.71 264.07 295.52 266.46 293.37 268.9L287.05 276.3L290.12 273.16C288.91 274.72 287.85 276.11 286.89 277.4C285.96 278.71 285.11 279.9 284.3 281.04C282.7 283.34 281.18 285.38 279.52 287.82C276.15 292.66 271.59 298.59 263.28 310.18C257.93 317.45 256.35 319.18 255.58 319.8C254.81 320.42 254.84 319.93 252.82 322.87C252.77 322.81 252.38 323.26 251.46 324.65C250.55 326.05 249.03 328.33 246.83 332C239.28 343.79 232.2 355.88 225.62 368.26C228.74 363.57 231.94 358.94 235.2 354.37C230.97 362.64 226.38 371.34 224.18 375.96C222.01 380.6 222.03 381 227.28 372.86C225.33 375.83 222.75 380.23 219.84 385.77C219.66 386.12 219.48 386.47 219.3 386.82C219.18 387.05 219.05 387.28 218.93 387.52C218.83 387.77 218.629 387.95 218.439 388.14C218.229 388.36 218.01 388.59 217.79 388.81C216.66 390.01 215.469 391.25 214.229 392.51C211.749 395.04 209.079 397.7 206.189 400.39C204.749 401.73 203.269 403.1 201.729 404.46C200.969 405.15 200.189 405.83 199.399 406.51L198.21 407.54L197.399 408.22C195.329 409.95 193.3 411.55 191.14 413.15C190.06 413.94 188.97 414.73 187.86 415.49C187.31 415.88 186.75 416.25 186.18 416.63L185.34 417.2C185.34 417.2 185.26 417.27 185.24 417.25V417.12L185.28 416.84L185.33 416.28C185.59 413.33 185.85 410.36 186.11 407.4C186.36 404.45 186.61 401.52 186.86 398.63C187.39 394.13 187.91 389.7 188.41 385.39C188.92 381.06 189.41 376.86 189.88 372.83C190.36 368.8 191.02 364.96 191.53 361.33C193.56 346.81 195.78 335.94 196.71 331.75L196.86 330.57L196.93 329.84L197 329.12C197.04 328.89 196.99 328.61 197.18 328.46L198.05 327.34L199.49 325.52C201.53 322.93 203.51 320.33 205.49 317.71C209.44 312.47 213.37 307.16 217.39 301.7C218.39 300.33 219.41 298.96 220.42 297.58L221.12 296.63C221.28 296.39 221.45 296.16 221.68 295.98C222.25 295.46 222.819 294.93 223.399 294.4C226.009 292.02 228.65 289.6 231.35 287.13C233.97 284.6 236.58 281.95 239.28 279.29C240.62 277.95 242 276.61 243.36 275.23C244.69 273.82 246.039 272.4 247.399 270.96C244.569 273.71 242.01 275.61 242.5 274.35C242.75 273.72 243.76 272.3 245.88 269.81C246.94 268.56 248.279 267.05 249.939 265.23C250.779 264.33 251.69 263.34 252.68 262.27C253.66 261.19 254.71 260.01 255.85 258.75C254.94 261.28 256.64 260.3 259.97 257.15C261.63 255.58 263.71 253.46 266.06 250.98C268.38 248.47 270.94 245.56 273.68 242.47C275.04 240.92 276.45 239.33 277.88 237.7C279.28 236.06 280.709 234.39 282.149 232.71C285.029 229.36 287.93 225.99 290.72 222.74C296.25 216.2 301.53 210.34 305.46 206.41C302.05 210 303.31 207.95 306.77 203.22C310.27 198.52 315.85 191.04 321.22 183.83C331.88 169.37 341.37 155.8 331.14 167.42C344.87 149.32 333.2 167.23 344.13 153.86C349.36 146.28 354.76 138.43 360.38 130.27L374.3 110.07L353.36 122.75C332.56 135.34 312.09 151.47 293.12 170.45C274.13 189.41 256.61 211.14 241.33 234.63C241.21 235.8 248.09 226.85 240.79 239.32C233.61 248.77 226.74 258.48 220.2 268.46C217.09 274.37 216.329 277.45 214.729 281.63C214.329 282.67 213.89 283.79 213.34 285.04C213.08 285.62 212.8 286.24 212.51 286.91C212.43 287.11 212.339 287.32 212.189 287.51C211.999 287.78 211.79 288.06 211.59 288.34C209.52 291.14 206.74 294.59 202.75 299.07C205.15 296.65 208.73 293.03 203.55 300.13C199.27 305.5 194.949 310.86 190.479 316.05L198.5 319.91C199.19 316.81 199.89 313.72 200.58 310.62C201.28 307.52 201.93 304.41 202.74 301.33C204.28 295.16 205.83 288.97 207.38 282.78C208.17 279.69 208.87 276.57 209.72 273.49C210.6 270.42 211.48 267.34 212.35 264.26C213.22 261.18 214.1 258.1 214.97 255.02L216.26 250.45L216.46 249.73C216.53 249.53 216.69 249.31 216.78 249.16L217.89 247.31C231.61 225.03 243.27 201.54 253.92 177.63C264.55 153.7 274.11 129.29 283.04 104.69C285.23 98.5202 287.51 92.3902 289.62 86.1902L292.84 76.9202L295.97 67.6301C300.13 55.2101 304.17 42.84 307.99 30.25L317.17 0L298.63 25.8301C285.31 44.3801 272.839 63.4701 261.439 83.1101C263.809 79.2201 265.25 76.99 265.99 76.02C266.71 75.05 266.689 75.3102 266.149 76.4402C265.589 77.5502 264.57 79.55 263.28 82.04C262 84.53 260.37 87.4601 258.81 90.5601C263.21 82.6901 259.85 91.3401 261.31 90.1001C252.13 106.33 243.609 122.97 235.939 140.03C234.889 145.12 229.4 159.09 224.74 172.78C220.04 186.46 216.21 199.86 216.35 202.93C217.84 197.21 219.43 191.53 221.11 185.86C219.88 191.65 220.21 192.66 221.36 191C222.51 189.34 224.52 185.01 226.85 180.15C229.14 175.28 231.769 169.88 233.899 165.97C236.069 162.07 237.72 159.65 238.1 160.7C241.43 148.04 248.81 132.43 257.72 115.39C258.81 113.25 259.98 111.11 261.14 108.93C262.3 106.76 263.48 104.56 264.66 102.34C267.06 97.9201 269.51 93.4201 271.99 88.8501C276.89 79.7001 281.98 70.36 286.72 60.75C289.45 56.9 288.59 58.73 287.45 61.03C286.29 63.31 284.97 66.1401 286.52 64.1401C290.45 55.7901 295.74 46.2701 306.5 31.3201L298.729 27.6501C297.959 30.1801 296.96 33.3901 295.84 36.8101L296.33 34.1001C291.54 50.4401 286.97 64.3501 282.56 77.1401C280.33 83.5301 278.18 89.6601 275.93 95.6401C274.82 98.6401 273.71 101.61 272.61 104.58C271.46 107.53 270.32 110.47 269.16 113.44C268 116.4 266.869 119.38 265.649 122.37C264.429 125.36 263.19 128.38 261.93 131.46C259.46 137.63 256.7 143.93 253.82 150.62C253.1 152.29 252.37 153.99 251.63 155.71C250.88 157.43 250.08 159.15 249.28 160.9C247.68 164.41 246.04 168.04 244.33 171.79C243.9 172.73 243.48 173.67 243.04 174.63C242.58 175.57 242.13 176.53 241.66 177.49C240.73 179.41 239.79 181.37 238.83 183.36C237.87 185.35 236.899 187.38 235.899 189.45C235.399 190.48 234.899 191.53 234.399 192.58C233.869 193.62 233.33 194.67 232.78 195.73C234.05 194.26 235.33 192.79 236.54 191.27C235.67 193.13 234.8 194.76 234.02 196.25C233.23 197.73 232.53 199.07 231.88 200.28C230.58 202.7 229.51 204.64 228.57 206.33C227.61 208.01 226.79 209.46 225.96 210.9C225.09 212.31 224.22 213.72 223.22 215.35C221.45 219.72 221.94 219.4 223.59 216.69C224.41 215.34 225.52 213.39 226.78 211.13C227.95 208.83 229.28 206.23 230.61 203.62C236.04 193.23 241.02 182.34 238.49 190.65C237.05 192.99 235.06 196.31 232.77 200.4C231.63 202.45 230.41 204.69 229.12 207.09C228.48 208.29 227.819 209.53 227.149 210.8C226.469 212.07 225.719 213.34 224.979 214.66C223.499 217.3 221.96 220.05 220.38 222.88C218.79 225.72 217.23 228.68 215.42 231.56C213.67 234.47 211.88 237.44 210.09 240.42L208.74 242.66L207.979 243.91C207.609 244.55 207.289 245.04 206.979 245.61C206.439 247.51 205.9 249.41 205.37 251.3C203.42 258.14 201.48 264.93 199.64 271.37C197.98 277.86 196.449 284.02 194.979 289.52C193.549 295.03 192.13 299.87 191.03 303.81C189.95 307.75 189 310.74 188.21 312.49C187.72 314.81 187.34 316.65 187.17 317.63L182.33 344.67L199.3 323.46C203.99 317.59 201.97 319.38 200.72 320.35C200.08 320.83 199.63 321.11 200.26 320.14C200.89 319.16 202.62 316.94 206.21 312.36L211.07 307.53L214.07 301.69C215.36 300.04 216.57 298.49 217.7 297.04C218.27 296.32 218.82 295.63 219.35 294.96C219.62 294.63 219.88 294.3 220.14 293.98C220.43 293.61 220.86 293.08 221.18 292.64C221.44 292.16 221.7 291.69 221.95 291.23C222.13 290.91 222.31 290.59 222.49 290.28C222.85 289.66 223.2 289.08 223.53 288.51C224.19 287.39 224.82 286.39 225.39 285.5C227.69 281.95 229.16 280.22 229.64 280.12C228.66 281.85 227.37 284.38 226.13 286.96C225.51 288.25 224.89 289.55 224.31 290.77C223.99 291.44 223.689 292.09 223.399 292.7C223.149 293.15 223.01 293.64 222.7 294.02C222.42 294.41 222.15 294.78 221.89 295.14C222.23 294.71 222.58 294.27 222.93 293.82C223.2 293.32 223.47 292.81 223.74 292.3C224.07 291.69 224.42 291.07 224.76 290.43C225.45 289.16 226.18 287.83 226.92 286.47C228.41 283.74 229.99 280.86 231.6 277.91C234.85 272.01 238.32 265.85 241.66 260.12C248.34 248.65 254.58 238.95 256.79 236.04C252.1 242.56 247.579 249.2 243.229 255.96C256.869 233.12 273.82 209.53 293.45 187.96C313.09 166.43 335.519 147.01 359.189 132.6L350.91 123.72C341.7 137.17 332.62 150.12 324.07 162.32L327.62 158.63C323.97 163.87 320.79 168.28 318.01 172.09C315.24 175.92 312.83 179.13 310.67 181.94C308.51 184.76 306.61 187.21 304.83 189.47C303.03 191.72 301.33 193.79 299.61 195.89C292.74 204.27 285.47 213.14 267.71 234.8L268.91 233.15C267.22 235.39 265.37 237.79 263.38 240.32C262.38 241.58 261.35 242.88 260.3 244.2C259.24 245.52 258.11 246.83 256.97 248.17C254.69 250.86 252.31 253.62 249.85 256.43C247.4 259.24 244.759 261.96 242.149 264.75C246.679 259.34 241.869 263.92 237.439 268.08C232.939 272.16 228.73 275.68 234.92 268.93C232.56 271.4 230.43 273.64 228.49 275.68C226.55 277.71 224.84 279.59 223.18 281.11C219.86 284.32 217.28 286.82 215.21 288.82C215 289.02 214.8 289.21 214.6 289.4C214.42 289.58 214.21 289.74 214.08 289.96C213.79 290.36 213.52 290.76 213.25 291.13C212.89 291.65 212.56 292.14 212.25 292.59C211.63 293.51 211.09 294.3 210.61 295.01C209.66 296.43 208.97 297.5 208.38 298.45C207.21 300.38 206.35 301.81 204.59 304.71C202.79 307.58 200.08 311.93 194.77 319.31L191.54 322.22L189.46 324.15L188.93 324.64C188.82 324.84 188.79 325.08 188.72 325.29L188.33 326.64C188.27 327.16 188.21 327.66 188.16 328.16C188.13 328.4 188.11 328.64 188.08 328.88C188.06 329.06 188.05 329.25 188.03 329.43C187.97 330.13 187.91 330.8 187.85 331.45C187.74 332.74 187.63 333.92 187.53 335.07C187.32 337.37 187.11 339.56 186.79 342.22C186.62 343.55 186.43 345 186.22 346.64C186.02 348.29 185.8 350.13 185.54 352.24C185.01 356.46 184.31 361.76 183.34 368.74C185.82 345.74 179 386.32 181.58 360.5C180.9 364.15 180.18 367.67 179.66 371.1C179.17 374.54 178.7 377.87 178.24 381.1C177.82 384.33 177.41 387.46 177.02 390.49C176.84 392.01 176.659 393.5 176.479 394.97C176.389 395.7 176.31 396.43 176.22 397.16L176.189 397.43L176.16 397.81L176.11 398.57C176.08 399.07 176.04 399.58 176.01 400.08C175.46 408.1 175 415.55 174.6 422.43C174.41 425.83 174.22 429.13 174.04 432.34C173.95 433.92 173.87 435.47 173.78 437L173.75 437.57C173.75 437.74 173.68 438.03 173.84 437.92L174.86 437.2C175.54 436.72 176.21 436.25 176.88 435.78C182.19 432.02 186.9 428.63 191.39 425.27C195.87 421.87 200.14 418.42 204.08 415.05C206.98 412.56 209.78 410.16 212.52 407.82C215.23 405.49 217.91 403.23 220.62 401.01C224.8 395.39 224.5 394.89 222.04 397.17C219.56 399.44 214.73 404.34 209.38 409.25C208.03 410.47 206.68 411.71 205.32 412.9L204.3 413.8L203.78 414.25L203.11 414.82C202.22 415.57 201.339 416.32 200.479 417.05C198.739 418.48 197.039 419.86 195.479 421.07C193.909 422.25 192.48 423.4 191.22 424.29C186.19 427.95 184.08 429.32 188.11 426.29C184.88 428.27 184.9 427.94 186.79 426.29C188.69 424.63 192.42 421.64 196.82 417.84C197.91 416.88 199.07 415.9 200.21 414.86C201.33 413.84 202.62 412.7 203.54 411.82C205.56 409.94 207.63 407.94 209.67 405.92C213.76 401.9 217.68 397.75 220.86 394.34C221.7 393.42 222.53 392.52 223.35 391.63C223.87 391.18 224.11 390.54 224.42 389.96L225.25 388.38C226.32 386.4 227.43 384.46 228.61 382.49C230.98 378.54 233.64 374.43 236.77 369.61C239.9 364.8 243.52 359.24 247.96 352.42C252.38 345.61 257.59 337.56 264.09 327.82C261.48 331.68 261.529 332.09 258.979 335.97C264.029 328.81 268.64 321.58 273.77 314.1C278.87 306.6 284.59 298.9 291.86 290.99C293.43 288.4 295.27 285.7 297.32 283.2C299.36 280.69 301.45 278.25 303.39 276.03C307.36 271.67 310.5 268 310.88 265.98C301.13 276.49 291.95 287.53 283.29 298.96C290.51 289.14 297.47 279.53 306.42 268.97C308.61 266.29 311.06 263.67 313.57 260.89C316.06 258.09 318.86 255.36 321.76 252.45C322.49 251.73 323.229 251 323.979 250.26C324.749 249.55 325.54 248.83 326.33 248.1C327.93 246.66 329.57 245.17 331.25 243.65C332.92 242.11 334.76 240.68 336.59 239.16C338.45 237.66 340.32 236.08 342.33 234.56C341.25 235.72 338.589 238.42 335.399 241.47C333.789 242.98 332.14 244.67 330.5 246.33C328.86 247.98 327.24 249.6 325.79 251.05C334.82 243.56 342.34 235.64 352.39 228.75C352.04 229.72 349.39 232.31 345.25 235.83C343.15 237.56 340.85 239.73 338.22 241.99C336.92 243.14 335.53 244.3 334.16 245.57C332.79 246.84 331.37 248.15 329.91 249.49C328.47 250.84 326.94 252.17 325.49 253.61C324.03 255.05 322.55 256.5 321.06 257.96C318.04 260.84 315.2 263.97 312.34 266.96C310.91 268.45 309.56 269.99 308.24 271.5C306.93 273.02 305.64 274.5 304.38 275.95C301.91 278.87 299.71 281.74 297.74 284.33C298.86 283.23 300.19 281.81 301.64 280.18C302.36 279.36 303.11 278.5 303.89 277.61C304.68 276.73 305.5 275.82 306.33 274.89C307.98 273.02 309.68 271.08 311.35 269.18C313.06 267.32 314.73 265.5 316.26 263.83C319.3 260.45 322 257.87 323.35 256.68C324.72 255.52 324.819 255.86 322.939 258.59C328.429 250.82 337.06 243.16 347.33 235.12C357.63 227.09 369.61 218.8 382.53 209.76C382.16 210.5 381.809 211.26 381.479 212.04C383.889 210.42 387.9 207.92 392.42 205.11L384.56 196.23C382.56 199.32 380.27 202.69 378 205.79C379.93 202.41 381.86 198.99 383.71 195.63L392.91 206.02L388.75 209.02C390.19 208.09 391.63 207.18 393.05 206.3L383.45 195.46C376.97 205.39 369.77 214.54 362.58 223.47C358.99 227.95 355.35 232.36 351.82 236.87C348.25 241.35 344.74 245.88 341.37 250.58C345.32 245.44 348.42 241.45 350.85 238.38C353.26 235.3 354.98 233.12 356.22 231.64C358.69 228.66 359.21 228.39 359.18 228.9C359.12 229.9 356.93 233.99 363.95 225.52C345.45 251.73 338.82 258.27 331.72 265.61C324.46 272.82 316.81 280.94 293.88 308.4C296.92 304.63 303.02 297.89 307.08 293.46C311.14 289.04 313.31 287.09 308.74 293.15C306.53 295.75 304.08 298.5 301.58 301.27C299.07 304.04 296.52 306.85 294.09 309.54C289.19 314.89 284.54 319.56 281.52 322.47C279.58 324.71 277.9 326.64 276.46 328.31C275 329.96 273.77 331.34 272.75 332.49C270.72 334.8 269.539 336.2 268.979 336.94C267.849 338.42 269.19 337.26 271.11 335.48C274.95 331.93 281.15 325.9 274.67 333.64C271.63 336.33 269.16 338.77 266.95 341.18C265.85 342.38 264.81 343.58 263.8 344.78C262.76 345.96 261.76 347.16 260.74 348.39C258.71 350.87 256.589 353.47 254.149 356.45C252.919 357.93 251.609 359.52 250.149 361.18C248.659 362.82 247.04 364.56 245.24 366.44L244.11 365.52C241.69 367.85 239.53 369.94 237.6 371.8C236.64 372.74 235.74 373.62 234.89 374.45C234.02 375.25 233.21 376.01 232.45 376.71C229.41 379.54 227.22 381.67 225.6 383.32C223.98 384.97 222.94 386.13 222.2 387.05C222.02 387.28 221.85 387.49 221.7 387.69C221.62 387.79 221.549 387.89 221.479 387.98L221.38 388.12C221.38 388.12 221.24 388.28 221.18 388.35C220.94 388.65 220.76 388.83 220.6 389.1C220.47 389.32 220.229 389.65 220.189 389.77C219.519 391.08 218.959 392.28 216.439 395.27C213.889 398.23 209.47 403.12 200.28 410.82C204.94 405.89 209.33 400.74 213.47 395.44C207.9 401.53 201.969 407.32 195.729 412.74C196.679 411.21 197.63 409.72 198.54 408.18C193.7 412.82 189.46 416.41 185.54 419.46C184.55 420.21 183.589 420.94 182.649 421.65C182.179 422.01 181.7 422.34 181.24 422.67C180.73 423.03 180.22 423.39 179.72 423.75C178.18 424.8 176.66 425.83 175.16 426.85C174.41 427.35 173.67 427.86 172.92 428.36L172.64 428.55C172.62 428.66 172.62 428.77 172.61 428.88L172.57 429.55L172.49 430.89C172.3 433.98 172.12 437.07 171.93 440.25C171.78 442.58 171.62 444.99 171.45 447.54C171.19 452.64 170.78 458.31 170.5 465.16C171.09 461.99 171.72 462.91 172.14 467.64C172.37 470 172.46 473.32 172.62 477.56C172.78 481.8 172.87 486.95 172.87 493C172.42 501.25 172.08 498.95 171.87 498.86C171.76 498.82 171.689 499.33 171.649 502C171.629 504.67 171.83 509.49 172.13 518.07C171.56 514.21 170.93 510.16 170.55 505.2C170.32 502.72 170.36 500.01 170.41 496.99C170.49 493.97 170.67 490.63 171.02 486.89C170.55 485.36 170.13 479.23 169.67 477.64C169.41 482.09 169.26 487.12 169.18 492.36C169.12 497.59 169 503.03 169.28 508.29C169.49 513.55 169.7 518.65 169.89 523.2C170.02 526.72 170.15 530.03 170.27 533.07C170.33 534.71 170.389 536.28 170.439 537.76C170.519 539.2 170.59 540.56 170.66 541.83C170.44 537.94 170.38 533.48 170.3 529.47C170.28 527.56 170.249 525.73 170.229 524.1C170.229 523.07 170.25 522.16 170.28 521.43L170.5 524.6L170.78 529.66L171.06 534.65L171.2 537.12L171.38 539.51L172.11 548.92L172.95 558.01L173.78 566.85L174.189 571.18L174.24 571.72C174.27 571.86 174.22 572.23 174.39 571.93L175.149 570.95L176.67 569C180.68 563.83 184.5 558.86 188.22 553.96C191.71 550.06 192.189 549.8 190.939 551.77C189.709 553.7 186.77 557.67 183.74 561.76C186.18 558.69 188.43 555.79 190.63 552.92C191.72 551.46 192.81 550.01 193.91 548.54C194.99 547.06 196.09 545.55 197.22 544C199.38 540.97 201.67 537.76 204.24 534.15C205.9 531.77 207.75 529.13 209.87 526.09C209.22 527.99 209.29 528.94 208.01 531.57C207.69 532.23 207.29 533 206.77 533.91C206.5 534.36 206.209 534.85 205.899 535.39C205.789 535.58 205.45 536.1 205.13 536.58C204.8 537.06 204.46 537.57 204.11 538.09C201.26 542.29 197.24 547.94 191.63 555.19C195.85 549.76 200.03 544.1 204.06 538.5L205.57 536.4L206.58 534.95L208.27 532.5L211.62 527.58L218.38 517.48L219.08 516.44C219.33 516.1 219.41 515.68 219.59 515.3L220.29 513.51L221.33 510.85C222.04 509.08 222.76 507.31 223.51 505.55C224.37 504.26 227.18 499.07 229.64 494.97C232.1 490.87 234.12 487.83 232.91 490.56C239.11 479.46 246.49 465.66 255.53 451.56C264.45 437.4 275.09 423.01 286.64 410.51C287.14 409.77 287.91 408.68 289.17 407.11C290.45 405.56 292.2 403.5 294.59 400.78C305.59 389.15 316.77 378.98 328.81 368.74C340.88 358.52 353.81 348.21 368.96 336.75C372.13 335.03 375.26 333.25 378.45 331.59L388.07 326.7C389.04 326.05 389.9 325.47 390.47 325.09L377.62 310.79C371.18 319.5 375.58 314.86 378.82 311.72L389.67 323.79C386.8 325.09 384.689 325.88 388.979 322.68L379.85 312.53C378.21 315.01 374.96 319.48 369.39 326.8C347.83 355.1 359.73 336.09 351.52 345.49C341.32 359.96 323.7 385.31 301.41 409.25C308.03 400.69 313.68 394.37 319.97 386.46L320.1 386.61ZM235.649 585.33C233.959 588.46 231.58 593.21 229.32 597.74C227.05 602.26 224.909 606.55 223.399 608.68C225.489 600.75 229.11 595.51 235.64 585.33H235.649ZM195.72 695.58C194.02 690.43 192.76 682.17 191.55 672.83C192.24 676.17 192.93 679.74 193.6 683.54C193.92 685.44 194.26 687.4 194.6 689.4C194.98 691.4 195.35 693.46 195.71 695.57L195.72 695.58ZM104.59 343.9C104.73 344.18 104.829 344.37 104.939 344.6C107.789 352.25 108.739 354.72 108.439 353.95C108.149 353.18 106.61 349.19 104.58 343.9H104.59ZM93.5098 311.91C92.2298 308.75 92.1399 309.03 92.3799 310.46C93.4799 312.58 95.92 319.77 98.79 327.94C98.35 325.54 97.03 321.37 93.5 311.91H93.5098ZM251.29 326.47C252.58 324.69 253.91 322.94 255.24 321.19C247.4 333.82 249.42 330.17 251.29 326.47Z" fill="#839E69"/>
<path d="M193.439 631.471C195.049 630.291 195.64 630.091 196.16 629.961C197.98 627.841 197.829 627.641 193.439 631.471Z" fill="#839E69"/>
<path d="M287.511 409.83L286.771 410.66C286.431 411.18 286.29 411.48 286.23 411.68L287.511 409.83Z" fill="#839E69"/>
<path d="M54.2302 355.551C50.6102 349.801 48.7103 346.491 47.5203 344.241C47.0203 344.141 48.5002 346.871 54.2302 355.551Z" fill="#839E69"/>
<path d="M109.289 258.46L107.179 253.47L104.969 248.51L100.539 238.6C102.649 243.4 103.959 246.71 105.019 249.43C106.059 252.15 106.838 254.27 107.688 256.78C107.828 256.21 106.739 252.18 109.279 258.46H109.289Z" fill="#839E69"/>
<path d="M163.521 436.779C165.031 439.209 166.731 442.64 168.211 444.9L167.651 442.46C164.631 437.08 162.102 432.64 160.992 430.93C159.902 429.23 160.241 430.389 163.521 436.779Z" fill="#839E69"/>
<path d="M112.08 278.83C111.57 280.85 116.72 293.32 121.84 307.48C121.54 306.62 121.26 305.81 120.97 304.96C124.03 308.6 118.31 293.58 112.08 278.83Z" fill="#839E69"/>
<path d="M123.02 310.76C124.61 315.12 126.13 319.61 127.5 323.94C128.1 324.67 127.69 323.32 126.78 320.81C125.89 318.3 124.47 314.64 123.02 310.76Z" fill="#839E69"/>
<path d="M80.4311 271.081C78.9311 264.041 77.7814 267.101 77.2514 263.031C75.5214 259.321 78.8817 270.86 81.6117 278.5C82.9617 282.32 84.1113 285.171 84.1713 284.721C84.2413 284.271 83.1911 280.531 80.4311 271.081Z" fill="#839E69"/>
<path d="M112.57 291.639L112.14 286.059L108.02 278.609C109.55 282.949 111.13 287.269 112.57 291.639Z" fill="#839E69"/>
<path d="M75.499 222.349C74.339 215.609 73.2487 208.859 72.3887 202.059L71.8389 197.769L73.7891 201.589L75.3887 204.719C75.4387 204.279 77.0089 206.899 78.8789 210.159C77.3289 207.219 75.7493 204.209 74.2393 201.329L70.8789 194.949L71.8789 202.119C73.4389 213.349 75.269 222.829 75.499 222.339V222.349Z" fill="#839E69"/>
<path d="M78.8906 210.17C79.7806 211.88 80.7205 213.55 81.5205 215.2C82.3405 216.85 83.1311 218.44 83.8711 219.93C85.3711 222.91 86.7105 225.5 87.7705 227.37C86.8405 225.5 85.371 222.55 83.791 219.38C82.991 217.8 82.1613 216.16 81.3613 214.57C80.5213 213 79.6606 211.5 78.8906 210.16V210.17Z" fill="#839E69"/>
<path d="M100.4 261.2C99.6304 258.96 98.841 256.73 98.001 254.52L94.7412 246.7L93.1113 242.79L91.3906 238.92C93.0206 242.58 94.4705 246.31 95.9805 250.02C97.4705 253.74 99.0104 257.43 100.4 261.19V261.2Z" fill="#839E69"/>
<path d="M171.229 460.58C171.739 461.39 172.3 462.2 172.78 463.03L172.76 465.92L172.71 472.46C172.63 476.83 172.79 481.2 172.82 485.57C173.07 486.91 173.28 485.79 173.41 483.12C173.55 480.45 173.52 476.23 173.58 471.35C173.54 469.78 173.5 468 173.46 466.26C173.44 465.44 173.419 464.64 173.399 463.88C173.389 463.51 173.39 463.14 173.36 462.8C173.16 462.51 172.96 462.23 172.78 461.97C171.32 459.92 170.44 458.77 171.24 460.57L171.229 460.58Z" fill="#839E69"/>
<path d="M136.631 389.25C139.761 395.55 139.781 396.09 141.311 399.8L143.321 399.53C142.171 397.84 141.07 396.12 139.94 394.42C138.82 392.71 137.681 391.01 136.621 389.26L136.631 389.25Z" fill="#839E69"/>
<path d="M173.688 455.839C173.908 456.079 174.399 456.759 175.049 457.699C175.459 458.299 175.919 458.979 176.429 459.709C176.689 460.089 176.959 460.489 177.229 460.899C177.369 461.109 177.508 461.309 177.648 461.519C177.748 461.619 177.749 461.739 177.739 461.869V462.249C177.759 463.289 177.769 464.369 177.789 465.449C177.809 466.329 177.829 467.219 177.849 468.079C177.899 469.689 177.939 471.219 177.979 472.469C178.069 474.969 178.159 476.359 178.269 475.059C178.329 474.409 178.389 473.089 178.459 470.899C178.489 469.799 178.529 468.489 178.569 466.939C178.589 465.939 178.618 464.869 178.648 463.709C178.668 463.079 178.679 462.429 178.699 461.749C178.789 461.389 178.539 461.119 178.359 460.829C178.179 460.539 177.989 460.239 177.799 459.939C177.499 459.569 176.939 458.779 176.219 457.749C175.689 456.969 175.029 455.999 174.319 454.959C172.989 452.919 171.488 450.619 170.438 448.999C169.378 447.389 168.759 446.479 169.089 447.299C169.429 448.119 170.729 450.669 173.679 455.839H173.688Z" fill="#839E69"/>
<path d="M44.459 337.15C43.989 334.99 43.5286 332.82 43.0986 330.65L40.2891 332.17C41.6591 333.85 43.059 335.51 44.459 337.15Z" fill="#839E69"/>
<path d="M193.66 659.879C193.97 660.109 194.271 660.329 194.571 660.549C194.721 660.659 194.87 660.769 195.01 660.869L195.3 660.999C195.71 661.199 196.1 661.379 196.44 661.539C194.87 650.149 193.87 643.499 193.14 639.539C192.41 635.549 191.98 634.149 191.55 632.779C191.13 631.409 190.73 630.08 190.1 626.43C189.79 624.6 189.41 622.199 188.95 618.879C188.84 618.049 188.71 617.16 188.58 616.21C188.52 615.73 188.45 615.24 188.39 614.73C188.36 614.41 188.32 614.08 188.29 613.74C188.17 612.41 188.03 610.92 187.87 609.24C187.48 607.47 187.401 608 187.491 609.68C187.541 610.52 187.62 611.65 187.73 612.92C187.79 613.59 187.86 614.289 187.92 615.019C188.06 616.109 188.19 617.219 188.33 618.329C188.89 622.769 189.43 627.129 189.69 629.609C189.95 632.099 189.91 632.689 189.33 629.769C191.3 641.569 192.9 651.129 193.94 657.339C193.68 657.339 193.44 657.319 193.21 657.319C193.08 657.439 192.62 657.069 192.27 656.859C191.57 656.409 190.95 656.02 190.42 655.69C189.4 655.06 188.76 654.729 188.59 654.769C188.26 654.849 189.62 656.3 193.66 659.91V659.879Z" fill="#839E69"/>
<path d="M189.329 629.759C188.539 625.169 187.699 620.369 186.789 615.449C188.129 623.359 188.839 627.299 189.329 629.759Z" fill="#839E69"/>
<path d="M221.471 174.881C219.101 181.191 216.86 187.551 214.73 193.961C216.3 189.881 217.921 185.831 219.591 181.801L221.48 174.881H221.471Z" fill="#839E69"/>
<path d="M212.52 212.621L209.45 216.741C209.03 220.811 208.67 224.891 208.35 228.961C209.24 224.481 211.19 215.851 212.52 212.621Z" fill="#839E69"/>
<path d="M269.57 542.761L270.12 541.301C268.99 542.331 267.68 543.721 266.02 545.811C264.35 547.891 262.21 550.581 259.52 554.281C261.15 552.321 262.8 550.381 264.5 548.471C266.19 546.561 267.83 544.621 269.57 542.751V542.761Z" fill="#839E69"/>
<path d="M215.261 503.08L211.961 506.25L219.321 501.51L215.261 503.08Z" fill="#839E69"/>
<path d="M360.63 330.3C354.84 337.5 348.37 346.24 342.5 353.43C354.87 337.53 363.9 329.7 360.63 330.3Z" fill="#839E69"/>
</svg>
