<svg width="391" height="808" viewBox="0 0 391 808" fill="none" xmlns="http://www.w3.org/2000/svg">
<path d="M239.846 176.824C239.846 176.824 -28.6238 734.264 12.0462 795.724C41.8962 840.834 84.3554 677.334 138.285 492.014C192.215 306.694 269.575 208.684 269.575 208.684L239.846 176.824Z" fill="#9A4B1C"/>
<path d="M236.605 182.034C235.285 180.494 235.035 181.714 234.695 181.624C237.175 183.954 236.735 181.794 236.605 182.034Z" fill="#A66036"/>
<path d="M261.116 204.914L260.406 204.764L261.437 205.494C261.697 205.654 261.916 205.754 262.166 205.904C262.656 206.184 263.177 206.484 263.727 206.824L262.467 205.914C262.037 205.604 261.766 205.454 261.116 204.914Z" fill="#A66036"/>
<path d="M253.387 225.223C254.937 224.463 256.496 222.083 258.116 219.343C258.916 217.963 259.756 216.513 260.656 215.143C261.096 214.453 261.547 213.793 262.007 213.163C262.277 212.793 262.376 212.663 262.536 212.483C262.686 212.303 262.847 212.133 263.017 211.963L263.757 211.623C263.647 210.993 263.456 210.473 263.196 210.043C262.706 210.803 262.236 211.583 261.666 212.583C260.676 214.173 259.657 215.793 258.687 217.353C256.777 220.503 254.937 223.373 253.387 225.233V225.223Z" fill="#A66036"/>
<path d="M241.115 237.323C242.235 236.803 239.676 240.724 243.376 234.104C243.116 234.384 243.015 234.454 242.855 234.614C242.505 235.194 242.005 235.993 241.115 237.323Z" fill="#A66036"/>
<path d="M242.856 234.613C244.576 231.763 241.226 236.153 242.856 234.613Z" fill="#A66036"/>
<path d="M235.086 247.894C235.656 246.534 236.236 245.174 236.846 243.834C235.996 244.394 233.926 247.704 234.426 246.304C232.416 250.344 233.226 249.754 235.086 247.894Z" fill="#A66036"/>
<path d="M234.055 252.113L234.994 250.033C234.644 250.293 234.295 250.773 234.055 252.113Z" fill="#A66036"/>
<path d="M236.996 245.623L234.996 250.033C235.556 249.633 236.076 249.863 235.956 248.033C236.196 248.643 236.246 247.563 236.996 245.623Z" fill="#A66036"/>
<path d="M238.664 243.454C240.284 241.564 242.164 239.004 240.354 243.044C244.574 235.824 242.894 236.214 238.664 243.454Z" fill="#A66036"/>
<path d="M254.006 227.562C254.746 226.743 255.476 225.923 256.236 225.133L257.346 222.473C257.066 223.133 256.076 224.373 255.236 225.453C254.396 226.543 253.726 227.503 254.006 227.562Z" fill="#A66036"/>
<path d="M220.635 271.054C220.825 271.474 222.214 270.254 222.784 270.194L223.994 267.174C222.964 268.494 221.215 271.124 220.625 271.054H220.635Z" fill="#A66036"/>
<path d="M222.795 270.204L220.984 274.724C223.164 271.004 223.285 270.164 222.795 270.204Z" fill="#A66036"/>
<path d="M235.314 253.773L238.234 246.273L234.555 255.094L235.314 253.773Z" fill="#A66036"/>
<path d="M211.784 287.283L212.314 284.453L211.164 289.373L211.784 287.283Z" fill="#A66036"/>
<path d="M206.215 298.194C206.495 296.054 203.905 300.134 204.475 298.014C203.095 301.054 202.365 303.874 201.715 306.404C202.655 303.834 204.025 301.274 206.215 298.184V298.194Z" fill="#A66036"/>
<path d="M200.506 310.614C200.956 309.324 201.316 307.934 201.716 306.414C201.216 307.784 200.796 309.154 200.506 310.614Z" fill="#A66036"/>
<path d="M216.875 281.854C216.505 282.074 215.654 282.434 214.164 284.714L215.975 283.523C216.255 283.013 216.565 282.434 216.885 281.854H216.875Z" fill="#A66036"/>
<path d="M216.036 283.484L215.977 283.524C214.987 285.334 214.296 286.585 213.996 287.125C214.256 286.665 214.866 285.574 216.036 283.484Z" fill="#A66036"/>
<path d="M217.104 281.434C217.024 281.584 216.955 281.704 216.875 281.854C217.055 281.744 217.134 281.664 217.104 281.434Z" fill="#A66036"/>
<path d="M228.116 264.203C227.226 266.963 224.885 272.413 228.455 267.873C228.835 265.753 226.786 268.353 228.116 264.203Z" fill="#A66036"/>
<path d="M219.355 279.973C220.205 278.493 221.146 277.063 222.046 275.603C221.756 275.553 220.956 276.173 221.386 274.803C220.706 276.523 219.985 278.223 219.355 279.963V279.973Z" fill="#A66036"/>
<path d="M218.467 282.343L219.356 279.973L218.387 281.603L218.467 282.343Z" fill="#A66036"/>
<path d="M205.306 303.184C204.716 305.374 203.666 307.554 202.516 310.034C204.006 307.504 205.465 304.843 206.745 302.263C206.635 301.753 206.676 300.354 205.306 303.184Z" fill="#A66036"/>
<path d="M210.525 293.613C210.465 293.753 210.396 293.943 210.346 294.073C210.566 293.843 210.705 293.643 210.525 293.613Z" fill="#A66036"/>
<path d="M190.865 334.304C190.985 334.194 191.096 334.104 191.216 333.994C191.176 333.934 191.136 333.894 191.096 333.824L190.865 334.304Z" fill="#A66036"/>
<path d="M207.137 301.913C208.297 300.033 208.667 298.743 208.937 297.473C208.297 298.993 207.576 300.582 206.746 302.262C206.796 302.492 206.867 302.563 207.137 301.913Z" fill="#A66036"/>
<path d="M197.576 317.553C198.286 316.623 199.037 315.533 199.797 314.383C198.997 315.243 197.516 317.063 197.576 317.553Z" fill="#A66036"/>
<path d="M209.737 294.593C209.777 294.483 209.807 294.393 209.847 294.283C209.307 294.823 209.447 294.793 209.737 294.593Z" fill="#A66036"/>
<path d="M209.735 294.594C209.335 295.664 209.136 296.564 208.936 297.474C209.476 296.244 209.976 295.104 210.346 294.074C210.156 294.284 209.925 294.474 209.745 294.594H209.735Z" fill="#A66036"/>
<path d="M193.485 344.453C192.765 343.713 194.405 338.113 197.455 334.053C198.875 329.313 194.656 330.853 191.226 334.003C191.546 334.313 191.896 334.483 190.266 339.303C191.496 337.913 196.136 329.673 195.126 333.893C192.746 340.153 192.495 338.703 190.655 341.443C191.805 340.443 191.256 342.533 190.806 344.843C190.356 347.143 189.905 349.623 190.995 349.323L192.775 343.713C193.055 343.713 192.605 345.843 193.485 344.463V344.453Z" fill="#A66036"/>
<path d="M195.405 325.303L196.185 323.363C195.025 325.443 193.955 326.813 191.945 329.333C190.895 332.673 190.915 333.473 191.105 333.823L195.575 324.593L195.405 325.303Z" fill="#A66036"/>
<path d="M200.235 314.933C200.435 316.843 198.646 321.523 201.006 319.273C203.666 313.783 202.125 315.063 203.355 311.603C199.185 320.533 204.096 308.813 200.376 314.923C201.086 313.113 201.816 311.523 202.516 310.033C201.606 311.563 200.696 313.033 199.806 314.393C199.866 314.323 199.916 314.273 199.966 314.223L199.985 314.183C199.985 314.183 199.985 314.193 199.995 314.203C200.305 313.883 200.435 313.793 200.155 314.183C200.155 314.213 200.106 314.323 200.086 314.373C200.186 314.493 200.215 314.713 200.245 314.943C198.775 317.403 199.796 315.223 200.086 314.373C200.056 314.323 200.045 314.233 199.995 314.193C199.995 314.193 199.976 314.213 199.966 314.223L198.025 318.773L196.186 323.373C197.216 321.553 198.235 319.133 200.245 314.943L200.235 314.933Z" fill="#A66036"/>
<path d="M227.836 273.553C227.606 273.773 227.546 273.723 227.466 273.713C227.266 274.333 227.226 274.583 227.836 273.553Z" fill="#A66036"/>
<path d="M225.305 276.774C225.525 276.084 225.455 275.354 226.685 273.384C227.945 271.784 227.115 273.634 227.475 273.714C227.915 272.354 229.226 269.064 226.626 272.654L226.405 273.334C224.145 276.614 220.495 280.424 220.725 279.764C222.095 279.194 223.206 278.634 225.296 276.784L225.305 276.774Z" fill="#A66036"/>
<path d="M212.636 296.043C211.476 298.523 210.445 301.073 209.365 303.593L212.046 300.273L211.466 300.213C213.776 296.153 212.756 296.763 212.646 296.053L212.636 296.043Z" fill="#A66036"/>
<path d="M189.995 334.945L189.455 333.484L188.855 338.455L189.995 334.945Z" fill="#A66036"/>
<path d="M185.655 344.723L184.936 343.963L184.336 346.793L185.655 344.723Z" fill="#A66036"/>
<path d="M16.0742 700.754L16.4746 698.344C16.2346 699.464 16.1342 700.204 16.0742 700.754Z" fill="#A66036"/>
<path d="M11.4355 717.694L11.7852 718.224C11.7352 717.374 11.6355 717.004 11.4355 717.694Z" fill="#A66036"/>
<path d="M102.777 592.984C100.937 596.094 98.5067 599.454 99.6567 599.354L100.967 598.615C101.467 596.215 102.107 594.444 102.767 592.984H102.777Z" fill="#A66036"/>
<path d="M52.8555 764.533C53.0855 764.273 53.3257 763.993 53.5557 763.723C53.5557 762.793 53.5652 761.922 53.5752 761.152C53.3552 762.172 53.1155 763.323 52.8555 764.533Z" fill="#A66036"/>
<path d="M55.8242 768.584C54.9842 769.914 54.1044 771.234 53.2344 772.554C53.8944 771.704 54.7642 770.434 55.8242 768.584Z" fill="#A66036"/>
<path d="M45.0256 609.723L44.9856 606.713C43.4756 610.853 44.6456 609.213 45.0256 609.723Z" fill="#A66036"/>
<path d="M146.405 446.904C145.035 449.654 144.095 451.884 143.365 453.884C145.115 450.604 146.935 448.104 146.405 446.904Z" fill="#A66036"/>
<path d="M25.0358 710.353C25.2358 708.893 25.1957 708.233 24.9557 708.213C24.7357 709.713 24.7058 710.583 25.0358 710.353Z" fill="#A66036"/>
<path d="M140.715 462.243C140.975 461.763 141.175 461.273 141.425 460.783C141.915 458.613 142.394 456.413 143.364 453.873C142.024 456.283 140.905 459.173 140.715 462.243Z" fill="#A66036"/>
<path d="M179.555 291.813C179.705 291.603 179.844 291.343 179.994 291.153C179.894 291.023 179.745 291.333 179.555 291.813Z" fill="#A66036"/>
<path d="M231.486 205.174C231.126 206.094 230.437 207.554 229.797 208.934C230.177 208.294 230.706 207.164 231.486 205.174Z" fill="#A66036"/>
<path d="M168.477 384.183C169.267 382.053 168.507 383.803 168.477 384.183Z" fill="#A66036"/>
<path d="M176.476 375.553C176.406 376.043 176.405 376.443 176.615 376.583C176.445 376.313 176.416 375.963 176.476 375.553Z" fill="#A66036"/>
<path d="M140.385 485.703C140.365 485.763 140.344 485.813 140.324 485.893C140.724 485.313 140.645 485.413 140.385 485.703Z" fill="#A66036"/>
<path d="M170.196 381.203C169.756 381.943 169.286 382.813 168.816 383.773C169.066 383.373 169.496 382.593 170.196 381.203Z" fill="#A66036"/>
<path d="M169.566 381.443C169.896 380.733 170.156 380.173 170.406 379.643C170.346 379.313 170.156 379.503 169.566 381.443Z" fill="#A66036"/>
<path d="M167.346 387.134C167.816 385.924 168.315 384.823 168.825 383.773C168.595 384.163 168.466 384.314 168.476 384.184C168.236 384.804 167.906 385.684 167.346 387.134Z" fill="#A66036"/>
<path d="M107.676 462.144C107.766 462.024 107.855 461.873 107.955 461.733C108.435 459.463 108.116 460.414 107.676 462.144Z" fill="#A66036"/>
<path d="M96.6357 652.373C96.6557 652.273 96.645 652.203 96.665 652.113C96.625 652.213 96.5752 652.333 96.5352 652.423L96.6455 652.373H96.6357Z" fill="#A66036"/>
<path d="M95.0146 660.364C94.7646 656.674 95.4946 654.844 96.5146 652.424L92.8242 654.104L95.0146 660.364Z" fill="#A66036"/>
<path d="M28.1355 660.594L25.4548 665.734C26.1048 658.684 28.2148 654.104 25.2448 658.794C26.6848 659.704 25.0248 665.004 23.4148 670.324C21.8048 675.644 20.2348 680.994 21.7048 681.854L19.9353 685.264C20.2853 684.234 20.1451 684.014 20.4851 683.004C16.8451 689.574 21.1649 688.904 18.0749 697.844C16.9149 700.934 15.8449 703.024 16.0749 700.754L14.8952 708.055C14.2652 710.105 13.8553 709.444 14.4753 707.404C13.5753 711.034 12.7049 714.675 11.8649 718.325L11.7956 718.225C11.8956 719.905 11.8053 723.624 11.7253 725.424C10.6053 728.084 11.7152 723.954 11.1452 724.564C10.9352 726.644 10.6953 728.715 10.5153 730.805C9.12534 733.095 9.43491 727.864 10.5749 723.714C8.29491 726.154 8.19565 727.475 8.08565 729.645C7.98565 731.825 7.83475 734.824 5.66475 740.834C5.91475 738.864 6.16479 736.904 6.45479 734.944C3.81479 738.294 3.54534 742.975 1.26534 749.475C1.70534 748.725 2.99526 745.495 4.18526 743.375C5.35526 741.235 6.37522 740.175 6.14522 743.595C5.54522 745.425 4.96487 747.904 5.03487 751.654C3.87487 751.504 3.56565 755.104 3.08565 759.634L1.57491 759.134C1.49491 761.624 1.69479 762.794 1.95479 763.714C2.21479 764.634 2.50557 765.284 2.75557 766.774C2.20557 772.264 1.06534 773.434 0.0153366 774.774C-0.0946634 779.414 0.405493 777.805 0.925493 776.415C1.18549 775.715 1.49506 775.094 1.73506 775.314C1.96506 775.524 2.15514 776.585 2.31514 779.285C2.18514 783.105 2.55495 786.464 3.61495 790.044C4.19495 791.834 4.86483 793.675 5.99483 795.625C6.49483 796.595 7.23479 797.604 7.95479 798.584C8.32479 799.004 8.69565 799.444 9.08565 799.884C9.46565 800.324 9.86542 800.774 10.3454 801.214C10.7754 801.824 11.0856 802.274 11.2956 802.614C11.5156 802.944 11.665 803.154 11.695 803.274C11.775 803.524 11.5055 803.414 11.1355 803.214C10.4355 802.814 9.4651 801.985 10.0251 802.975C10.7351 803.545 11.6848 804.055 12.4948 804.555C13.3348 805.055 14.3556 805.465 15.2556 805.875C16.6456 806.675 16.0353 806.755 15.6853 806.805C16.3553 807.095 16.8751 807.274 17.2751 807.384C17.6951 807.464 18.0148 807.474 18.2448 807.464C18.7248 807.444 18.9255 807.304 19.2155 807.194C19.5055 807.084 19.8753 807.034 20.6853 806.964C21.0853 806.934 21.5948 806.955 22.2448 806.915C22.8948 806.805 23.7055 806.805 24.6755 806.575C24.9055 806.315 25.3255 806.104 25.8855 805.924C26.4555 805.754 27.0948 805.475 27.9148 805.245C28.7048 804.985 29.515 804.634 30.445 804.254C31.275 803.814 32.2947 803.384 33.1647 802.794C36.8547 800.554 40.3755 797.054 41.7155 793.384C43.1355 792.094 41.9856 794.674 42.7956 794.544C44.0456 792.184 44.845 790.505 45.445 789.185C46.075 787.865 46.4549 786.895 46.8249 785.975C47.1949 785.055 47.5157 784.174 47.8757 783.024C48.2557 781.874 48.6851 780.445 49.2351 778.415C50.6051 776.495 51.9448 774.545 53.2448 772.575C49.9648 776.705 51.6249 770.194 52.8649 764.544C51.6049 765.954 50.5252 767.154 49.8952 767.984C50.8952 765.134 51.8549 762.265 52.7849 759.395C53.4449 758.495 53.5854 759.534 53.5954 761.154C53.7254 760.534 53.8447 759.954 53.9147 759.484C55.6947 756.724 55.8853 758.614 55.7653 761.104C55.0453 762.004 54.3049 762.875 53.5749 763.725C53.5449 766.155 53.6055 768.514 54.6355 768.464C54.7155 767.844 55.0451 766.735 55.4851 765.555C55.4851 766.195 55.5349 766.634 55.7849 766.444C56.0649 766.224 56.1349 765.215 56.3649 763.685L58.7849 762.464L58.3552 761.725C60.2452 758.185 62.105 754.635 63.905 751.055C65.415 742.435 65.635 734.634 69.405 721.694C69.505 725.274 71.1248 723.064 72.4948 723.734C69.7748 726.684 69.6457 733.835 66.8757 740.305C68.3157 736.935 68.7049 737.935 68.6149 738.895C69.6149 734.805 70.5753 730.724 71.5153 726.634C72.5853 727.314 73.2649 724.434 74.8249 721.524C71.7249 723.054 76.3355 712.194 77.2155 707.134C78.0955 707.094 78.5049 708.515 76.3249 714.325C80.2549 708.425 76.4356 705.045 80.0056 699.165C79.5556 700.605 79.1852 701.344 79.3952 702.044C79.8152 698.464 83.0151 690.434 83.0651 692.584L82.6149 694.024C86.0149 684.564 91.8351 664.895 90.2751 662.865C90.5651 662.845 92.2748 664.854 92.4948 665.554L91.0456 646.425C92.2856 648.445 98.0952 643.875 96.6452 652.125C97.5852 649.915 98.7151 647.165 99.5651 642.165C98.8551 643.655 95.9355 645.315 96.4255 643.135C100.075 637.855 98.6555 639.375 102.425 632.645C101.365 634.875 99.4652 631.484 100.645 627.814C100.875 628.514 103.376 628.285 103.256 629.725L103.355 619.744C103.155 622.184 105.455 620.805 106.805 618.965C106.015 619.775 109.195 611.014 109.645 608.484L107.895 612.215C111.335 601.935 107.205 600.864 110.345 590.594C110.525 592.004 112.795 594.654 114.645 589.494C113.995 586.694 111.255 576.964 112.855 567.544L114.126 566.014L115.275 558.754C116.045 563.704 116.775 577.174 116.495 584.344C118.235 580.624 117.716 583.525 119.336 577.675C120.656 575.825 119.505 581.175 119.055 582.895L123.445 569.455C121.695 569.605 124.865 558.614 123.405 558.754L120.775 573.975C119.035 574.115 118.775 564.165 121.825 554.625C123.155 552.355 124.095 557.265 124.675 557.215C124.495 555.815 126.275 547.784 126.915 547.014L126.575 551.334C128.705 546.154 127.015 541.994 130.365 535.994C131.105 533.804 134.305 529.944 133.485 529.294C130.645 532.394 124.895 531.505 124.245 528.705C124.585 527.965 129.325 517.534 130.945 515.254C133.405 512.004 132.705 521.715 134.815 518.945C134.425 518.685 134.475 516.515 134.555 515.625C135.595 513.395 135.606 516.974 136.876 511.854C135.526 510.544 139.995 501.594 136.225 509.064C137.205 503.974 138.075 503.894 139.695 498.054C138.145 499.614 137.665 491.804 138.775 486.734C139.085 487.144 139.955 486.195 140.365 485.725C143.615 475.655 146.005 470.454 148.905 461.044C149.235 460.674 149.845 459.385 150.425 458.465C151.015 457.555 151.515 457.004 151.525 458.064C151.705 456.634 151.585 455.224 152.525 452.334C155.775 447.224 150.555 458.815 153.635 455.115C152.845 454.455 154.896 447.265 155.716 442.975C153.876 443.755 152.225 452.355 151.405 456.635C149.445 456.025 149.835 448.194 152.265 438.094C154.425 430.144 154.665 435.155 154.845 433.715C156.175 430.095 156.875 427.424 157.315 425.304C157.785 423.184 157.945 421.584 158.105 420.064C158.425 417.034 158.775 414.344 161.705 408.594C164.705 404.284 164.225 409.294 165.495 408.564C163.625 414.994 161.135 417.885 159.605 422.145L162.135 417.135C161.805 419.275 160.555 423.565 159.355 425.705C160.655 423.915 162.975 417.845 165.615 410.875C168.265 403.915 171.165 396.024 173.985 390.754C174.365 388.644 175.315 385.094 174.175 386.494L172.935 390.044C170.655 392.864 174.235 382.945 171.995 387.175C173.195 382.225 174.245 376.525 177.475 370.155L179.355 369.494C178.895 369.464 176.796 373.464 176.466 375.484C176.716 373.984 178.205 371.655 179.555 369.225C180.955 366.815 182.256 364.335 182.006 362.465L179.055 366.635C180.395 361.695 181.455 355.305 184.415 349.695C181.915 351.735 183.985 351.094 180.605 354.524C184.135 351.814 174.046 369.315 178.626 364.465C177.706 365.325 176.995 366.194 176.385 367.084C175.785 367.984 175.315 368.915 174.825 369.885C173.845 371.835 172.835 373.955 170.915 376.425C171.445 376.435 172.586 374.805 170.376 379.635C170.416 379.915 170.376 380.505 170.336 380.875C170.256 381.015 170.235 381.065 170.165 381.195C170.225 381.105 170.265 381.035 170.325 380.945C170.305 381.185 170.315 381.214 170.385 380.854C171.055 379.764 171.685 378.915 172.095 378.635C172.155 381.505 168.965 389.295 168.435 392.155C167.035 394.985 168.405 390.725 167.275 392.125C167.025 393.555 166.735 394.965 166.515 396.395C165.345 396.395 161.905 403.575 163.895 396.395L161.515 402.635C159.565 406.105 157.456 411.095 156.716 414.375C155.396 417.245 155.075 422.245 155.225 419.385L153.716 424.405L152.345 429.475H152.055C150.325 434.345 149.045 439.524 147.485 444.804C146.705 447.444 145.855 450.104 144.855 452.774C144.355 454.104 143.806 455.434 143.216 456.774C142.666 458.114 142.055 459.454 141.385 460.794C140.625 464.204 139.895 467.735 137.885 473.205L136.645 474.014C135.645 478.374 131.795 486.575 132.175 488.685C128.345 492.575 125.616 509.245 123.006 516.625L124.105 517.254C122.545 522.404 121.455 527.454 120.075 534.004L121.235 533.915C120.505 539.695 116.395 547.915 113.975 556.695C113.745 555.985 114.495 553.794 115.185 552.294C109.805 562.054 110.545 574.834 106.075 583.804C105.775 586.274 105.145 587.944 104.405 589.524C104.465 589.304 104.505 589.105 104.515 588.925C104.435 589.165 104.325 589.525 104.225 589.895C103.745 590.885 103.226 591.894 102.716 593.004C103.256 592.094 103.745 591.205 104.075 590.415C103.565 592.245 102.895 595.034 102.365 597.814L100.905 598.635C100.855 598.855 100.806 599.034 100.756 599.264C99.5656 601.794 100.665 601.555 101.925 600.385C101.715 601.795 101.575 603.115 101.555 604.155C99.1154 605.775 100.086 611.424 97.2956 613.794C97.7056 615.894 93.9954 627.574 95.5554 629.604C95.2654 629.624 94.9149 630.375 95.3249 628.915C94.2049 631.855 93.0856 634.795 92.8356 637.665L91.0251 638.514L90.9753 645.655C88.8953 649.375 87.8948 650.874 87.9948 646.584C86.7848 656.644 86.2855 654.525 85.4655 663.155L84.6647 662.475C83.8147 665.385 83.6056 670.395 82.2956 671.905C78.5556 677.835 71.9649 703.854 64.5749 719.674C68.3749 717.444 60.7051 726.864 62.5251 728.234C61.5551 728.964 60.3649 731.095 60.7849 728.265C58.3949 736.815 55.195 740.325 54.695 746.665C53.695 747.355 54.4751 744.554 53.7751 745.234C53.6551 745.944 53.2956 748.054 52.5856 748.754C51.8856 749.434 52.5451 747.354 52.7751 745.944C49.5651 754.314 51.0552 755.915 52.6052 757.285C49.9752 761.145 49.1753 763.245 48.9753 766.785C47.7253 767.965 46.0352 770.075 48.1452 764.915C47.4752 766.335 45.2451 770.575 43.2351 774.495C41.2351 778.425 39.3755 781.965 39.9655 782.495C39.1655 783.155 37.6449 786.135 37.3649 786.915C36.3949 788.335 35.6448 789.424 34.9548 790.294C34.2948 791.194 33.7155 791.894 33.1355 792.584C31.9855 793.954 30.8354 795.365 28.5554 797.395C29.0354 797.085 29.5453 796.835 30.0153 796.455C29.7553 797.995 28.7454 798.965 27.3454 799.745C26.9854 799.905 26.6055 800.064 26.2155 800.234C25.8155 800.414 25.4051 800.454 24.9851 800.604C24.5651 800.754 24.115 800.744 23.655 800.854C23.425 800.894 23.1753 800.854 22.9353 800.884C22.6853 800.884 22.4248 800.954 22.1648 800.904L22.2956 800.734C21.7156 800.554 21.2156 800.455 20.7956 800.205C20.3556 800.035 20.0255 799.765 19.7155 799.555C19.5555 799.445 19.4151 799.375 19.2751 799.265C19.1351 799.145 19.0057 799.024 18.8757 798.924C18.6157 798.714 18.395 798.535 18.195 798.375C17.425 797.595 16.9356 797.285 16.5056 796.845C16.0656 796.435 15.6055 796.044 14.9655 795.024C14.8055 794.774 14.6255 794.494 14.4255 794.174C14.2855 793.864 14.1153 793.514 13.9353 793.114C13.6053 792.314 13.2753 791.254 13.0153 789.884C12.7153 790.194 12.4157 790.515 12.1257 790.845C10.7257 790.795 10.2154 788.015 10.3054 784.515C10.3654 781.005 10.9957 776.804 10.6257 773.194L9.91475 775.794C9.50475 773.814 10.4157 771.044 11.6257 768.364C12.8057 765.684 14.2455 763.084 14.6355 761.154C14.9555 760.334 14.8152 762.545 14.8552 763.745C16.1652 758.735 15.8853 758.364 15.2653 758.274C14.6753 758.184 13.755 758.404 14.155 754.524C15.195 753.234 15.935 756.654 16.905 751.544C17.445 750.324 17.4148 746.495 17.7448 742.095C18.0548 737.705 18.7051 732.744 20.3151 729.424C19.3351 730.824 18.3453 732.225 18.7253 728.555C19.7753 723.025 24.7155 714.475 24.1355 709.075C24.4955 708.435 24.7255 708.214 24.8855 708.234C25.5155 703.964 27.8754 694.584 27.5954 691.794C30.0954 690.464 31.5547 683.945 32.9147 677.895C34.2647 671.845 35.4948 666.275 37.2448 666.895L41.2351 654.274L41.4851 654.725C44.4251 646.795 44.5755 643.684 44.7155 640.574C45.5955 638.804 45.4556 640.274 45.5856 640.494C50.3756 629.064 50.6553 627.875 52.4353 617.475L53.9353 616.875C54.2253 613.985 61.8554 600.735 64.8454 588.895C64.9354 589.055 65.0657 589.374 64.8757 590.334C68.3657 577.044 79.7253 561.034 77.4753 554.774L79.7849 545.984C75.1749 556.714 78.6548 543.665 76.2048 547.865C77.6548 543.495 81.825 537.325 79.945 542.645L79.4147 543.385C80.7647 546.155 85.5455 530.214 86.8855 531.084C95.3455 509.734 105.076 489.534 113.506 469.754L110.905 471.344L113.915 464.465C115.065 462.815 116.225 462.575 114.075 467.475C116.095 465.275 116.795 458.874 116.495 458.584C121.255 449.214 116.805 463.165 118.105 460.225L119.685 456.155L119.105 456.975C119.815 453.435 119.226 452.845 121.836 446.955C123.756 443.345 123.665 445.464 124.355 444.014C124.465 444.074 124.735 443.594 125.365 441.774L129.225 433.145L126.445 436.064C127.465 431.944 130.026 427.924 126.836 431.304C131.596 426.384 141.655 399.274 143.945 395.984C145.365 390.194 147.706 384.895 150.716 378.375C149.726 379.895 147.845 380.235 150.525 374.645C152.595 378.035 156.406 364.845 160.586 361.225C157.346 364.675 167.395 344.994 162.525 350.504C164.875 345.894 163.765 350.715 166.065 347.455C169.925 335.715 177.906 323.064 183.796 309.054C183.506 308.664 181.856 310.705 182.626 307.475L187.895 301.054C188.945 298.234 186.795 297.515 190.415 293.145C189.765 293.695 188.796 294.525 189.506 292.635C203.766 266.425 213.385 236.625 229.815 210.935C227.315 214.285 228.406 211.785 229.716 208.945C228.666 210.695 228.776 208.454 228.086 208.564L234.945 197.804C234.475 195.024 240.665 185.505 239.855 183.645L238.376 187.385C239.026 181.785 231.526 192.385 229.756 190.685C229.056 196.965 220.245 203.624 218.745 213.754C217.395 215.514 218.855 211.764 217.865 212.584C217.715 215.264 216.625 218.065 213.865 222.915L213.905 222.244C207.505 236.504 203.785 242.164 195.825 257.824L197.415 257.125C195.695 260.485 195.035 261.054 194.035 262.534C193.805 267.194 198.565 252.954 198.665 257.344C194.425 260.904 187.505 281.495 183.685 283.465C181.255 288.735 185.605 282.474 183.175 287.744L181.876 288.844L182.115 290.564C180.395 293.964 178.775 295.335 178.165 295.215C178.615 294.405 179.096 292.754 179.466 291.834C176.646 295.974 173.965 304.624 173.015 306.044L175.725 301.155C169.785 315.855 160.976 333.105 156.086 347.675L157.055 346.834C153.215 357.914 152.695 355.134 147.915 367.054L147.985 366.574C147.445 369.144 146.306 372.384 144.836 375.574C145.556 372.354 141.245 380.654 142.315 376.484C138.195 388.514 140.565 382.564 139.055 391.034L137.455 392.445C137.055 395.385 137.356 395.774 135.006 401.734C136.396 396.604 132.105 404.935 133.525 399.125C126.335 410.665 127.395 418.234 122.305 422.754C122.155 429.414 128.185 412.624 127.315 416.004C129.215 413.674 127.005 421.425 125.105 425.195C123.355 429.115 119.275 430.634 115.075 440.594C115.505 439.614 115.366 439.464 115.796 438.484C113.616 441.954 113.476 446.114 110.586 450.274C110.886 453.424 107.985 456.175 109.455 457.665L112.915 448.365C111.185 453.735 111.195 459.464 106.605 467.564C106.525 466.754 107.125 464.015 107.595 462.155C106.025 464.425 105.916 467.105 104.296 469.465C102.826 467.975 108.576 458.194 109.586 452.084C107.696 454.444 106.435 463.124 105.685 459.524C106.435 464.564 101.235 469.214 100.285 476.744L99.405 475.854C99.125 476.994 98.7052 479.415 97.8552 481.375L97.9548 477.234C96.8448 483.194 92.5256 487.355 91.0056 492.885C95.5256 481.865 93.3153 490.945 96.0153 486.625C91.8353 500.775 89.9856 493.265 84.2556 508.695C84.9456 506.575 88.0651 501.225 87.2351 504.645C85.8251 507.455 83.8549 511.115 82.5749 512.665C78.6949 522.845 84.3055 511.565 83.2155 516.125C80.5155 519.035 81.7349 521.295 80.3649 525.895L79.2653 525.484C73.9353 536.724 80.3051 529.444 75.3151 539.484L75.5554 534.494L73.7849 540.064L72.9851 538.455C71.5651 544.715 70.5953 546.454 67.9753 552.094C69.2753 551.054 69.6553 553.624 67.6853 558.764C65.6753 562.004 67.4051 556.405 64.7351 563.725C64.6951 561.815 64.5251 559.685 66.7751 556.915C66.5451 556.455 66.7256 555.034 66.5056 554.554C64.2856 558.024 62.6355 563.944 61.6355 566.584C62.0655 565.584 62.5948 564.394 62.9948 563.834L60.445 574.965C59.395 576.465 59.5748 575.024 59.7448 573.594C59.0448 575.774 58.9757 577.445 57.8757 580.635C57.2957 579.485 56.2956 579.325 57.5856 574.715L54.7351 585.165C54.0951 585.695 51.7157 589.934 51.8757 588.504C49.2457 593.904 48.4654 602.884 45.0554 610.064C45.0854 610.514 44.9751 611.354 44.5251 612.984C41.7751 619.904 38.4356 625.734 36.7556 634.504L33.4948 638.675C31.5948 645.345 37.7454 632.964 34.5954 644.064C32.4654 651.954 32.2252 646.474 30.8552 649.034C30.3652 653.164 29.795 660.394 26.155 667.094C26.605 664.634 27.4651 662.865 28.0651 660.615L28.1355 660.594ZM6.17549 743.424C6.23549 741.734 6.15565 738.305 7.08565 737.245C8.01565 739.385 7.08549 740.684 6.17549 743.424ZM59.8249 753.845C59.7249 755.135 58.8256 756.824 57.5856 758.634C58.1056 757.164 58.8249 755.545 59.8249 753.845ZM160.395 407.715C160.395 407.785 160.385 407.835 160.395 407.905C158.675 411.205 159.305 410.045 160.395 407.715ZM163.546 400.705C163.666 399.925 163.495 399.915 163.225 400.165C163.315 400.775 162.735 402.395 161.975 404.205C162.455 403.805 162.996 402.955 163.546 400.715V400.705ZM124.355 443.064L123.485 444.304C124.495 441.094 124.405 442.074 124.355 443.064Z" fill="#A66036"/>
<path d="M55.4947 768.074C55.1147 768.424 54.8656 768.454 54.6256 768.464C54.5356 769.144 54.7347 769.254 55.4947 768.074Z" fill="#A66036"/>
<path d="M45.0352 610.282L45.1357 610.042C45.1157 609.882 45.0754 609.793 45.0254 609.723V610.282H45.0352Z" fill="#A66036"/>
<path d="M136.256 516.184C135.656 517.644 135.206 518.424 134.836 518.924C135.086 519.084 135.516 518.464 136.256 516.184Z" fill="#A66036"/>
<path d="M176.925 362.254L175.234 366.884C176.134 364.684 176.704 364.004 177.364 362.974C177.064 362.974 176.325 363.674 176.925 362.254Z" fill="#A66036"/>
<path d="M201.045 326.443C201.215 325.733 201.675 325.063 201.845 324.363L201.275 324.303C200.015 327.073 199.515 329.193 201.055 326.443H201.045Z" fill="#A66036"/>
<path d="M182.324 359.624C183.384 359.654 184.305 356.714 185.515 353.494C185.435 353.684 185.364 353.864 185.274 354.054C184.414 352.574 183.364 356.114 182.324 359.634V359.624Z" fill="#A66036"/>
<path d="M185.805 352.753C186.185 351.763 186.595 350.763 187.055 349.833C186.715 349.243 186.435 350.963 185.805 352.753Z" fill="#A66036"/>
<path d="M166.436 391.393C167.286 389.973 165.645 389.983 166.365 389.273C165.875 387.123 163.696 399.923 166.436 391.393Z" fill="#A66036"/>
<path d="M186.427 358.373L184.816 359.013L184.946 361.163L186.427 358.373Z" fill="#A66036"/>
<path d="M175.144 382.974L177.515 378.024C177.295 378.024 177.445 377.334 177.685 376.504C176.385 379.614 174.774 382.954 175.154 382.964L175.144 382.974Z" fill="#A66036"/>
<path d="M177.676 376.504C178.356 374.884 178.956 373.324 179.146 372.344C178.806 373.234 178.066 375.144 177.676 376.504Z" fill="#A66036"/>
<path d="M183.766 365.373L182.886 366.753C182.356 367.923 181.785 369.083 181.275 370.263C182.075 368.613 182.936 367.003 183.766 365.363V365.373Z" fill="#A66036"/>
<path d="M154.337 438.014L152.746 443.784C152.946 444.494 153.717 443.034 154.267 440.874C154.447 439.424 155.017 437.274 154.337 438.014Z" fill="#A66036"/>
<path d="M163.446 422.094C162.646 423.514 162.356 423.524 161.656 424.244L163.017 424.924L163.446 422.094Z" fill="#A66036"/>
<path d="M158.036 438.603C158.246 439.303 156.396 447.173 158.736 440.003C158.536 439.293 160.126 433.533 158.036 438.603Z" fill="#A66036"/>
<path d="M129.716 523.893L130.115 522.433L127.676 521.953L129.716 523.893Z" fill="#A66036"/>
<path d="M113.387 601.723C115.937 595.093 112.387 599.682 114.887 593.742C114.787 591.982 112.847 598.592 112.837 596.812C112.237 601.082 111.277 603.143 113.387 601.713V601.723Z" fill="#A66036"/>
<path d="M112.836 596.823C112.936 596.143 113.026 595.413 113.086 594.623C112.886 595.853 112.836 596.443 112.836 596.823Z" fill="#A66036"/>
<path d="M239.816 190.693L242.236 186.812L240.227 189.103L239.816 190.693Z" fill="#A66036"/>
<path d="M241.914 182.033L243.805 181.753L243.694 178.684C243.314 179.634 242.574 181.493 241.914 182.043V182.033Z" fill="#A66036"/>
<path d="M0.914062 755.713L1.24414 756.124C1.75414 755.454 1.92496 754.363 2.33496 752.193C1.85496 753.353 1.3748 754.523 0.924805 755.713H0.914062Z" fill="#A66036"/>
<path d="M16.1855 694.774L15.8555 695.794L17.7852 694.264L16.1855 694.774Z" fill="#A66036"/>
<path d="M30.3066 644.533C29.5566 646.523 29.0664 648.993 28.3164 651.003C29.5564 646.523 32.1766 644.573 30.3066 644.533Z" fill="#A66036"/>
<path d="M345.137 186.705C287.487 256.495 244.137 270.105 214.737 257.995C200.297 252.045 170.206 209.035 198.286 116.855C223.606 33.7353 286.157 -12.4246 339.347 14.1854C392.537 40.7954 400.477 119.705 345.137 186.705Z" fill="#9A4B1C"/>
<path d="M350.226 189.814C349.486 190.594 350.516 190.944 350.556 191.184C351.506 189.624 349.996 189.674 350.226 189.814Z" fill="#A66036"/>
<path d="M358.914 174.316L359.085 174.806L359.664 172.086L358.914 174.316Z" fill="#A66036"/>
<path d="M367.525 160.365C366.375 160.615 365.776 161.975 365.096 163.485C364.426 165.005 363.776 166.755 362.756 167.835L362.176 168.035L362.676 169.906C364.336 166.726 365.975 162.355 367.535 160.355L367.525 160.365Z" fill="#A66036"/>
<path d="M374.955 154.256C374.105 154.456 375.286 152.266 373.846 156.036C374.006 155.886 374.065 155.856 374.165 155.776C374.315 155.446 374.535 154.996 374.955 154.256Z" fill="#A66036"/>
<path d="M374.156 155.765C375.176 154.985 373.416 157.375 374.156 155.765Z" fill="#A66036"/>
<path d="M377.297 148.226L376.906 150.606C377.466 150.326 378.387 148.456 378.337 149.276C379.007 146.936 378.436 147.236 377.286 148.216L377.297 148.226Z" fill="#A66036"/>
<path d="M377.016 145.705L376.766 146.905C377.006 146.775 377.186 146.515 377.016 145.705Z" fill="#A66036"/>
<path d="M376.235 149.456L376.765 146.906C376.375 147.106 375.845 146.906 376.475 148.056C376.085 147.656 376.335 148.316 376.235 149.456Z" fill="#A66036"/>
<path d="M375.416 150.666C374.516 151.676 373.556 153.066 374.036 150.736C372.306 154.776 373.696 154.756 375.416 150.666Z" fill="#A66036"/>
<path d="M366.354 158.766L365.095 159.996L364.895 161.566C364.995 160.786 366.875 158.936 366.345 158.766H366.354Z" fill="#A66036"/>
<path d="M383.426 134.984C383.126 134.724 382.245 135.414 381.745 135.424L381.596 137.194C382.116 136.444 382.866 134.914 383.426 134.984Z" fill="#A66036"/>
<path d="M381.735 135.425L381.945 132.785C381.145 134.935 381.305 135.425 381.735 135.425Z" fill="#A66036"/>
<path d="M375.405 144.576L374.945 148.916L375.705 143.836L375.405 144.576Z" fill="#A66036"/>
<path d="M386.356 125.495L386.776 127.146L386.246 124.275L386.356 125.495Z" fill="#A66036"/>
<path d="M387.756 119.045C388.196 120.265 389.266 117.825 389.436 119.045C389.746 117.255 389.346 115.595 389.086 114.135C389.096 115.635 388.826 117.195 387.766 119.035L387.756 119.045Z" fill="#A66036"/>
<path d="M388.705 111.734C388.745 112.484 388.905 113.275 389.075 114.155C389.055 113.355 388.955 112.564 388.705 111.734Z" fill="#A66036"/>
<path d="M383.426 128.676C383.696 128.546 384.355 128.346 384.995 127.016L383.716 127.706C383.626 128.006 383.526 128.336 383.426 128.676Z" fill="#A66036"/>
<path d="M383.676 127.726L383.716 127.696C384.046 126.646 384.265 125.925 384.365 125.605C384.275 125.875 384.066 126.506 383.676 127.716V127.726Z" fill="#A66036"/>
<path d="M383.347 128.916C383.377 128.826 383.396 128.756 383.416 128.676C383.296 128.736 383.247 128.786 383.347 128.916Z" fill="#A66036"/>
<path d="M378.735 138.756C378.765 137.166 379.166 134.046 377.346 136.556C377.636 137.796 378.725 136.366 378.735 138.756Z" fill="#A66036"/>
<path d="M381.766 129.746C381.446 130.586 381.055 131.406 380.705 132.236C380.985 132.276 381.516 131.926 381.556 132.726C381.626 131.726 381.726 130.746 381.766 129.746Z" fill="#A66036"/>
<path d="M381.806 128.375L381.766 129.745L382.126 128.805L381.806 128.375Z" fill="#A66036"/>
<path d="M386.906 116.205C386.676 114.955 386.867 113.675 387.057 112.225C386.577 113.735 386.176 115.294 385.906 116.804C386.186 117.084 386.636 117.865 386.906 116.205Z" fill="#A66036"/>
<path d="M385.356 121.825C385.356 121.745 385.356 121.635 385.356 121.555C385.236 121.695 385.176 121.815 385.356 121.825Z" fill="#A66036"/>
<path d="M388.687 97.9258C388.617 98.0058 388.557 98.0658 388.477 98.1458C388.537 98.1658 388.596 98.1858 388.656 98.2058L388.687 97.9258Z" fill="#A66036"/>
<path d="M385.666 117.025C385.206 118.125 385.297 118.855 385.467 119.575C385.557 118.695 385.716 117.785 385.906 116.805C385.776 116.685 385.686 116.645 385.666 117.025Z" fill="#A66036"/>
<path d="M388.795 107.656C388.495 108.236 388.225 108.906 387.965 109.616C388.365 109.066 389.035 107.916 388.795 107.656Z" fill="#A66036"/>
<path d="M385.734 121.235C385.734 121.295 385.734 121.355 385.734 121.415C386.034 121.095 385.924 121.115 385.734 121.235Z" fill="#A66036"/>
<path d="M385.735 121.234C385.735 120.614 385.585 120.084 385.465 119.574C385.385 120.284 385.344 120.954 385.364 121.554C385.464 121.434 385.615 121.314 385.735 121.234Z" fill="#A66036"/>
<path d="M382.145 93.4243C382.625 93.5343 383.065 94.3243 383.255 95.4243C383.345 95.9743 383.374 96.5941 383.314 97.2341C383.224 97.8741 383.035 98.5242 382.725 99.1442C383.245 101.694 386.534 100.354 388.484 98.1442C388.064 98.0442 387.725 98.0141 387.215 95.3041C386.925 95.7641 386.635 97.2441 386.175 98.2941C385.745 99.3541 385.294 99.9942 384.944 98.8542C384.854 97.1042 384.905 96.3942 385.145 95.9142C385.365 95.4342 385.714 95.1742 385.984 94.3242C384.744 95.7242 384.364 89.8542 382.534 90.6342C382.784 91.6242 382.914 92.6342 383.114 93.6342C382.834 93.6842 382.424 92.5942 382.154 93.4142L382.145 93.4243Z" fill="#A66036"/>
<path d="M387.977 103.275C387.977 103.645 388.006 104.025 387.986 104.395C388.286 103.155 388.716 102.285 389.606 100.655C389.286 98.755 388.956 98.3551 388.646 98.2051L388.087 103.665L387.977 103.275Z" fill="#A66036"/>
<path d="M387.355 109.356C386.435 108.336 386.325 105.676 384.995 107.126C384.635 110.306 385.616 109.486 385.716 111.446C386.246 106.246 386.126 113.036 387.226 109.376C387.286 110.436 387.166 111.356 387.046 112.226C387.346 111.316 387.665 110.436 387.955 109.606C387.925 109.646 387.906 109.676 387.876 109.716V109.746C387.876 109.746 387.875 109.746 387.855 109.746C387.695 109.956 387.606 110.016 387.716 109.776C387.706 109.756 387.716 109.696 387.716 109.666C387.576 109.606 387.465 109.496 387.355 109.376C387.765 107.896 387.656 109.176 387.716 109.666C387.766 109.686 387.805 109.736 387.865 109.756L387.886 109.736L387.995 104.416C387.705 105.506 387.555 106.896 387.355 109.366V109.356Z" fill="#A66036"/>
<path d="M376.096 133.224C376.236 133.104 376.306 133.134 376.376 133.154C376.356 132.804 376.316 132.654 376.096 133.224Z" fill="#A66036"/>
<path d="M377.366 131.455C377.386 131.855 377.686 132.275 377.206 133.385C376.576 134.275 376.737 133.215 376.387 133.155C376.427 133.925 376.286 135.815 377.496 133.815L377.477 133.425C378.467 131.595 380.557 129.465 380.587 129.845C379.497 130.145 378.686 130.445 377.366 131.455Z" fill="#A66036"/>
<path d="M382.574 120.514C382.724 119.074 382.904 117.655 383.024 116.225C382.594 116.875 382.114 117.515 381.664 118.155H382.225C381.465 120.485 382.244 120.124 382.574 120.514Z" fill="#A66036"/>
<path d="M389.235 97.4451L390.306 98.095C389.846 97.205 389.326 96.3251 388.836 95.4551L389.235 97.4451Z" fill="#A66036"/>
<path d="M389.256 91.6851L390.216 91.905C390.046 91.395 389.836 90.885 389.626 90.375C389.506 90.815 389.406 91.2551 389.256 91.6851Z" fill="#A66036"/>
<path d="M199.565 133.916L199.525 135.156C199.575 134.576 199.585 134.206 199.565 133.916Z" fill="#A66036"/>
<path d="M201.877 125.446L201.477 125.105C201.617 125.565 201.757 125.776 201.877 125.446Z" fill="#A66036"/>
<path d="M299.546 1.1152C297.506 0.355204 295.085 -0.564718 295.495 0.445282L296.256 1.38522C297.566 0.935223 298.636 0.985204 299.546 1.1152Z" fill="#A66036"/>
<path d="M226.785 57.6758C226.965 57.5958 227.156 57.5158 227.346 57.4258C227.296 56.8558 227.256 56.3257 227.216 55.8457C227.086 56.3957 226.935 57.0258 226.785 57.6758Z" fill="#A66036"/>
<path d="M229.666 61.2051L227.797 62.7349C228.287 62.4349 228.896 61.9551 229.666 61.2051Z" fill="#A66036"/>
<path d="M193.734 180.975L194.755 182.385C194.825 180.225 194.254 181.165 193.734 180.975Z" fill="#A66036"/>
<path d="M372.477 35.4448C371.847 33.8448 371.156 32.6848 370.496 31.7148C371.236 33.7148 371.477 35.5048 372.477 35.4448Z" fill="#A66036"/>
<path d="M189.596 127.735C189.596 128.525 189.715 128.896 189.945 128.936C189.965 128.126 189.886 127.645 189.596 127.735Z" fill="#A66036"/>
<path d="M367.395 27.9551C367.505 28.2451 367.665 28.5049 367.795 28.7849C368.265 29.1949 368.734 29.6049 369.194 30.0649C369.644 30.5349 370.064 31.0851 370.494 31.7051C370.214 30.9751 369.905 30.1949 369.375 29.5549C368.865 28.9049 368.215 28.3351 367.395 27.9551Z" fill="#A66036"/>
<path d="M294.664 229.385C294.794 229.345 294.925 229.265 295.045 229.245C294.985 229.115 294.844 229.215 294.664 229.385Z" fill="#A66036"/>
<path d="M338.856 201.176C338.566 201.606 338.026 202.246 337.496 202.836C337.816 202.606 338.236 202.116 338.856 201.176Z" fill="#A66036"/>
<path d="M387.365 68.4551C387.675 69.6551 387.515 68.6251 387.365 68.4551Z" fill="#A66036"/>
<path d="M384.316 75.0055C384.166 74.7755 383.986 74.6057 383.746 74.6157C384.006 74.6757 384.196 74.8155 384.316 75.0055Z" fill="#A66036"/>
<path d="M354.245 24.2048C354.245 24.2048 354.206 24.1648 354.176 24.1348C354.306 24.5148 354.285 24.4448 354.245 24.2048Z" fill="#A66036"/>
<path d="M387.257 70.3757C387.297 69.8957 387.297 69.3556 387.257 68.7656C387.227 69.0356 387.217 69.5257 387.257 70.3757Z" fill="#A66036"/>
<path d="M387.695 70.0352C387.735 70.4652 387.776 70.7952 387.806 71.1152C388.006 71.2352 388.095 71.0752 387.695 70.0352Z" fill="#A66036"/>
<path d="M386.965 66.7754C387.125 67.4654 387.205 68.1254 387.255 68.7654C387.275 68.5154 387.314 68.3956 387.364 68.4556C387.284 68.1056 387.165 67.6054 386.975 66.7754H386.965Z" fill="#A66036"/>
<path d="M213.406 253.615C213.446 253.685 213.496 253.745 213.526 253.825C214.596 253.955 214.196 253.825 213.406 253.615Z" fill="#A66036"/>
<path d="M273.887 20.4751C273.887 20.4751 273.937 20.405 273.977 20.375C273.927 20.385 273.866 20.405 273.816 20.415L273.887 20.4751Z" fill="#A66036"/>
<path d="M270.797 23.0354C271.607 21.0954 272.557 20.7755 273.807 20.4155C272.957 19.7255 272.086 19.0355 271.206 18.3555C271.036 19.9355 270.897 21.4854 270.797 23.0354Z" fill="#A66036"/>
<path d="M195.605 154.476L197.016 151.825C197.986 155.475 197.056 157.796 198.806 155.396C197.226 154.936 197.545 152.205 197.985 149.485C198.445 146.765 198.895 144.045 197.325 143.505C197.665 142.935 198.035 142.375 198.405 141.805C198.255 142.325 198.425 142.446 198.275 142.966C200.635 139.746 196.555 139.795 198.075 135.265C198.705 133.715 199.485 132.726 199.575 133.906L199.716 130.135C200.046 129.115 200.535 129.515 200.205 130.525C200.595 128.695 200.955 126.855 201.415 125.035L201.495 125.105C201.215 124.195 200.956 122.225 200.876 121.265C201.726 120.015 201.016 122.055 201.506 121.815L201.605 118.585C202.775 117.615 202.856 120.335 202.136 122.365C206.126 120.525 201.995 119.605 205.775 114.255L205.285 117.156C207.665 115.946 207.656 113.565 209.846 110.875C208.956 111.355 205.015 116.166 205.245 112.716C205.765 111.886 206.256 110.745 206.266 108.825C207.376 109.195 207.706 107.445 208.396 105.345L209.806 106.025C210.176 103.635 209.406 103.536 209.266 101.976C210.396 99.5556 211.716 99.4954 212.886 99.3054C214.686 95.4754 210.005 101.295 211.605 96.5154C212.595 95.0154 213.195 93.6355 213.655 92.0955C213.885 91.3255 214.075 90.5155 214.275 89.6255C214.485 88.7455 214.716 87.8054 214.976 86.7454C216.546 84.7454 215.646 87.5456 216.436 86.9456L216.275 84.4255C216.535 83.9555 216.806 84.2756 216.936 84.4456C217.326 82.5656 215.565 83.5954 216.565 80.8054C215.985 80.0654 217.256 79.0055 218.646 77.6555C220.016 76.2755 221.645 74.6855 221.695 72.6255C222.525 72.0755 222.306 73.4754 222.966 73.5454C223.646 71.0854 223.986 70.0455 224.256 69.1055C224.516 68.1455 224.676 67.2654 225.046 65.0654L226.405 63.8655L227.815 62.7156C225.395 64.1756 226.085 60.7255 226.815 57.6555C225.835 58.0955 224.976 58.4654 224.476 58.7754C225.146 57.3354 225.756 55.8556 226.476 54.4456C227.026 54.1356 227.165 54.8354 227.235 55.8254C227.325 55.4954 227.395 55.1755 227.445 54.9155C228.915 53.9155 229.115 55.1455 229.105 56.6055C228.515 56.8755 227.925 57.1455 227.355 57.4055C227.475 58.8955 227.746 60.3655 228.626 60.6855C228.646 60.3355 228.846 59.7756 229.126 59.2056C229.166 59.5956 229.245 59.8855 229.455 59.8555C229.675 59.8255 229.666 59.2355 229.766 58.3855L231.785 58.5554L231.376 57.9556L235.796 53.8655C236.436 51.6955 236.845 49.4654 237.605 47.0554C238.015 45.8754 238.505 44.6555 239.155 43.3755C239.475 42.7355 239.835 42.0755 240.245 41.4055C240.655 40.7355 241.156 40.0855 241.686 39.3955C241.416 41.4955 242.936 41.0856 243.966 42.1956C243.356 42.2456 242.855 42.5454 242.405 42.9854C241.975 43.4454 241.596 44.0654 241.216 44.7354C240.466 46.1054 239.666 47.6655 238.426 48.9055C239.716 47.6055 240.025 48.4155 239.905 48.9055L242.936 43.3054C243.746 44.2454 244.526 42.9955 246.016 42.1855C244.716 41.7755 245.226 40.6655 246.226 39.3555C247.216 38.0355 248.806 36.6554 249.466 35.4954C250.136 35.9854 250.266 37.0156 247.896 38.9756C249.766 38.4756 250.056 37.2155 250.346 35.9155C250.486 35.2655 250.625 34.6054 250.955 34.0354C251.295 33.4854 251.826 33.0354 252.726 32.7854C252.166 33.2954 251.765 33.4656 251.815 33.9656C252.675 32.2756 256.346 29.8955 256.016 31.1155L255.455 31.6155C256.435 30.8355 257.735 29.9655 259.025 28.9155C260.325 27.8755 261.696 26.7754 262.976 25.7654C265.446 23.6154 267.535 21.8055 267.315 20.6855C267.495 20.8855 268.046 23.1655 268.016 23.6755C269.256 20.1155 270.806 16.6955 272.556 13.1755C272.576 14.1455 273.776 15.2456 274.516 16.4556C275.266 17.6856 275.546 18.9054 274.006 20.3254C275.136 19.9554 276.556 19.6654 278.516 18.0554C277.706 18.1554 275.625 16.5656 276.565 15.9456C278.365 16.2056 278.936 16.2155 279.586 16.1855C280.236 16.1755 280.976 16.0956 282.976 16.2156C281.736 16.2956 281.945 13.2054 283.815 12.5854C283.675 13.0754 284.876 15.1155 284.336 15.6355C285.486 14.2655 286.715 12.9554 287.985 11.5754C286.985 12.4154 288.456 13.8554 289.646 14.2954C289.046 13.9054 293.525 13.3755 294.665 12.8555C293.985 12.7555 293.305 12.7455 292.615 12.6855C293.265 12.5855 293.816 12.4156 294.296 12.2256C294.786 12.0656 295.195 11.8555 295.575 11.6255C296.315 11.1555 296.885 10.5556 297.455 9.95557C298.595 8.69557 299.825 7.5955 302.565 7.3855C301.935 8.0155 301.305 11.0055 303.945 11.0955C304.505 10.3855 305.755 8.66558 307.615 6.96558C308.545 6.08558 309.616 5.33558 310.796 4.71558C311.976 4.10558 313.256 3.59556 314.556 3.44556L315.445 4.36548L319.455 3.94556C318.065 4.85556 315.565 6.11539 313.115 7.52539C310.785 8.89539 308.316 10.3555 306.586 11.3655C307.566 11.6555 307.695 11.8854 307.945 12.0254C308.195 12.1654 308.566 12.1854 310.006 12.2354C310.976 13.0454 308.435 13.2555 307.605 13.3855C308.695 13.3855 309.785 13.5856 310.865 13.7056L312.485 13.9055L313.296 14.0054L314.096 14.1655C313.946 12.5155 319.305 13.1255 319.285 11.8555L318.346 11.8755L317.396 11.9756L315.525 12.1655L313.676 12.3555C313.066 12.4355 312.446 12.5755 311.846 12.6755C311.796 12.2655 312.046 11.7854 312.546 11.2954C313.046 10.8054 313.785 10.3154 314.695 9.98535C316.505 9.29535 319.075 8.85544 321.495 9.57544C322.595 10.4654 319.986 12.2354 320.006 12.8054C320.356 12.5954 321.525 12.5555 322.665 12.6355C323.795 12.7155 324.856 13.0554 325.016 13.2854C324.286 13.3854 323.566 13.4654 322.846 13.5854C324.046 14.2254 325.215 14.0155 326.455 13.9155C327.065 13.8855 327.716 13.8354 328.346 14.0354C328.976 14.2354 329.606 14.5954 330.226 15.2354C330.726 15.4754 331.316 16.2555 331.836 16.8555C332.356 17.4455 332.766 17.9754 333.046 17.5554C332.606 16.3054 332.805 14.3554 333.325 12.5754C333.845 10.7954 334.726 9.20541 335.626 8.79541C335.796 8.94541 337.115 10.0254 338.455 11.2354C339.115 11.8554 339.816 12.4554 340.346 13.0754C340.876 13.6954 341.295 14.2355 341.495 14.6055C342.015 15.7255 340.936 16.1254 339.886 16.5254C338.826 16.9154 337.795 17.2756 338.195 18.2156C338.455 17.8456 339.616 17.8555 340.086 17.9055C340.956 18.8155 338.996 18.8855 341.346 19.9355C341.646 19.6255 342.085 19.6354 342.525 19.7854C342.945 19.9554 343.376 20.2556 343.686 20.4756C344.296 20.9256 344.436 21.0954 343.126 19.3354C345.516 20.3354 345.265 21.0455 347.745 22.6855C347.675 21.9655 348.736 21.6155 350.146 21.6255C350.856 21.6255 351.645 21.7255 352.415 21.8955C353.195 22.0555 353.946 22.3155 354.516 22.6855C354.126 22.9055 354.235 23.7255 354.285 24.1055C355.285 25.0255 356.146 25.8655 356.926 26.6555C357.636 27.5155 358.295 28.3155 358.945 29.0955C360.275 30.6255 361.376 32.2855 363.016 34.1755C363.056 34.7555 364.085 36.9755 362.915 36.6055C363.565 36.9855 364.405 37.1655 365.365 38.3655C365.965 41.5455 363.155 35.8055 363.115 38.6155C363.555 38.3955 364.406 38.9754 365.376 39.7854C366.296 40.6354 367.286 41.7454 368.136 42.4954C368.586 41.8154 367.945 40.7055 366.995 39.5955C366.035 38.4855 364.626 37.4854 363.756 36.7954C364.566 36.1654 365.965 36.2754 367.695 37.0654C368.585 37.4454 369.476 38.0454 370.396 38.7954C371.316 39.5454 372.296 40.4454 373.226 41.4854C375.806 45.0454 372.995 43.7854 373.615 44.3054C374.075 45.2154 374.515 45.9554 374.945 46.5854C375.335 47.2354 375.716 47.7656 376.096 48.2156C376.846 49.1156 377.586 49.6854 378.266 50.2454C379.636 51.3554 380.675 52.4956 381.275 55.9556C380.905 58.9656 378.865 56.9454 378.165 57.8354C377.365 56.2954 377.016 55.0154 376.836 53.8054C376.736 53.2054 376.666 52.6254 376.556 52.0654C376.426 51.5054 376.245 50.9756 375.985 50.4456L376.325 51.8855C376.425 52.3655 376.496 52.8655 376.586 53.3455C375.826 52.4655 374.496 50.5654 374.306 49.2654C374.276 49.8854 374.606 50.9554 375.146 52.3054C375.626 53.6754 376.246 55.3555 376.936 57.1255C377.566 58.9255 378.136 60.8756 378.676 62.7256C379.106 64.6156 379.415 66.4256 379.535 67.9456C380.215 68.8856 380.996 70.6355 381.346 69.6555C381.156 69.0355 380.995 68.4054 380.775 67.7954C381.045 66.8154 381.685 67.6055 382.115 68.3655C382.565 69.1255 382.936 69.8254 382.936 68.5454C383.556 69.7654 384.295 71.0554 384.905 72.5354C385.495 74.0154 385.826 75.6855 385.806 77.5955L384.426 78.4756C384.846 78.3556 384.966 75.9456 384.376 74.9656C384.806 75.6856 384.506 77.1855 384.376 78.6555C384.216 80.1255 384.105 81.5855 385.165 82.3555L385.976 79.6455C386.456 80.9455 387.166 82.3956 387.726 83.9656C388.306 85.5356 388.556 87.2255 388.396 88.9255C389.826 87.3355 388.205 88.1655 389.865 85.6655C387.935 87.8755 389.285 76.9254 387.315 80.4954C387.755 79.8354 388.025 79.2255 388.155 78.6355C388.275 78.0455 388.296 77.4755 388.306 76.8855C388.316 75.6955 388.276 74.4255 388.886 72.6455C388.646 72.7355 388.456 73.0654 388.306 73.0054C388.156 72.9454 388.035 72.5054 387.865 71.0654C387.695 70.9654 387.455 70.6954 387.315 70.5254C387.315 70.4354 387.315 70.4054 387.315 70.3254C387.315 70.3854 387.295 70.4354 387.285 70.4954C387.185 70.3854 387.175 70.3754 387.285 70.5554C387.205 71.2654 387.066 71.8555 386.836 72.1255C385.436 70.9255 384.645 66.5056 383.615 65.1956C383.415 63.5156 384.335 65.7356 384.615 64.7156L383.195 62.7354C384.245 62.2254 383.626 57.8854 385.426 61.5654C385.136 60.3854 384.726 59.2354 384.376 58.0654C384.316 56.9554 384.175 55.6456 383.775 54.4556C383.385 53.2656 382.886 52.1655 382.336 51.3955C381.956 49.6555 379.446 47.8955 380.886 48.8955L379.346 46.4355C378.826 45.6255 378.336 44.8054 377.756 44.0254L377.976 43.8555C377.316 42.5955 376.525 41.3855 375.695 40.1855C374.825 39.0055 373.845 37.8655 372.945 36.6655C372.065 35.4455 371.076 34.2756 370.216 32.9756C369.786 32.3256 369.376 31.6455 369.006 30.9255C368.626 30.2155 368.216 29.5056 367.876 28.7256C367.136 28.0856 366.386 27.4555 365.586 26.6555C364.776 25.8555 363.826 24.9856 362.806 23.7256L363.016 22.6055C362.056 21.8155 360.795 20.4256 359.605 19.2056C358.435 17.9656 357.306 16.9254 356.556 17.0154C356.416 16.1154 355.746 15.1656 354.766 14.2256C354.276 13.7656 353.736 13.2554 353.086 12.8254C352.446 12.3954 351.766 11.9754 351.056 11.5554C348.276 9.79542 344.985 8.59543 343.165 7.31543L342.466 8.33545C339.766 7.02545 337.036 6.03542 333.346 5.30542L333.186 6.40552C332.366 6.34552 331.516 6.08535 330.596 5.73535C329.656 5.43535 328.665 5.02544 327.615 4.57544C325.545 3.60544 323.145 2.79545 320.655 2.33545C321.065 1.99545 322.306 2.3554 323.146 2.7854C320.446 0.8954 317.096 0.965537 313.966 1.17554C312.386 1.36554 310.845 1.57548 309.365 1.61548C307.885 1.68548 306.455 1.70539 305.075 1.27539C304.405 1.49539 303.825 1.57544 303.285 1.57544C302.755 1.60544 302.265 1.55558 301.785 1.46558C301.915 1.45558 302.025 1.41549 302.115 1.37549C301.975 1.37549 301.766 1.39553 301.556 1.41553C300.946 1.28553 300.305 1.13539 299.615 1.02539C300.215 1.23539 300.776 1.39556 301.266 1.44556C300.226 1.59556 298.645 1.82546 297.155 2.34546L296.325 1.29541C296.205 1.33541 296.106 1.3455 295.976 1.3855C294.386 1.2255 294.856 2.14549 295.796 2.87549C295.066 3.19549 294.405 3.54553 293.915 3.91553C293.135 3.08553 292.155 3.40544 291.165 3.82544C290.165 4.21544 289.126 4.60544 288.046 3.82544C287.856 4.13544 287.296 4.4154 286.586 4.7854C285.876 5.1654 285.005 5.57538 284.155 6.01538C283.305 6.45538 282.475 6.92553 281.855 7.41553C281.255 7.95553 280.865 8.50543 280.855 9.06543C280.715 8.83543 280.256 8.87543 281.006 8.56543C279.376 8.95543 277.696 9.32557 276.556 10.4556L275.315 9.3855L272.846 12.7454C270.466 12.8754 269.406 12.9254 270.846 10.8254C268.866 12.8854 268.006 13.5355 267.226 14.1455C266.436 14.7355 265.756 15.3554 264.306 17.2754L263.985 16.3354C263.305 16.7754 262.586 17.6054 261.896 18.2954C261.206 19.0054 260.565 19.6254 259.945 19.5654C258.955 19.7054 257.505 20.3655 255.815 21.4255C254.175 22.5455 252.196 23.9354 250.216 25.5854C248.236 27.2454 246.096 28.9954 244.096 30.7854C243.086 31.6654 242.036 32.4954 241.046 33.3154C240.066 34.1454 239.096 34.9155 238.136 35.6055C239.786 35.9455 238.806 36.4955 237.586 37.1855C236.346 37.8655 234.956 38.7955 235.646 39.6555C234.796 39.6055 233.646 40.3254 234.216 38.8154C231.526 42.7454 228.766 43.5754 228.146 47.2554C227.276 47.2554 228.016 45.8554 227.396 45.9854C227.266 46.3654 226.906 47.5155 226.306 47.6755C225.706 47.8255 226.256 46.7654 226.516 46.0054C223.646 49.9554 225.046 51.5854 226.396 53.0054C224.186 54.3754 223.655 55.5055 223.705 57.6455C222.715 57.9755 221.365 58.7655 222.855 56.1855C222.365 56.8555 220.666 58.7954 219.396 60.7854C218.116 62.7754 217.106 64.7055 217.726 65.1855C217.096 65.4155 216.415 67.1054 216.355 67.5854C215.365 69.1654 214.826 70.0255 214.296 70.8755C213.766 71.7355 213.255 72.5954 212.485 74.2454L213.186 73.4756C214.156 75.6456 212.135 76.3454 210.955 79.0554L210.825 78.8955C208.715 81.6055 208.565 82.3554 208.365 83.0454C208.195 83.7654 207.935 84.4055 205.865 87.1255L207.075 87.2754C208.095 88.0854 207.166 89.2554 205.896 90.7454C205.256 91.4854 204.536 92.3055 203.936 93.1855C203.356 94.0755 202.906 95.0354 202.766 96.0154L203.896 94.9756C203.896 96.1156 202.566 97.1455 201.086 98.1555C199.596 99.1555 197.985 100.145 197.485 101.105C197.125 101.465 197.405 100.285 197.485 99.6155C194.185 104.385 198.666 100.835 197.596 104.865C196.556 105.315 195.955 103.225 194.855 105.825C194.275 106.375 194.296 108.546 194.096 110.936C193.896 113.336 193.505 115.965 192.245 117.575C193.085 116.945 193.925 116.335 193.855 118.315C193.555 119.755 192.426 121.495 191.516 123.275C190.616 125.055 190.006 126.896 190.636 128.426C190.376 128.746 190.176 128.835 190.016 128.815C189.996 129.975 189.705 131.785 189.605 133.525C189.495 135.265 189.485 136.906 189.865 137.686C188.765 137.966 188.136 138.995 187.766 140.355C187.426 141.725 187.345 143.435 187.285 145.065C187.135 148.335 187.245 151.345 185.415 151.005C185.105 153.305 184.745 155.586 184.525 157.906L184.176 157.676C183.756 159.866 183.715 161.385 183.855 162.555C184.015 163.725 184.396 164.555 184.756 165.385C184.396 166.375 184.135 165.595 183.945 165.495C183.235 168.685 182.905 170.455 182.985 172.125C183.065 173.795 183.396 175.355 184.226 178.105L182.995 178.615C183.345 179.375 182.705 181.696 182.325 184.676C182.135 186.166 181.956 187.815 181.936 189.485C181.956 191.165 182.125 192.876 182.525 194.456C182.385 194.396 182.145 194.275 181.955 193.775C182.815 197.355 182.346 201.725 182.336 205.575C182.366 209.405 182.815 212.665 185.245 213.555L186.226 215.795L187.285 218.005C186.255 211.955 189.335 218.485 189.495 215.875C189.885 216.995 189.906 218.565 189.726 219.505C189.566 220.445 189.166 220.775 188.716 219.365L188.825 218.865C186.255 218.365 189.986 226.436 188.556 226.716C190.476 232.546 192.536 238.305 195.306 243.775C198.106 249.215 201.456 254.466 206.426 258.676C206.426 257.896 206.426 257.135 206.476 256.385L208.096 257.805C208.656 258.265 209.256 258.696 209.846 259.146C210.216 259.646 210.405 260.145 210.115 260.305C209.975 260.385 209.706 260.375 209.306 260.235C208.926 260.075 208.416 259.765 207.756 259.275C207.956 259.735 208.376 260.126 208.896 260.446C209.416 260.766 210.106 260.975 210.716 261.125C211.986 261.415 213.196 261.296 213.296 261.146C215.886 262.536 215.186 262.805 214.006 262.835C212.946 262.955 210.855 262.315 211.905 262.835L212.626 263.135L213.226 263.325L214.415 263.706L213.966 263.315C216.106 263.345 216.486 262.695 219.876 263.785C221.976 264.675 220.736 265.136 221.596 265.416C221.566 265.526 221.846 265.705 222.936 265.765L225.546 266.335L228.186 266.755L226.275 265.095C227.475 264.895 228.675 265.075 229.315 265.055C229.955 264.995 230.005 264.826 228.915 263.906C229.705 264.606 231.316 265.105 233.306 265.385C234.306 265.495 235.405 265.605 236.535 265.615C237.665 265.605 238.846 265.585 240.006 265.505C244.666 265.195 248.955 263.996 250.075 264.166C251.525 263.356 252.955 262.656 254.525 262.146C256.055 261.546 257.736 261.115 259.556 260.515C258.566 260.565 257.546 259.255 260.636 258.335C260.666 261.835 266.736 257.546 270.086 258.426C268.656 258.206 270.796 257.195 272.636 256.015C274.496 254.865 276.136 253.725 273.966 253.595C276.496 252.555 274.686 254.605 276.876 254.275C279.436 252.145 282.605 250.506 285.945 248.696C287.605 247.796 289.335 246.885 290.995 245.835C292.675 244.805 294.335 243.695 295.865 242.385C295.705 241.965 294.245 242.246 295.235 240.706C296.785 240.436 298.356 240.165 299.886 239.835C300.996 238.685 299.485 236.995 302.665 236.365C302.115 236.335 301.306 236.295 302.046 235.535C308.736 231.405 314.366 225.715 319.896 220.025C325.436 214.305 330.946 208.615 337.636 204.035C335.586 205.065 336.476 203.956 337.546 202.726C336.686 203.376 336.775 202.005 336.205 201.775C338.065 200.505 339.895 199.196 341.745 197.896C341.335 195.966 346.235 192.456 345.495 190.946L344.376 192.716C344.756 189.436 338.826 193.056 337.306 191.216C336.846 194.876 329.766 195.266 328.586 200.906C327.496 201.406 328.665 199.705 327.865 199.775C327.755 201.385 326.885 202.676 324.615 204.416L324.655 204.015C323.335 205.495 322.165 206.735 321.025 207.825C319.875 208.895 318.776 209.845 317.636 210.795C316.506 211.755 315.306 212.686 313.966 213.726C312.646 214.786 311.176 215.955 309.436 217.345L310.705 217.735C309.205 218.925 308.665 218.935 307.815 219.325C307.395 222.095 311.805 215.755 311.665 218.515C309.915 218.515 307.496 220.856 305.006 222.956C303.766 224.016 302.556 225.065 301.436 225.765C300.316 226.455 299.315 226.825 298.565 226.585C296.325 228.445 300.076 227.056 297.836 228.926L296.785 228.865V230.045C295.195 231.115 293.885 231.015 293.455 230.575C293.865 230.345 294.376 229.625 294.726 229.275C293.496 229.705 292.195 230.856 291.065 231.896C289.935 232.926 288.995 233.895 288.575 234.035L291.065 232.726C289.575 234.026 287.975 235.385 286.235 236.605C285.365 237.225 284.485 237.855 283.605 238.485C282.705 239.085 281.806 239.685 280.896 240.285C279.106 241.515 277.266 242.625 275.556 243.835C273.816 244.985 272.175 246.175 270.665 247.375L271.436 247.595C269.076 249.355 267.976 249.805 266.756 250.095C265.536 250.395 264.276 250.766 261.436 252.156L261.596 251.946C261.116 252.436 260.506 252.925 259.806 253.325C259.106 253.715 258.305 254.065 257.485 254.335C258.135 253.765 257.315 253.726 256.575 253.666C255.825 253.606 255.136 253.455 256.006 252.815C253.266 254.245 252.585 254.705 252.195 255.125C251.795 255.575 251.706 256.055 249.936 257.565C249.556 257.355 249.176 257.136 248.806 256.906C248.216 257.446 247.895 257.826 247.355 258.186C246.815 258.546 246.036 258.895 244.466 259.235C246.906 258.075 242.275 258.185 244.955 256.735C244.115 256.615 243.346 256.575 242.636 256.605C241.926 256.625 241.275 256.645 240.655 256.735C240.045 256.815 239.476 256.955 238.936 257.075C238.396 257.185 237.895 257.306 237.405 257.426C236.925 257.546 236.465 257.655 236.025 257.735C235.585 257.785 235.166 257.805 234.766 257.765C233.966 257.675 233.215 257.415 232.535 256.635C231.785 257.205 231.725 257.605 232.075 257.885C232.415 258.175 233.156 258.335 233.936 258.375C234.716 258.435 235.545 258.436 236.075 258.446C236.605 258.436 236.825 258.445 236.415 258.605C237.135 258.965 236.525 259.515 235.455 259.825C234.385 260.135 232.846 260.365 231.806 260.125C230.736 260.015 229.886 259.196 228.716 258.226C227.536 257.296 226.065 256.305 223.615 255.755C224.105 255.885 224.175 255.725 224.655 255.835C223.805 255.315 222.876 255.286 221.886 255.216C220.916 255.086 219.865 254.905 218.955 254.035C218.095 254.515 217.385 254.225 216.775 254.035C216.435 253.935 216.245 253.866 216.025 253.916C215.795 253.966 215.556 254.145 215.266 254.535C215.596 254.645 215.865 254.755 216.235 254.865L217.386 255.186C218.156 255.396 218.915 255.615 219.695 255.765C217.025 255.345 213.615 256.826 210.775 252.946C211.035 252.906 211.495 252.995 211.985 253.135C212.495 253.245 213.035 253.385 213.455 253.515C212.815 252.385 211.336 252.405 210.756 251.085C211.146 250.795 211.606 250.875 212.136 251.095C212.656 251.335 213.236 251.786 213.876 252.186C214.196 252.406 214.525 252.635 214.855 252.795C215.185 252.965 215.535 253.185 215.865 253.255C216.025 253.305 216.195 253.355 216.355 253.385C216.505 253.425 216.675 253.455 216.905 253.485C217.325 253.535 217.746 253.545 218.136 253.485C217.896 253.175 217.435 252.985 216.915 252.855C216.525 252.725 216.125 252.705 215.735 252.605C214.955 252.345 214.505 252.125 215.535 251.525C214.155 252.245 213.235 251.465 212.355 250.495C211.905 250.025 211.475 249.426 210.905 248.956C210.345 248.456 209.676 247.986 208.716 247.716L209.735 247.115C209.255 246.855 208.145 246.335 207.535 245.555C208.305 245.715 209.065 245.846 209.815 245.966C209.155 245.656 208.645 245.226 208.285 244.676C207.925 244.126 207.666 243.506 207.426 242.896C207.196 242.276 207.015 241.615 206.745 241.025C206.475 240.445 206.146 239.886 205.676 239.406C207.116 241.726 207.045 242.125 206.605 242.325C206.175 242.515 205.435 242.406 205.745 243.646C203.145 241.186 203.335 239.806 203.525 238.466C203.785 237.036 204.055 235.596 202.195 232.226C202.785 233.086 203.245 236.075 202.065 234.825C201.855 234.095 201.635 233.246 201.495 232.446C201.385 231.626 201.355 230.865 201.455 230.335C199.295 225.645 200.635 231.525 199.155 229.745C199.855 227.555 197.685 227.556 196.525 225.446L197.636 225.055C197.066 222.075 196.385 221.866 195.735 221.706C195.085 221.556 194.455 221.456 194.165 218.666L196.355 220.485C195.985 219.605 195.556 218.735 195.216 217.845L196.646 218.095C194.996 215.335 194.985 214.315 194.815 211.265C194.155 212.105 192.595 211.275 192.155 208.565C192.575 206.615 193.416 209.425 192.676 205.635C193.536 206.405 194.586 207.185 193.756 209.005C194.156 209.115 194.606 209.725 195.016 209.835C195.236 208.805 195.126 207.576 194.886 206.436C194.646 205.296 194.345 204.235 194.285 203.555C194.305 204.085 194.286 204.735 194.186 205.075C193.426 203.315 192.695 201.526 191.955 199.716C192.335 198.796 192.726 199.465 193.136 200.115C192.906 199.005 192.325 198.265 192.105 196.605C193.085 196.965 194.066 196.805 194.676 199.085C194.216 197.365 193.696 195.646 193.266 193.896C193.666 193.516 194.306 191.135 194.686 191.805C194.906 190.345 194.376 188.576 193.966 186.656C193.516 184.746 193.105 182.675 193.565 180.735C193.385 180.525 193.225 180.115 193.115 179.275C193.265 177.435 193.745 175.726 194.035 173.916C194.175 173.016 194.276 172.085 194.266 171.105C194.286 170.125 194.226 169.086 194.006 167.966L195.966 165.686C195.946 162.236 193.446 168.795 193.466 163.025C193.466 158.915 195.115 161.705 195.785 160.365C195.155 158.265 194.016 154.485 196.016 151.025C196.126 152.305 195.715 153.215 195.655 154.375L195.605 154.476ZM205.186 112.805C205.166 113.675 205.385 115.475 204.535 115.835C203.545 114.535 204.386 114.025 205.186 112.805ZM232.376 53.8555C232.316 54.5855 231.586 55.2354 230.586 55.8354C230.976 55.1454 231.546 54.4555 232.376 53.8555ZM382.775 55.6755C382.775 55.6755 382.726 55.6255 382.686 55.6055C382.366 53.5755 382.465 54.3055 382.775 55.6755ZM383.586 59.7954C383.876 60.1454 384.015 60.0655 384.115 59.8555C383.745 59.6655 383.436 58.7854 383.176 57.7554C382.976 58.1354 382.945 58.7054 383.575 59.8054L383.586 59.7954ZM222.086 265.226L221.346 264.726C223.236 264.846 222.666 265.006 222.086 265.226Z" fill="#A66036"/>
<path d="M229.345 60.7749C229.045 60.8549 228.835 60.7751 228.615 60.7051C228.595 61.0851 228.775 61.2149 229.345 60.7749Z" fill="#A66036"/>
<path d="M193.546 180.715C193.546 180.715 193.545 180.795 193.525 180.845C193.595 180.915 193.665 180.955 193.735 180.985L193.546 180.725V180.715Z" fill="#A66036"/>
<path d="M339.166 19.5447C338.586 19.0347 338.306 18.6347 338.156 18.3047C337.986 18.5447 338.186 18.9247 339.166 19.5447Z" fill="#A66036"/>
<path d="M389.776 81.0559C389.596 80.1759 389.446 79.296 389.236 78.416C389.436 79.696 389.196 80.186 389.066 80.856C389.336 80.776 389.686 80.2259 389.776 81.0559Z" fill="#A66036"/>
<path d="M382.356 103.446C382.456 103.826 382.276 104.215 382.366 104.595L382.926 104.555C383.116 102.995 382.686 101.856 382.356 103.446Z" fill="#A66036"/>
<path d="M386.085 83.7852C385.605 83.9252 385.475 84.3852 385.515 85.0352C385.525 85.6852 385.675 86.5353 385.795 87.4353C385.795 87.3253 385.775 87.2252 385.795 87.1152C386.495 87.3552 386.714 86.9952 386.694 86.3352C386.694 86.0052 386.614 85.6053 386.524 85.1653C386.414 84.7253 386.254 84.2552 386.104 83.7852H386.085Z" fill="#A66036"/>
<path d="M385.836 87.8555C385.896 88.4055 385.935 88.9754 385.905 89.5254C386.465 89.7254 386.006 88.8455 385.836 87.8555Z" fill="#A66036"/>
<path d="M385.646 64.6844C385.626 65.6044 387.015 64.9143 386.745 65.5043C388.215 66.1443 383.776 60.1444 385.646 64.6844Z" fill="#A66036"/>
<path d="M382.945 85.425L384.115 84.7251L383.056 83.7949L382.945 85.425Z" fill="#A66036"/>
<path d="M382.125 71.475C382.185 72.425 382.305 73.3649 382.305 74.3149C382.505 74.2349 382.664 74.5748 382.824 75.0048C382.674 73.2648 382.445 71.345 382.125 71.475Z" fill="#A66036"/>
<path d="M382.824 75.0059C382.924 75.9159 383.075 76.7658 383.345 77.2458C383.265 76.7558 383.074 75.7059 382.824 75.0059Z" fill="#A66036"/>
<path d="M382.275 81.625L382.466 80.7749C382.436 80.1149 382.435 79.4449 382.355 78.7949C382.395 79.7349 382.305 80.685 382.285 81.625H382.275Z" fill="#A66036"/>
<path d="M371.737 42.8847C371.137 42.0347 370.427 41.2547 369.777 40.4447C369.257 40.4047 369.497 41.2546 370.267 42.1246C370.937 42.5746 371.617 43.5147 371.737 42.8847Z" fill="#A66036"/>
<path d="M373.015 52.6055C372.895 51.7755 373.124 51.6054 373.284 51.0254L371.875 51.5854L373.005 52.6055H373.015Z" fill="#A66036"/>
<path d="M368.716 45.0553C368.256 44.9653 365.415 42.0754 367.495 45.1454C367.995 45.1854 369.746 47.6053 368.716 45.0553Z" fill="#A66036"/>
<path d="M336.926 13.7944L337.636 14.0945L338.596 11.8145L336.926 13.7944Z" fill="#A66036"/>
<path d="M298.435 13.9841C299.275 13.9741 299.725 13.9142 299.985 13.7842C300.245 13.6542 300.314 13.4642 300.364 13.2742C300.474 12.8942 300.565 12.5442 302.105 12.7642C302.845 12.1042 299.575 12.4142 300.315 11.8242C299.825 12.0342 299.385 12.1642 299.025 12.2842C298.665 12.4242 298.384 12.5443 298.204 12.6743C297.834 12.9343 297.855 13.2541 298.435 13.9841Z" fill="#A66036"/>
<path d="M300.316 11.8257C300.636 11.6957 300.966 11.5457 301.316 11.3457C300.736 11.5557 300.476 11.7057 300.316 11.8257Z" fill="#A66036"/>
<path d="M345.525 195.496L347.445 194.016L345.825 194.646L345.525 195.496Z" fill="#A66036"/>
<path d="M347.047 190.836L348.616 191.416L348.427 189.416C348.137 189.866 347.577 190.746 347.047 190.826V190.836Z" fill="#A66036"/>
<path d="M210.266 107.896L209.966 107.605C209.466 107.795 209.256 108.285 208.836 109.255L210.266 107.896Z" fill="#A66036"/>
<path d="M200.386 137.074L200.535 136.564L198.926 137.205L200.386 137.074Z" fill="#A66036"/>
<path d="M197.484 162.705C197.684 161.685 197.534 160.425 197.734 159.395C197.684 161.675 195.684 162.755 197.484 162.705Z" fill="#A66036"/>
</svg>
